# https://github.com/mikedh/trimesh
mtllib material.mtl

o rotor_001
usemtl material_0
v -2.00000000 -6.00088978 1.26557004
v -2.00000000 -7.45453978 5.04166985
v -2.00000000 -8.46761990 3.04967999
v -2.00000000 -8.95759964 0.87927002
v -2.00000000 -5.98181009 6.72267008
v -2.00000000 -5.87040997 2.08118010
v -2.00000000 -5.49316978 2.70207000
v -2.00000000 -4.91992998 3.14686990
v -2.00000000 -4.22507000 3.35806990
v -2.00000000 -4.14029980 7.98966980
v -2.00000000 -3.50089002 3.30716991
v -1.99580002 1.04911005 2.95446992
v -2.00000000 -2.04357004 8.76266956
v -2.00000000 0.17908999 8.99567032
v -2.00000000 2.39064002 8.67368031
v -2.00000000 2.39064002 8.67368031
v -1.99580002 1.04911005 2.95446992
v -1.86600006 4.77931976 3.43247008
v -2.00000000 4.45473003 7.81766987
v -2.00000000 2.39064002 8.67368031
v -1.86600006 4.77931976 3.43247008
v -1.86600006 4.77931976 3.43247008
v -2.00000000 5.04250002 4.35526991
v -2.00000000 4.45473003 7.81766987
v -2.00000000 4.45473003 7.81766987
v -2.00000000 5.04250002 4.35526991
v -2.00000000 5.85835981 4.74956989
v -2.00000000 6.24414015 6.47868013
v -2.00000000 6.75371981 4.88217020
v -2.00000000 7.64706993 4.74197006
v -6.00000000 7.99882984 -0.06943000
v -6.00000000 7.70888996 -2.13762999
v -6.00000000 7.74359989 2.00337005
v -6.00000000 6.96059990 3.93948007
v -6.00000000 6.89353991 -4.06022978
v -6.00000000 5.70318985 5.60666990
v -6.00000000 5.60833979 -5.70642996
v -6.00000000 4.05705023 6.89167023
v -6.00000000 3.94089007 -6.96382999
v -6.00000000 2.13437009 7.70767021
v -6.00000000 2.00481009 -7.74682999
v -6.00000000 -0.00089000 -0.00233000
v -6.00000000 0.06618000 7.99767017
v -6.00000000 -0.06795000 -8.00203037
v -6.00000000 -2.13614988 -7.71213007
v -3.60560012 4.59911013 -7.73792982
v -3.60560012 5.87471008 -6.81971979
v 3.60549998 4.59911013 -7.73792982
v 3.60549998 5.87471008 -6.81972980
v -3.60560012 5.87471008 -6.81971979
v -3.60560012 6.97111988 -5.69363022
v 3.60549998 5.87471008 -6.81972980
v 3.60549998 6.97110987 -5.69363022
v -3.60560012 6.97111988 -5.69363022
v -3.60560012 7.85489988 -4.39392996
v 3.60549998 6.97110987 -5.69363022
v 3.60549998 7.85489988 -4.39392996
v -3.60560012 7.85489988 -4.39392996
v -3.60560012 8.49911022 -2.96033001
v 3.60549998 7.85489988 -4.39392996
v 3.60549998 8.49911022 -2.96033001
v -3.60560012 -5.00088978 -7.48563004
v -3.60560012 -3.44530010 -8.31711960
v 3.60549998 -5.00088978 -7.48563004
v 3.60549998 -3.44496012 -8.31723022
v -3.60560012 -3.44530010 -8.31711960
v -3.60560012 -1.75737000 -8.82921982
v 3.60549998 -3.44496012 -8.31723022
v 3.60549998 -1.75664997 -8.82942963
v -3.60560012 -1.75737000 -8.82921982
v -3.60560012 -0.00089000 -9.00232983
v 3.60549998 -1.75664997 -8.82942963
v 3.60549998 -0.00089000 -9.00232983
v -3.60560012 7.49364996 4.98086977
v -2.00000000 7.64706993 4.74197006
v -1.89600003 8.00920010 4.10117006
v -3.60560012 7.49364996 4.98086977
v -1.89600003 8.00920010 4.10117006
v -1.70679998 8.23875046 3.61787009
v -3.60560012 7.49364996 4.98086977
v -1.70679998 8.23875046 3.61787009
v -1.34179997 8.49911022 2.95567012
v -3.60560012 8.49911022 2.95567012
v -3.60560012 7.49364996 4.98086977
v -1.34179997 8.49911022 2.95567012
v -2.00000000 6.24414015 6.47868013
v -2.00000000 7.64706993 4.74197006
v -3.60560012 7.49364996 4.98086977
v -3.60560012 7.49364996 4.98086977
v -3.60560012 6.01519012 6.69166994
v -2.00000000 6.24414015 6.47868013
v -2.00000000 4.45473003 7.81766987
v -2.00000000 6.24414015 6.47868013
v -3.60560012 6.01519012 6.69166994
v -3.60560012 6.01519012 6.69166994
v -3.60560012 4.15704012 7.97968006
v -2.00000000 4.45473003 7.81766987
v -2.00000000 2.39064002 8.67368031
v -2.00000000 4.45473003 7.81766987
v -3.60560012 4.15704012 7.97968006
v -3.60560012 4.15704012 7.97968006
v -3.60560012 2.03646994 8.76366997
v -2.00000000 2.39064002 8.67368031
v -2.00000000 0.17908999 8.99567032
v -2.00000000 2.39064002 8.67368031
v -3.60560012 2.03646994 8.76366997
v -3.60560012 2.03646994 8.76366997
v -3.60560012 -0.21259999 8.99567032
v -2.00000000 0.17908999 8.99567032
v -2.00000000 -2.04357004 8.76266956
v -2.00000000 0.17908999 8.99567032
v -3.60560012 -0.21259999 8.99567032
v -3.60560012 -0.21259999 8.99567032
v -3.60560012 -2.44847989 8.65867996
v -2.00000000 -2.04357004 8.76266956
v -2.00000000 -4.14029980 7.98966980
v -2.00000000 -2.04357004 8.76266956
v -3.60560012 -2.44847989 8.65867996
v -3.60560012 -2.44847989 8.65867996
v -3.60560012 -4.52975988 7.77467012
v -2.00000000 -4.14029980 7.98966980
v -2.00000000 -5.98181009 6.72267008
v -2.00000000 -4.14029980 7.98966980
v -3.60560012 -4.52975988 7.77467012
v -3.60560012 -4.52975988 7.77467012
v -3.60560012 -6.32525015 6.40067005
v -2.00000000 -5.98181009 6.72267008
v -2.00000000 -7.45453978 5.04166985
v -2.00000000 -5.98181009 6.72267008
v -3.60560012 -6.32525015 6.40067005
v -3.60560012 -7.72158003 4.62267017
v -2.00000000 -7.45453978 5.04166985
v -3.60560012 -6.32525015 6.40067005
v -2.00000000 -8.46761990 3.04967999
v -2.00000000 -7.45453978 5.04166985
v -3.60560012 -7.72158003 4.62267017
v -3.60560012 -7.72158003 4.62267017
v -3.60560012 -8.63064957 2.55247998
v -2.00000000 -8.46761990 3.04967999
v -2.00000000 -8.95759964 0.87927002
v -2.00000000 -8.46761990 3.04967999
v -3.60560012 -8.63064957 2.55247998
v -3.60560012 -8.63064957 2.55247998
v -3.60560012 -8.99507999 0.32108000
v -2.00000000 -8.95759964 0.87927002
v -3.60560012 -8.79185963 -1.93071997
v -2.67479992 -8.87479973 -1.50352001
v -2.18090010 -8.99973011 -0.14673001
v -3.15219998 -8.54994965 -2.81542993
v -2.67479992 -8.87479973 -1.50352001
v -3.60560012 -8.79185963 -1.93071997
v -3.60560012 -8.79185963 -1.93071997
v -3.60560012 -8.03382969 -4.06092978
v -3.15219998 -8.54994965 -2.81542993
v 1.37479997 -5.00088978 -0.58433002
v 1.00000000 -5.00088978 1.10617006
v 0.00000000 -5.00088978 -0.00233000
v -1.00000000 -5.00088978 0.93118000
v -1.25899994 -5.00088978 -0.53753000
v 3.60549998 -5.00088978 -7.48563004
v -3.60560012 -5.00088978 -7.48563004
v -2.31299996 -6.00088978 -0.50972998
v -2.67479992 -8.87479973 -1.50352001
v -3.15219998 -8.54994965 -2.81542993
v -3.60560012 -8.03382969 -4.06092978
v -4.17819977 -6.95020008 -5.63411999
v -4.34789991 -6.49254990 -6.10052013
v -4.54169989 -5.78034019 -6.70483017
v -2.31299996 -6.00088978 -0.50972998
v -4.34789991 -6.49254990 -6.10052013
v -2.18090010 -8.99973011 -0.14673001
v -1.00000000 -4.74733019 2.03607011
v -1.00000000 -5.00088978 1.37066996
v 1.00000000 -5.00088978 1.37066996
v 1.00000000 -4.74552011 2.03817010
v -1.00000000 -3.75089002 2.33887005
v -1.00000000 -4.74733019 2.03607011
v 1.00000000 -4.74552011 2.03817010
v 1.00000000 -3.75089002 2.33887005
v 1.00000000 5.17158985 3.12238002
v 1.00000000 5.57883978 3.51016998
v -1.00000000 5.17158985 3.12238002
v -1.00000000 5.57892990 3.51016998
v 1.00000000 5.57883978 3.51016998
v 1.00000000 6.07904005 3.76957011
v -1.00000000 5.57892990 3.51016998
v -1.00000000 6.07915020 3.76968002
v 1.00000000 6.07904005 3.76957011
v 1.00000000 6.63105011 3.87916994
v -1.00000000 6.07915020 3.76968002
v -1.00000000 6.63114977 3.87916994
v 1.00000000 6.63105011 3.87916994
v 1.00000000 7.19122982 3.83077002
v -1.00000000 6.63114977 3.87916994
v -1.00000000 7.19130993 3.83077002
v 1.00000000 7.19122982 3.83077002
v 1.00000000 7.71589994 3.62837005
v -1.00000000 7.19130993 3.83077002
v -1.00000000 7.71601009 3.62826991
v 1.00000000 7.71589994 3.62837005
v 1.00000000 8.16394043 3.28727007
v -1.00000000 7.71601009 3.62826991
v -1.00000000 8.16405964 3.28716993
v 1.00000000 8.16394043 3.28727007
v 1.00000000 8.49911022 2.83507991
v -1.00000000 8.16405964 3.28716993
v -1.00000000 8.49911022 2.83507991
v -2.00000000 -8.95759964 0.87927002
v -2.31299996 -6.00088978 -0.50972998
v -2.00000000 -6.00088978 1.26557004
v -2.18090010 -8.99973011 -0.14673001
v -1.67330003 -5.07964993 -0.53842998
v -4.11049986 -5.05836010 -7.39513016
v -3.60560012 -5.00088978 -7.48563004
v -1.25899994 -5.00088978 -0.53753000
v -1.67330003 -5.07964993 -0.53842998
v -3.60560012 -5.00088978 -7.48563004
v -4.32460022 -5.19023991 -7.24833012
v -4.11049986 -5.05836010 -7.39513016
v -1.67330003 -5.07964993 -0.53842998
v -1.67330003 -5.07964993 -0.53842998
v -2.01209998 -5.29805994 -0.52692002
v -4.32460022 -5.19023991 -7.24833012
v -4.45569992 -5.35820007 -7.08053017
v -4.32460022 -5.19023991 -7.24833012
v -2.01209998 -5.29805994 -0.52692002
v -2.31299996 -6.00088978 -0.50972998
v -4.54169989 -5.78034019 -6.70483017
v -4.45569992 -5.35820007 -7.08053017
v -2.01209998 -5.29805994 -0.52692002
v -2.31299996 -6.00088978 -0.50972998
v -4.45569992 -5.35820007 -7.08053017
v -1.00000000 -5.00088978 1.37066996
v -1.71140003 -5.29805994 1.17886996
v -1.00000000 -5.00088978 0.93118000
v -1.70710003 -4.79262018 2.39278007
v -2.00000000 -5.49316978 2.70207000
v -2.00000000 -5.87040997 2.08118010
v -1.70710003 -4.79262018 2.39278007
v -2.00000000 -5.87040997 2.08118010
v -2.00000000 -6.00088978 1.26557004
v -1.70710003 -4.79262018 2.39278007
v -2.00000000 -6.00088978 1.26557004
v -1.71140003 -5.29805994 1.17886996
v -1.71140003 -5.29805994 1.17886996
v -1.00000000 -5.00088978 1.37066996
v -1.00000000 -4.74733019 2.03607011
v -1.70710003 -4.79262018 2.39278007
v -1.71140003 -5.29805994 1.17886996
v -1.00000000 -4.74733019 2.03607011
v -1.00000000 -4.74733019 2.03607011
v -1.00000000 -3.75089002 2.33887005
v -1.70710003 -4.79262018 2.39278007
v -2.00000000 -4.91992998 3.14686990
v -2.00000000 -5.49316978 2.70207000
v -1.70710003 -4.79262018 2.39278007
v -1.70710003 -4.79262018 2.39278007
v -1.00000000 -3.75089002 2.33887005
v -1.68299997 -3.67163992 2.64586997
v -1.68299997 -3.67163992 2.64586997
v -2.00000000 -4.22507000 3.35806990
v -2.00000000 -4.91992998 3.14686990
v -1.70710003 -4.79262018 2.39278007
v -1.68299997 -3.67163992 2.64586997
v -2.00000000 -4.91992998 3.14686990
v -2.00000000 -3.50089002 3.30716991
v -2.00000000 -4.22507000 3.35806990
v -1.68299997 -3.67163992 2.64586997
v -1.00000000 5.17158985 3.12238002
v -1.00000000 5.57892990 3.51016998
v -1.50000000 5.06648016 3.20547009
v -1.70710003 5.92460012 4.02497005
v -2.00000000 5.04250002 4.35526991
v -1.86600006 4.77931976 3.43247008
v -1.50000000 5.06648016 3.20547009
v -1.70710003 5.92460012 4.02497005
v -1.86600006 4.77931976 3.43247008
v -1.70710003 5.92460012 4.02497005
v -1.50000000 5.06648016 3.20547009
v -1.00000000 5.57892990 3.51016998
v -1.00000000 5.57892990 3.51016998
v -1.00000000 6.07915020 3.76968002
v -1.70710003 5.92460012 4.02497005
v -2.00000000 5.85835981 4.74956989
v -2.00000000 5.04250002 4.35526991
v -1.70710003 5.92460012 4.02497005
v -1.70710003 7.13800001 4.14036989
v -2.00000000 6.75371981 4.88217020
v -2.00000000 5.85835981 4.74956989
v -1.70710003 5.92460012 4.02497005
v -1.70710003 7.13800001 4.14036989
v -2.00000000 5.85835981 4.74956989
v -1.70710003 5.92460012 4.02497005
v -1.00000000 6.07915020 3.76968002
v -1.00000000 6.63114977 3.87916994
v -1.70710003 7.13800001 4.14036989
v -1.70710003 5.92460012 4.02497005
v -1.00000000 6.63114977 3.87916994
v -1.00000000 6.63114977 3.87916994
v -1.00000000 7.19130993 3.83077002
v -1.70710003 7.13800001 4.14036989
v -2.00000000 7.64706993 4.74197006
v -2.00000000 6.75371981 4.88217020
v -1.70710003 7.13800001 4.14036989
v -1.89600003 8.00920010 4.10117006
v -2.00000000 7.64706993 4.74197006
v -1.70710003 7.13800001 4.14036989
v -1.70679998 8.23875046 3.61787009
v -1.89600003 8.00920010 4.10117006
v -1.70710003 7.13800001 4.14036989
v -1.70710003 7.13800001 4.14036989
v -1.00000000 7.19130993 3.83077002
v -1.00000000 7.71601009 3.62826991
v -1.70679998 8.23875046 3.61787009
v -1.70710003 7.13800001 4.14036989
v -1.00000000 7.71601009 3.62826991
v -1.00000000 8.16405964 3.28716993
v -1.34179997 8.49911022 2.95567012
v -1.70679998 8.23875046 3.61787009
v -1.00000000 7.71601009 3.62826991
v -1.00000000 8.16405964 3.28716993
v -1.70679998 8.23875046 3.61787009
v -1.00000000 8.16405964 3.28716993
v -1.00000000 8.49911022 2.83507991
v -1.34179997 8.49911022 2.95567012
v -1.71140003 -5.29805994 1.17886996
v -1.67330003 -5.07964993 -0.53842998
v -1.25899994 -5.00088978 -0.53753000
v -1.71140003 -5.29805994 1.17886996
v -1.25899994 -5.00088978 -0.53753000
v -1.00000000 -5.00088978 0.93118000
v -2.01209998 -5.29805994 -0.52692002
v -1.67330003 -5.07964993 -0.53842998
v -1.71140003 -5.29805994 1.17886996
v -1.71140003 -5.29805994 1.17886996
v -2.00000000 -6.00088978 1.26557004
v -2.01209998 -5.29805994 -0.52692002
v -2.31299996 -6.00088978 -0.50972998
v 5.15080023 8.49911022 1.10196996
v 5.25479984 8.49911022 -0.00233000
v 5.15080023 8.49911022 -1.10662997
v 4.97779989 8.49911022 -1.69951999
v 5.07200003 8.49911022 1.41366994
v 4.96589994 8.49911022 1.72546995
v 4.72949982 8.49911022 -2.20792007
v 4.82350016 8.49911022 2.03876996
v 4.63240004 8.49911022 2.34736991
v 4.40719986 8.49911022 -2.60963011
v 4.36759996 8.49911022 2.64117002
v 4.01370001 8.49911022 -2.87433004
v 4.00939989 8.49911022 2.87157011
v 3.60549998 8.49911022 -2.96033001
v 3.60549998 8.49911022 2.95567012
v -1.00000000 8.49911022 2.83507991
v 1.00000000 8.49911022 2.83507991
v -0.00000000 8.49911022 -0.00233000
v -3.60560012 8.49911022 -2.96033001
v -1.34179997 8.49911022 2.95567012
v 1.34179997 8.49911022 2.95567012
v -3.60560012 8.49911022 2.95567012
v -4.01249981 8.49911022 -2.87491989
v -4.01070023 8.49911022 2.87097001
v -4.40320015 8.49911022 2.60887003
v -4.40880013 8.49911022 -2.60823011
v -4.72669983 8.49911022 2.20777011
v -4.72849989 8.49911022 -2.20963001
v -4.97660017 8.49911022 -1.70243001
v -4.97669983 8.49911022 1.69756997
v -5.15080023 8.49911022 -1.10662997
v -5.15080023 8.49911022 1.10196996
v -5.25479984 8.49911022 -0.00234000
v -6.00000000 -2.13614988 -7.71213007
v -6.00000000 -0.06795000 -8.00203037
v -5.15080023 -1.16784000 -8.49392986
v -5.15080023 -1.16784000 -8.49392986
v -5.15080023 -2.39341998 -8.23301983
v -6.00000000 -2.13614988 -7.71213007
v -6.00000000 -2.13614988 -7.71213007
v -5.15080023 -2.39341998 -8.23301983
v -5.15080023 -3.69770002 -7.73552990
v -6.00000000 -4.05882978 -6.89672995
v -6.00000000 -2.13614988 -7.71213007
v -5.15080023 -3.69770002 -7.73552990
v -5.15080023 -3.69770002 -7.73552990
v -5.15080023 -5.03249979 -6.94153023
v -6.00000000 -4.05882978 -6.89672995
v -6.00000000 -5.70496988 -5.61152983
v -6.00000000 -4.05882978 -6.89672995
v -5.15080023 -5.03249979 -6.94153023
v -5.15080023 -5.03249979 -6.94153023
v -5.15080023 -6.33935022 -5.77231979
v -6.00000000 -5.70496988 -5.61152983
v -6.00000000 -6.96237993 -3.94412994
v -6.00000000 -5.70496988 -5.61152983
v -5.15080023 -6.33935022 -5.77231979
v -5.15080023 -6.33935022 -5.77231979
v -5.15080023 -7.48297024 -4.18422985
v -6.00000000 -6.96237993 -3.94412994
v -6.00000000 -6.96237993 -3.94412994
v -5.15080023 -7.48297024 -4.18422985
v -5.15080023 -8.26607990 -2.27303004
v -6.00000000 -7.74537992 -2.00802994
v -6.00000000 -6.96237993 -3.94412994
v -5.15080023 -8.26607990 -2.27303004
v -5.15080023 -8.26607990 -2.27303004
v -5.15080023 -8.57061005 -0.17332000
v -6.00000000 -7.74537992 -2.00802994
v -6.00000000 -8.00061035 0.06477000
v -6.00000000 -7.74537992 -2.00802994
v -5.15080023 -8.57061005 -0.17332000
v -5.15080023 -8.57061005 -0.17332000
v -5.15080023 -8.34856033 1.94336998
v -6.00000000 -8.00061035 0.06477000
v -6.00000000 -7.71066999 2.13297009
v -6.00000000 -8.00061035 0.06477000
v -5.15080023 -8.34856033 1.94336998
v -5.15080023 -8.34856033 1.94336998
v -5.15080023 -7.65830994 3.84908009
v -6.00000000 -7.71066999 2.13297009
v -6.00000000 -6.89531994 4.05557013
v -6.00000000 -7.71066999 2.13297009
v -5.15080023 -7.65830994 3.84908009
v -5.15080023 -7.65830994 3.84908009
v -5.15080023 -6.65255022 5.40366983
v -6.00000000 -6.89531994 4.05557013
v -6.00000000 -5.61011982 5.70168018
v -6.00000000 -6.89531994 4.05557013
v -5.15080023 -6.65255022 5.40366983
v -5.15080023 -6.65255022 5.40366983
v -5.15080023 -5.48445988 6.58566999
v -6.00000000 -5.61011982 5.70168018
v -6.00000000 -5.61011982 5.70168018
v -5.15080023 -5.48445988 6.58566999
v -5.15080023 -4.27481985 7.42767000
v -6.00000000 -3.94267011 6.95867014
v -6.00000000 -5.61011982 5.70168018
v -5.15080023 -4.27481985 7.42767000
v -5.15080023 -4.27481985 7.42767000
v -5.15080023 -3.07932997 7.99767017
v -6.00000000 -3.94267011 6.95867014
v -6.00000000 -2.00658989 7.74168015
v -6.00000000 -3.94267011 6.95867014
v -5.15080023 -3.07932997 7.99767017
v -5.15080023 -3.07932997 7.99767017
v -5.15080023 -1.92971003 8.34967041
v -6.00000000 -2.00658989 7.74168015
v -6.00000000 -2.00658989 7.74168015
v -5.15080023 -1.92971003 8.34967041
v -5.15080023 -0.86492002 8.52567005
v -6.00000000 -2.00658989 7.74168015
v -5.15080023 -0.86492002 8.52567005
v -5.15080023 0.07097000 8.56867027
v -6.00000000 0.06618000 7.99767017
v -6.00000000 -2.00658989 7.74168015
v -5.15080023 0.07097000 8.56867027
v -3.60560012 6.97111988 -5.69363022
v -3.60560012 5.87471008 -6.81971979
v -5.15080023 5.86632013 -6.25091982
v -5.15080023 5.86632013 -6.25091982
v -5.15080023 7.13262987 -4.75441980
v -3.60560012 6.97111988 -5.69363022
v -3.60560012 7.85489988 -4.39392996
v -3.60560012 6.97111988 -5.69363022
v -5.15080023 7.13262987 -4.75441980
v -5.15080023 7.13262987 -4.75441980
v -5.15080023 8.02585030 -3.00911999
v -3.60560012 7.85489988 -4.39392996
v -3.60560012 8.49911022 -2.96033001
v -3.60560012 7.85489988 -4.39392996
v -5.15080023 8.02585030 -3.00911999
v -4.01249981 8.49911022 -2.87491989
v -3.60560012 8.49911022 -2.96033001
v -5.15080023 8.02585030 -3.00911999
v -4.40880013 8.49911022 -2.60823011
v -4.01249981 8.49911022 -2.87491989
v -5.15080023 8.02585030 -3.00911999
v -4.72849989 8.49911022 -2.20963001
v -4.40880013 8.49911022 -2.60823011
v -5.15080023 8.02585030 -3.00911999
v -4.97660017 8.49911022 -1.70243001
v -4.72849989 8.49911022 -2.20963001
v -5.15080023 8.02585030 -3.00911999
v -5.15080023 8.02585030 -3.00911999
v -5.15080023 8.49911022 -1.10662997
v -4.97660017 8.49911022 -1.70243001
v -5.15080023 8.01546001 3.03206992
v -3.60560012 8.49911022 2.95567012
v -4.01070023 8.49911022 2.87097001
v -5.15080023 8.01546001 3.03206992
v -4.01070023 8.49911022 2.87097001
v -4.40320015 8.49911022 2.60887003
v -5.15080023 8.01546001 3.03206992
v -4.40320015 8.49911022 2.60887003
v -4.72669983 8.49911022 2.20777011
v -5.15080023 8.01546001 3.03206992
v -4.72669983 8.49911022 2.20777011
v -4.97669983 8.49911022 1.69756997
v -5.15080023 8.49911022 1.10196996
v -5.15080023 8.01546001 3.03206992
v -4.97669983 8.49911022 1.69756997
v -3.60560012 8.49911022 2.95567012
v -5.15080023 8.01546001 3.03206992
v -5.15080023 7.13700008 4.74316978
v -3.60560012 7.49364996 4.98086977
v -3.60560012 8.49911022 2.95567012
v -5.15080023 7.13700008 4.74316978
v -5.15080023 7.13700008 4.74316978
v -5.15080023 5.98916006 6.12867022
v -3.60560012 7.49364996 4.98086977
v -3.60560012 6.01519012 6.69166994
v -3.60560012 7.49364996 4.98086977
v -5.15080023 5.98916006 6.12867022
v -5.15080023 5.98916006 6.12867022
v -5.15080023 4.73707008 7.14066982
v -3.60560012 6.01519012 6.69166994
v -3.60560012 4.15704012 7.97968006
v -3.60560012 6.01519012 6.69166994
v -5.15080023 4.73707008 7.14066982
v -5.15080023 4.73707008 7.14066982
v -5.15080023 3.47751999 7.83166981
v -3.60560012 4.15704012 7.97968006
v -3.60560012 4.15704012 7.97968006
v -5.15080023 3.47751999 7.83166981
v -5.15080023 2.25250006 8.26766968
v -3.60560012 2.03646994 8.76366997
v -3.60560012 4.15704012 7.97968006
v -5.15080023 2.25250006 8.26766968
v -5.15080023 2.25250006 8.26766968
v -5.15080023 1.10237002 8.49767017
v -3.60560012 2.03646994 8.76366997
v -3.60560012 2.03646994 8.76366997
v -5.15080023 1.10237002 8.49767017
v -5.15080023 0.07097000 8.56867027
v -3.60560012 -0.21259999 8.99567032
v -3.60560012 2.03646994 8.76366997
v -5.15080023 0.07097000 8.56867027
v -5.15080023 0.07097000 8.56867027
v -5.15080023 -0.86492002 8.52567005
v -3.60560012 -0.21259999 8.99567032
v -3.60560012 -0.21259999 8.99567032
v -5.15080023 -0.86492002 8.52567005
v -5.15080023 -1.92971003 8.34967041
v -3.60560012 -2.44847989 8.65867996
v -3.60560012 -0.21259999 8.99567032
v -5.15080023 -1.92971003 8.34967041
v -5.15080023 -1.92971003 8.34967041
v -5.15080023 -3.07932997 7.99767017
v -3.60560012 -2.44847989 8.65867996
v -3.60560012 -2.44847989 8.65867996
v -5.15080023 -3.07932997 7.99767017
v -5.15080023 -4.27481985 7.42767000
v -3.60560012 -4.52975988 7.77467012
v -3.60560012 -2.44847989 8.65867996
v -5.15080023 -4.27481985 7.42767000
v -5.15080023 -4.27481985 7.42767000
v -5.15080023 -5.48445988 6.58566999
v -3.60560012 -4.52975988 7.77467012
v -3.60560012 -6.32525015 6.40067005
v -3.60560012 -4.52975988 7.77467012
v -5.15080023 -5.48445988 6.58566999
v -5.15080023 -5.48445988 6.58566999
v -5.15080023 -6.65255022 5.40366983
v -3.60560012 -6.32525015 6.40067005
v -3.60560012 -7.72158003 4.62267017
v -3.60560012 -6.32525015 6.40067005
v -5.15080023 -6.65255022 5.40366983
v -5.15080023 -6.65255022 5.40366983
v -5.15080023 -7.65830994 3.84908009
v -3.60560012 -7.72158003 4.62267017
v -3.60560012 -8.63064957 2.55247998
v -3.60560012 -7.72158003 4.62267017
v -5.15080023 -7.65830994 3.84908009
v -5.15080023 -7.65830994 3.84908009
v -5.15080023 -8.34856033 1.94336998
v -3.60560012 -8.63064957 2.55247998
v -3.60560012 -8.99507999 0.32108000
v -3.60560012 -8.63064957 2.55247998
v -5.15080023 -8.34856033 1.94336998
v -5.15080023 -8.34856033 1.94336998
v -5.15080023 -8.57061005 -0.17332000
v -3.60560012 -8.99507999 0.32108000
v -3.60560012 -8.79185963 -1.93071997
v -3.60560012 -8.99507999 0.32108000
v -5.15080023 -8.57061005 -0.17332000
v -5.15080023 -8.57061005 -0.17332000
v -5.15080023 -8.26607990 -2.27303004
v -3.60560012 -8.79185963 -1.93071997
v -3.60560012 -8.03382969 -4.06092978
v -3.60560012 -8.79185963 -1.93071997
v -5.15080023 -8.26607990 -2.27303004
v -5.15080023 -8.26607990 -2.27303004
v -5.15080023 -7.48297024 -4.18422985
v -3.60560012 -8.03382969 -4.06092978
v -5.15080023 -6.33935022 -5.77231979
v -4.17819977 -6.95020008 -5.63411999
v -3.60560012 -8.03382969 -4.06092978
v -5.15080023 -7.48297024 -4.18422985
v -5.15080023 -6.33935022 -5.77231979
v -3.60560012 -8.03382969 -4.06092978
v -4.34789991 -6.49254990 -6.10052013
v -4.17819977 -6.95020008 -5.63411999
v -5.15080023 -6.33935022 -5.77231979
v -5.15080023 -5.03249979 -6.94153023
v -4.45569992 -5.35820007 -7.08053017
v -4.54169989 -5.78034019 -6.70483017
v -5.15080023 -5.03249979 -6.94153023
v -4.54169989 -5.78034019 -6.70483017
v -4.34789991 -6.49254990 -6.10052013
v -5.15080023 -6.33935022 -5.77231979
v -5.15080023 -5.03249979 -6.94153023
v -4.34789991 -6.49254990 -6.10052013
v -4.32460022 -5.19023991 -7.24833012
v -4.45569992 -5.35820007 -7.08053017
v -5.15080023 -5.03249979 -6.94153023
v -5.15080023 -3.69770002 -7.73552990
v -3.60560012 -5.00088978 -7.48563004
v -4.11049986 -5.05836010 -7.39513016
v -5.15080023 -3.69770002 -7.73552990
v -4.11049986 -5.05836010 -7.39513016
v -4.32460022 -5.19023991 -7.24833012
v -5.15080023 -5.03249979 -6.94153023
v -5.15080023 -3.69770002 -7.73552990
v -4.32460022 -5.19023991 -7.24833012
v -3.60560012 -3.44530010 -8.31711960
v -3.60560012 -5.00088978 -7.48563004
v -5.15080023 -3.69770002 -7.73552990
v -5.15080023 -3.69770002 -7.73552990
v -5.15080023 -2.39341998 -8.23301983
v -3.60560012 -3.44530010 -8.31711960
v -3.60560012 -1.75737000 -8.82921982
v -3.60560012 -3.44530010 -8.31711960
v -5.15080023 -2.39341998 -8.23301983
v -5.15080023 -2.39341998 -8.23301983
v -5.15080023 -1.16784000 -8.49392986
v -3.60560012 -1.75737000 -8.82921982
v -3.60560012 -1.75737000 -8.82921982
v -5.15080023 -1.16784000 -8.49392986
v -5.15080023 0.02667000 -8.57373047
v -5.15080023 1.10237002 8.49767017
v -6.00000000 0.06618000 7.99767017
v -5.15080023 0.07097000 8.56867027
v -6.00000000 0.06618000 7.99767017
v -5.15080023 1.10237002 8.49767017
v -5.15080023 2.25250006 8.26766968
v -6.00000000 2.13437009 7.70767021
v -6.00000000 0.06618000 7.99767017
v -5.15080023 2.25250006 8.26766968
v -5.15080023 2.25250006 8.26766968
v -5.15080023 3.47751999 7.83166981
v -6.00000000 2.13437009 7.70767021
v -6.00000000 4.05705023 6.89167023
v -6.00000000 2.13437009 7.70767021
v -5.15080023 3.47751999 7.83166981
v -5.15080023 3.47751999 7.83166981
v -5.15080023 4.73707008 7.14066982
v -6.00000000 4.05705023 6.89167023
v -6.00000000 4.05705023 6.89167023
v -5.15080023 4.73707008 7.14066982
v -5.15080023 5.98916006 6.12867022
v -6.00000000 5.70318985 5.60666990
v -6.00000000 4.05705023 6.89167023
v -5.15080023 5.98916006 6.12867022
v -5.15080023 5.98916006 6.12867022
v -5.15080023 7.13700008 4.74316978
v -6.00000000 5.70318985 5.60666990
v -6.00000000 6.96059990 3.93948007
v -6.00000000 5.70318985 5.60666990
v -5.15080023 7.13700008 4.74316978
v -5.15080023 7.13700008 4.74316978
v -5.15080023 8.01546001 3.03206992
v -6.00000000 6.96059990 3.93948007
v -6.00000000 7.74359989 2.00337005
v -6.00000000 6.96059990 3.93948007
v -5.15080023 8.01546001 3.03206992
v -5.15080023 8.01546001 3.03206992
v -5.15080023 8.49911022 1.10196996
v -6.00000000 7.74359989 2.00337005
v -6.00000000 7.74359989 2.00337005
v -5.15080023 8.49911022 1.10196996
v -5.25479984 8.49911022 -0.00234000
v -6.00000000 7.99882984 -0.06943000
v -6.00000000 7.74359989 2.00337005
v -5.25479984 8.49911022 -0.00234000
v -6.00000000 7.99882984 -0.06943000
v -5.25479984 8.49911022 -0.00234000
v -5.15080023 8.49911022 -1.10662997
v -6.00000000 7.70888996 -2.13762999
v -6.00000000 7.99882984 -0.06943000
v -5.15080023 8.49911022 -1.10662997
v -5.15080023 8.49911022 -1.10662997
v -5.15080023 8.02585030 -3.00911999
v -6.00000000 7.70888996 -2.13762999
v -6.00000000 6.89353991 -4.06022978
v -6.00000000 7.70888996 -2.13762999
v -5.15080023 8.02585030 -3.00911999
v -5.15080023 8.02585030 -3.00911999
v -5.15080023 7.13262987 -4.75441980
v -6.00000000 6.89353991 -4.06022978
v -6.00000000 5.60833979 -5.70642996
v -6.00000000 6.89353991 -4.06022978
v -5.15080023 7.13262987 -4.75441980
v -5.15080023 7.13262987 -4.75441980
v -5.15080023 5.86632013 -6.25091982
v -6.00000000 5.60833979 -5.70642996
v -6.00000000 5.60833979 -5.70642996
v -5.15080023 5.86632013 -6.25091982
v -5.15080023 4.29268980 -7.42082977
v -6.00000000 3.94089007 -6.96382999
v -6.00000000 5.60833979 -5.70642996
v -5.15080023 4.29268980 -7.42082977
v -6.00000000 2.00481009 -7.74682999
v -6.00000000 3.94089007 -6.96382999
v -5.15080023 2.04047990 -8.32713032
v 2.00000000 6.26145983 6.46166992
v 2.00000000 7.64706993 4.74197006
v 2.00000000 6.75407982 4.88217020
v 2.00000000 5.85895014 4.74967003
v 2.00000000 5.04315996 4.35577011
v 2.00000000 4.49638987 7.79367018
v 2.00000000 4.38705015 3.74247003
v 2.00000000 2.45994997 8.65466976
v 1.99160004 1.03584003 2.94626999
v 2.00000000 0.27493000 8.99368000
v 2.00000000 -1.92679000 8.78966999
v 2.00000000 -3.50089002 3.30716991
v 2.00000000 -4.01233006 8.05467033
v 2.00000000 -4.21819019 3.35876989
v 2.00000000 -4.91451979 3.14966989
v 2.00000000 -5.48962021 2.70606995
v 2.00000000 -5.85578012 6.83267021
v 2.00000000 -5.86839008 2.08646989
v 2.00000000 -6.00088978 1.26557004
v 2.00000000 -7.34580994 5.19866991
v 2.00000000 -8.93237019 1.10617006
v 2.00000000 -8.39241982 3.25066996
v 6.00000000 -7.47839022 2.84148002
v 6.00000000 -7.95962000 0.80917001
v 6.00000000 -7.89847994 -1.27832997
v 6.00000000 -7.29912996 -3.27892995
v 6.00000000 -6.48757982 4.67987013
v 6.00000000 -6.20241022 -5.05612993
v 6.00000000 -5.05470991 6.19967985
v 6.00000000 -4.68308020 -6.48902988
v 6.00000000 -3.27744007 7.29567003
v 6.00000000 -2.84466004 -7.47982979
v 6.00000000 -0.00089000 -0.00233000
v 6.00000000 -1.27687001 7.89567995
v 6.00000000 -0.81243002 -7.96103001
v 6.00000000 0.81066000 7.95666981
v 6.00548983 1.09911001 -7.99241018
v 6.00000000 2.84287000 7.47566986
v 6.00000000 3.27565002 -7.30052996
v 6.00000000 4.68129015 6.48467016
v 6.00000000 5.05292988 -6.20382977
v 6.00000000 6.20063019 5.05167007
v 6.00000000 6.48579979 -4.68452978
v 6.00000000 7.29734993 3.27416992
v 6.00000000 7.47661018 -2.84612989
v 6.00000000 7.89669991 1.27366996
v 6.00000000 7.95783997 -0.81383002
v 1.34179997 8.49911022 2.95567012
v 1.65760005 8.28299046 3.51576996
v 3.60549998 8.49911022 2.95567012
v 3.60549998 8.49911022 2.95567012
v 1.65760005 8.28299046 3.51576996
v 1.89880002 8.00438023 4.11056995
v 3.60549998 8.49911022 2.95567012
v 1.89880002 8.00438023 4.11056995
v 2.00000000 7.64706993 4.74197006
v 3.60549998 7.44183016 5.05767012
v 3.60549998 8.49911022 2.95567012
v 2.00000000 7.64706993 4.74197006
v 2.00000000 7.64706993 4.74197006
v 2.00000000 6.26145983 6.46166992
v 3.60549998 7.44183016 5.05767012
v 3.60549998 5.87572002 6.81467009
v 3.60549998 7.44183016 5.05767012
v 2.00000000 6.26145983 6.46166992
v 2.00000000 6.26145983 6.46166992
v 2.00000000 4.49638987 7.79367018
v 3.60549998 5.87572002 6.81467009
v 3.60549998 3.90805006 8.10468006
v 3.60549998 5.87572002 6.81467009
v 2.00000000 4.49638987 7.79367018
v 2.00000000 4.49638987 7.79367018
v 2.00000000 2.45994997 8.65466976
v 3.60549998 3.90805006 8.10468006
v 3.60549998 1.67289996 8.84068012
v 3.60549998 3.90805006 8.10468006
v 2.00000000 2.45994997 8.65466976
v 2.00000000 2.45994997 8.65466976
v 2.00000000 0.27493000 8.99368000
v 3.60549998 1.67289996 8.84068012
v 3.60549998 -0.67658001 8.97266960
v 3.60549998 1.67289996 8.84068012
v 2.00000000 0.27493000 8.99368000
v 2.00000000 0.27493000 8.99368000
v 2.00000000 -1.92679000 8.78966999
v 3.60549998 -0.67658001 8.97266960
v 3.60549998 -2.97979999 8.49067020
v 3.60549998 -0.67658001 8.97266960
v 2.00000000 -1.92679000 8.78966999
v 2.00000000 -1.92679000 8.78966999
v 2.00000000 -4.01233006 8.05467033
v 3.60549998 -2.97979999 8.49067020
v 3.60549998 -5.07941008 7.42767000
v 3.60549998 -2.97979999 8.49067020
v 2.00000000 -4.01233006 8.05467033
v 2.00000000 -4.01233006 8.05467033
v 2.00000000 -5.85578012 6.83267021
v 3.60549998 -5.07941008 7.42767000
v 3.60549998 -6.83185005 5.85766983
v 3.60549998 -5.07941008 7.42767000
v 2.00000000 -5.85578012 6.83267021
v 2.00000000 -5.85578012 6.83267021
v 2.00000000 -7.34580994 5.19866991
v 3.60549998 -6.83185005 5.85766983
v 3.60549998 -8.11732006 3.88656998
v 3.60549998 -6.83185005 5.85766983
v 2.00000000 -7.34580994 5.19866991
v 2.00000000 -7.34580994 5.19866991
v 2.00000000 -8.39241982 3.25066996
v 3.60549998 -8.11732006 3.88656998
v 3.60549998 -8.84796047 1.64977002
v 3.60549998 -8.11732006 3.88656998
v 2.00000000 -8.39241982 3.25066996
v 2.00000000 -8.39241982 3.25066996
v 2.00000000 -8.93237019 1.10617006
v 3.60549998 -8.84796047 1.64977002
v 3.60549998 -8.84796047 1.64977002
v 2.00000000 -8.93237019 1.10617006
v 2.28110003 -8.99948025 -0.16173001
v 3.60549998 -8.97381020 -0.70003003
v 3.60549998 -8.84796047 1.64977002
v 2.28110003 -8.99948025 -0.16173001
v 2.28110003 -8.99948025 -0.16173001
v 2.95600009 -8.85632038 -1.60901999
v 3.60549998 -8.97381020 -0.70003003
v 3.60549998 -8.48626995 -3.00202990
v 3.60549998 -8.97381020 -0.70003003
v 2.95600009 -8.85632038 -1.60901999
v 2.95600009 -8.85632038 -1.60901999
v 2.28110003 -8.99948025 -0.16173001
v 2.34850001 -6.00088978 -0.30623001
v 5.12570000 -5.84849977 -6.28962994
v 4.91559982 -6.47570992 -5.81152010
v 4.52990007 -7.32036018 -4.98423004
v 5.12570000 -5.84849977 -6.28962994
v 4.52990007 -7.32036018 -4.98423004
v 4.08970022 -8.00020981 -4.04022980
v 5.12570000 -5.84849977 -6.28962994
v 4.08970022 -8.00020981 -4.04022980
v 3.60549998 -8.48626995 -3.00202990
v 5.12570000 -5.84849977 -6.28962994
v 3.60549998 -8.48626995 -3.00202990
v 2.95600009 -8.85632038 -1.60901999
v 5.12570000 -5.84849977 -6.28962994
v 2.00000000 -8.93237019 1.10617006
v 2.00000000 -6.00088978 1.26557004
v 2.34850001 -6.00088978 -0.30623001
v 2.28110003 -8.99948025 -0.16173001
v 2.00000000 -6.00088978 1.26557004
v 2.00000000 -5.86839008 2.08646989
v 1.68299997 -5.31788015 1.37066996
v 1.70710003 -4.79262018 2.39278007
v 1.00000000 -4.74552011 2.03817010
v 1.00000000 -5.00088978 1.37066996
v 1.70710003 -4.79262018 2.39278007
v 1.00000000 -5.00088978 1.37066996
v 1.68299997 -5.31788015 1.37066996
v 1.68299997 -5.31788015 1.37066996
v 2.00000000 -5.86839008 2.08646989
v 2.00000000 -5.48962021 2.70606995
v 1.70710003 -4.79262018 2.39278007
v 1.68299997 -5.31788015 1.37066996
v 2.00000000 -5.48962021 2.70606995
v 1.00000000 -3.75089002 2.33887005
v 1.00000000 -4.74552011 2.03817010
v 1.70710003 -4.79262018 2.39278007
v 2.00000000 -5.48962021 2.70606995
v 2.00000000 -4.91451979 3.14966989
v 1.70710003 -4.79262018 2.39278007
v 1.70710003 -4.79262018 2.39278007
v 2.00000000 -4.91451979 3.14966989
v 2.00000000 -4.21819019 3.35876989
v 1.70710003 -4.79262018 2.39278007
v 2.00000000 -4.21819019 3.35876989
v 2.00000000 -3.50089002 3.30716991
v 1.70710003 -4.79262018 2.39278007
v 2.00000000 -3.50089002 3.30716991
v 1.68299997 -3.67163992 2.64577007
v 1.70710003 -4.79262018 2.39278007
v 1.68299997 -3.67163992 2.64577007
v 1.00000000 -3.75089002 2.33887005
v 1.00000000 -5.00088978 1.10617006
v 1.68299997 -5.31788015 1.37066996
v 1.00000000 -5.00088978 1.37066996
v 1.68299997 -5.31788015 1.37066996
v 2.34850001 -6.00088978 -0.30623001
v 2.00000000 -6.00088978 1.26557004
v 3.60549998 -5.00088978 -7.48563004
v 4.76789999 -5.04421997 -7.17183018
v 1.37479997 -5.00088978 -0.58433002
v 1.81459999 -5.12653017 -0.37922999
v 1.37479997 -5.00088978 -0.58433002
v 4.76789999 -5.04421997 -7.17183018
v 4.76789999 -5.04421997 -7.17183018
v 4.94329977 -5.14914989 -6.99723005
v 1.81459999 -5.12653017 -0.37922999
v 2.10240006 -5.35301018 -0.34243000
v 1.81459999 -5.12653017 -0.37922999
v 4.94329977 -5.14914989 -6.99723005
v 4.94329977 -5.14914989 -6.99723005
v 5.12360001 -5.46302986 -6.62893009
v 2.10240006 -5.35301018 -0.34243000
v 2.10240006 -5.35301018 -0.34243000
v 5.12360001 -5.46302986 -6.62893009
v 5.12570000 -5.84849977 -6.28962994
v 2.34850001 -6.00088978 -0.30623001
v 2.10240006 -5.35301018 -0.34243000
v 5.12570000 -5.84849977 -6.28962994
v 2.00000000 5.04315996 4.35577011
v 1.50000000 5.06648016 3.20547009
v 2.00000000 4.38705015 3.74247003
v 1.70710003 5.92716980 4.02596998
v 1.00000000 5.57883978 3.51016998
v 1.00000000 5.17158985 3.12238002
v 1.70710003 5.92716980 4.02596998
v 1.00000000 5.17158985 3.12238002
v 1.50000000 5.06648016 3.20547009
v 1.70710003 5.92716980 4.02596998
v 1.50000000 5.06648016 3.20547009
v 2.00000000 5.04315996 4.35577011
v 1.00000000 6.07904005 3.76957011
v 1.00000000 5.57883978 3.51016998
v 1.70710003 5.92716980 4.02596998
v 2.00000000 5.04315996 4.35577011
v 2.00000000 5.85895014 4.74967003
v 1.70710003 5.92716980 4.02596998
v 1.70710003 5.92716980 4.02596998
v 2.00000000 5.85895014 4.74967003
v 2.00000000 6.75407982 4.88217020
v 1.70710003 7.14342022 4.13947010
v 1.70710003 5.92716980 4.02596998
v 2.00000000 6.75407982 4.88217020
v 1.70710003 7.14342022 4.13947010
v 1.00000000 6.63105011 3.87916994
v 1.00000000 6.07904005 3.76957011
v 1.70710003 5.92716980 4.02596998
v 1.70710003 7.14342022 4.13947010
v 1.00000000 6.07904005 3.76957011
v 1.00000000 7.19122982 3.83077002
v 1.00000000 6.63105011 3.87916994
v 1.70710003 7.14342022 4.13947010
v 2.00000000 6.75407982 4.88217020
v 2.00000000 7.64706993 4.74197006
v 1.70710003 7.14342022 4.13947010
v 1.70710003 7.14342022 4.13947010
v 2.00000000 7.64706993 4.74197006
v 1.89880002 8.00438023 4.11056995
v 1.65760005 8.28299046 3.51576996
v 1.70710003 7.14342022 4.13947010
v 1.89880002 8.00438023 4.11056995
v 1.65760005 8.28299046 3.51576996
v 1.00000000 7.71589994 3.62837005
v 1.00000000 7.19122982 3.83077002
v 1.70710003 7.14342022 4.13947010
v 1.65760005 8.28299046 3.51576996
v 1.00000000 7.19122982 3.83077002
v 1.00000000 8.16394043 3.28727007
v 1.00000000 7.71589994 3.62837005
v 1.65760005 8.28299046 3.51576996
v 1.65760005 8.28299046 3.51576996
v 1.34179997 8.49911022 2.95567012
v 1.00000000 8.16394043 3.28727007
v 1.00000000 8.49911022 2.83507991
v 1.00000000 8.16394043 3.28727007
v 1.34179997 8.49911022 2.95567012
v 1.00000000 -5.00088978 1.10617006
v 1.37479997 -5.00088978 -0.58433002
v 1.81459999 -5.12653017 -0.37922999
v 2.10240006 -5.35301018 -0.34243000
v 1.00000000 -5.00088978 1.10617006
v 1.81459999 -5.12653017 -0.37922999
v 2.10240006 -5.35301018 -0.34243000
v 1.68299997 -5.31788015 1.37066996
v 1.00000000 -5.00088978 1.10617006
v 2.10240006 -5.35301018 -0.34243000
v 2.34850001 -6.00088978 -0.30623001
v 1.68299997 -5.31788015 1.37066996
v 6.00000000 4.68129015 6.48467016
v 5.15080023 4.83179998 7.07667017
v 5.15080023 3.91347003 7.62267017
v 6.00000000 4.68129015 6.48467016
v 5.15080023 3.91347003 7.62267017
v 5.15080023 3.04600000 8.00967026
v 6.00000000 4.68129015 6.48467016
v 5.15080023 3.04600000 8.00967026
v 6.00000000 2.84287000 7.47566986
v 5.15080023 5.75662994 6.34767008
v 5.15080023 4.83179998 7.07667017
v 6.00000000 4.68129015 6.48467016
v 6.00000000 4.68129015 6.48467016
v 6.00000000 6.20063019 5.05167007
v 5.15080023 5.75662994 6.34767008
v 5.15080023 6.64504004 5.41066980
v 5.15080023 5.75662994 6.34767008
v 6.00000000 6.20063019 5.05167007
v 6.00000000 7.29734993 3.27416992
v 5.15080023 7.45115995 4.23276997
v 5.15080023 6.64504004 5.41066980
v 6.00000000 6.20063019 5.05167007
v 6.00000000 7.29734993 3.27416992
v 5.15080023 6.64504004 5.41066980
v 5.15080023 8.10373020 2.78777003
v 5.15080023 7.45115995 4.23276997
v 6.00000000 7.29734993 3.27416992
v 6.00000000 7.29734993 3.27416992
v 6.00000000 7.89669991 1.27366996
v 5.15080023 8.10373020 2.78777003
v 5.15080023 8.49911022 1.10196996
v 5.15080023 8.10373020 2.78777003
v 6.00000000 7.89669991 1.27366996
v 6.00000000 7.95783997 -0.81383002
v 5.25479984 8.49911022 -0.00233000
v 5.15080023 8.49911022 1.10196996
v 6.00000000 7.89669991 1.27366996
v 6.00000000 7.95783997 -0.81383002
v 5.15080023 8.49911022 1.10196996
v 5.15080023 8.49911022 -1.10662997
v 5.25479984 8.49911022 -0.00233000
v 6.00000000 7.95783997 -0.81383002
v 6.00000000 7.47661018 -2.84612989
v 5.15080023 8.02585983 -3.00913000
v 5.15080023 8.49911022 -1.10662997
v 6.00000000 7.95783997 -0.81383002
v 6.00000000 7.47661018 -2.84612989
v 5.15080023 8.49911022 -1.10662997
v 5.15080023 7.13270998 -4.75433016
v 5.15080023 8.02585983 -3.00913000
v 6.00000000 7.47661018 -2.84612989
v 6.00000000 7.47661018 -2.84612989
v 6.00000000 6.48579979 -4.68452978
v 5.15080023 7.13270998 -4.75433016
v 5.15080023 5.86657000 -6.25073004
v 5.15080023 7.13270998 -4.75433016
v 6.00000000 6.48579979 -4.68452978
v 6.00000000 6.48579979 -4.68452978
v 6.00000000 5.05292988 -6.20382977
v 5.15080023 5.86657000 -6.25073004
v 5.15080023 4.29268980 -7.42082977
v 5.15080023 5.86657000 -6.25073004
v 6.00000000 5.05292988 -6.20382977
v 6.00000000 5.05292988 -6.20382977
v 6.00000000 3.27565002 -7.30052996
v 5.15080023 4.29268980 -7.42082977
v 6.00548983 1.09911001 -7.99241018
v 5.15080023 2.04047990 -8.32713032
v 5.15080023 4.29268980 -7.42082977
v 6.00000000 3.27565002 -7.30052996
v 6.00548983 1.09911001 -7.99241018
v 5.15080023 4.29268980 -7.42082977
v 6.00000000 -0.81243002 -7.96103001
v 5.15080023 0.02667000 -8.57373047
v 5.15080023 2.04047990 -8.32713032
v 6.00000000 -0.81243002 -7.96103001
v 5.15080023 2.04047990 -8.32713032
v 6.00548983 1.09911001 -7.99241018
v 5.15080023 -1.14221001 -8.49742985
v 5.15080023 0.02667000 -8.57373047
v 6.00000000 -0.81243002 -7.96103001
v 6.00000000 -2.84466004 -7.47982979
v 5.15080023 -2.17530990 -8.29333019
v 5.15080023 -1.14221001 -8.49742985
v 6.00000000 -0.81243002 -7.96103001
v 6.00000000 -2.84466004 -7.47982979
v 5.15080023 -1.14221001 -8.49742985
v 5.15080023 -2.17530990 -8.29333019
v 6.00000000 -2.84466004 -7.47982979
v 5.15080023 -3.04778004 -8.01391983
v 6.00000000 -4.68308020 -6.48902988
v 5.15080023 -4.76167011 -7.13003016
v 5.15080023 -3.88058996 -7.64542007
v 6.00000000 -4.68308020 -6.48902988
v 5.15080023 -3.88058996 -7.64542007
v 5.15080023 -3.04778004 -8.01391983
v 6.00000000 -2.84466004 -7.47982979
v 6.00000000 -4.68308020 -6.48902988
v 5.15080023 -3.04778004 -8.01391983
v 5.12570000 -5.84849977 -6.28962994
v 5.15080023 -4.76167011 -7.13003016
v 6.00000000 -4.68308020 -6.48902988
v 6.00000000 -4.68308020 -6.48902988
v 6.00000000 -6.20241022 -5.05612993
v 5.12570000 -5.84849977 -6.28962994
v 5.15080023 -6.67611980 -5.37923002
v 5.12570000 -5.84849977 -6.28962994
v 6.00000000 -6.20241022 -5.05612993
v 6.00000000 -7.29912996 -3.27892995
v 5.15080023 -7.55419016 -4.05413008
v 5.15080023 -6.67611980 -5.37923002
v 6.00000000 -6.20241022 -5.05612993
v 6.00000000 -7.29912996 -3.27892995
v 5.15080023 -6.67611980 -5.37923002
v 5.15080023 -8.22951984 -2.40212989
v 5.15080023 -7.55419016 -4.05413008
v 6.00000000 -7.29912996 -3.27892995
v 6.00000000 -7.29912996 -3.27892995
v 6.00000000 -7.89847994 -1.27832997
v 5.15080023 -8.22951984 -2.40212989
v 5.15080023 -8.55832958 -0.49193001
v 5.15080023 -8.22951984 -2.40212989
v 6.00000000 -7.89847994 -1.27832997
v 6.00000000 -7.89847994 -1.27832997
v 6.00000000 -7.95962000 0.80917001
v 5.15080023 -8.55832958 -0.49193001
v 5.15080023 -8.43597031 1.52047002
v 5.15080023 -8.55832958 -0.49193001
v 6.00000000 -7.95962000 0.80917001
v 6.00000000 -7.95962000 0.80917001
v 6.00000000 -7.47839022 2.84148002
v 5.15080023 -8.43597031 1.52047002
v 5.15080023 -7.83186007 3.48267007
v 5.15080023 -8.43597031 1.52047002
v 6.00000000 -7.47839022 2.84148002
v 6.00000000 -7.47839022 2.84148002
v 6.00000000 -6.48757982 4.67987013
v 5.15080023 -7.83186007 3.48267007
v 5.15080023 -6.79325008 5.22566986
v 5.15080023 -7.83186007 3.48267007
v 6.00000000 -6.48757982 4.67987013
v 6.00000000 -5.05470991 6.19967985
v 5.15080023 -5.46640015 6.60066986
v 5.15080023 -6.79325008 5.22566986
v 6.00000000 -6.48757982 4.67987013
v 6.00000000 -5.05470991 6.19967985
v 5.15080023 -6.79325008 5.22566986
v 5.15080023 -4.02045012 7.56866980
v 5.15080023 -5.46640015 6.60066986
v 6.00000000 -5.05470991 6.19967985
v 6.00000000 -5.05470991 6.19967985
v 6.00000000 -3.27744007 7.29567003
v 5.15080023 -4.02045012 7.56866980
v 5.15080023 -2.57937002 8.17168045
v 5.15080023 -4.02045012 7.56866980
v 6.00000000 -3.27744007 7.29567003
v 6.00000000 -3.27744007 7.29567003
v 6.00000000 -1.27687001 7.89567995
v 5.15080023 -2.57937002 8.17168045
v 5.15080023 -1.22171998 8.48167038
v 5.15080023 -2.57937002 8.17168045
v 6.00000000 -1.27687001 7.89567995
v 6.00000000 0.81066000 7.95666981
v 5.15080023 0.03365000 8.56867027
v 5.15080023 -1.22171998 8.48167038
v 6.00000000 -1.27687001 7.89567995
v 6.00000000 0.81066000 7.95666981
v 5.15080023 -1.22171998 8.48167038
v 5.15080023 1.17758000 8.48766994
v 5.15080023 0.03365000 8.56867027
v 6.00000000 0.81066000 7.95666981
v 6.00000000 2.84287000 7.47566986
v 5.15080023 2.18955994 8.28468037
v 5.15080023 1.17758000 8.48766994
v 6.00000000 0.81066000 7.95666981
v 6.00000000 2.84287000 7.47566986
v 5.15080023 1.17758000 8.48766994
v 5.15080023 3.04600000 8.00967026
v 5.15080023 2.18955994 8.28468037
v 6.00000000 2.84287000 7.47566986
v 5.15080023 5.86657000 -6.25073004
v 5.15080023 4.29268980 -7.42082977
v 3.60549998 5.87471008 -6.81972980
v 3.60549998 5.87471008 -6.81972980
v 3.60549998 6.97110987 -5.69363022
v 5.15080023 5.86657000 -6.25073004
v 5.15080023 7.13270998 -4.75433016
v 5.15080023 5.86657000 -6.25073004
v 3.60549998 6.97110987 -5.69363022
v 3.60549998 6.97110987 -5.69363022
v 3.60549998 7.85489988 -4.39392996
v 5.15080023 7.13270998 -4.75433016
v 5.15080023 8.02585983 -3.00913000
v 5.15080023 7.13270998 -4.75433016
v 3.60549998 7.85489988 -4.39392996
v 3.60549998 7.85489988 -4.39392996
v 3.60549998 8.49911022 -2.96033001
v 5.15080023 8.02585983 -3.00913000
v 5.15080023 8.02585983 -3.00913000
v 3.60549998 8.49911022 -2.96033001
v 4.01370001 8.49911022 -2.87433004
v 5.15080023 8.02585983 -3.00913000
v 4.01370001 8.49911022 -2.87433004
v 4.40719986 8.49911022 -2.60963011
v 5.15080023 8.02585983 -3.00913000
v 4.40719986 8.49911022 -2.60963011
v 4.72949982 8.49911022 -2.20792007
v 5.15080023 8.02585983 -3.00913000
v 4.72949982 8.49911022 -2.20792007
v 4.97779989 8.49911022 -1.69951999
v 5.15080023 8.49911022 -1.10662997
v 5.15080023 8.02585983 -3.00913000
v 4.97779989 8.49911022 -1.69951999
v 4.76789999 -5.04421997 -7.17183018
v 3.60549998 -5.00088978 -7.48563004
v 5.15080023 -4.76167011 -7.13003016
v 4.94329977 -5.14914989 -6.99723005
v 4.76789999 -5.04421997 -7.17183018
v 5.15080023 -4.76167011 -7.13003016
v 5.12360001 -5.46302986 -6.62893009
v 4.94329977 -5.14914989 -6.99723005
v 5.15080023 -4.76167011 -7.13003016
v 5.15080023 -4.76167011 -7.13003016
v 5.12570000 -5.84849977 -6.28962994
v 5.12360001 -5.46302986 -6.62893009
v 3.60549998 -3.44496012 -8.31723022
v 5.15080023 -3.88058996 -7.64542007
v 5.15080023 -4.76167011 -7.13003016
v 3.60549998 -5.00088978 -7.48563004
v 3.60549998 -3.44496012 -8.31723022
v 5.15080023 -4.76167011 -7.13003016
v 5.15080023 -3.04778004 -8.01391983
v 5.15080023 -3.88058996 -7.64542007
v 3.60549998 -3.44496012 -8.31723022
v 3.60549998 -1.75664997 -8.82942963
v 5.15080023 -2.17530990 -8.29333019
v 5.15080023 -3.04778004 -8.01391983
v 3.60549998 -3.44496012 -8.31723022
v 3.60549998 -1.75664997 -8.82942963
v 5.15080023 -3.04778004 -8.01391983
v 5.15080023 -1.14221001 -8.49742985
v 5.15080023 -2.17530990 -8.29333019
v 3.60549998 -1.75664997 -8.82942963
v 3.60549998 -1.75664997 -8.82942963
v 3.60549998 -0.00089000 -9.00232983
v 5.15080023 -1.14221001 -8.49742985
v 4.36759996 8.49911022 2.64117002
v 4.00939989 8.49911022 2.87157011
v 5.15080023 8.10373020 2.78777003
v 4.63240004 8.49911022 2.34736991
v 4.36759996 8.49911022 2.64117002
v 5.15080023 8.10373020 2.78777003
v 4.82350016 8.49911022 2.03876996
v 4.63240004 8.49911022 2.34736991
v 5.15080023 8.10373020 2.78777003
v 4.96589994 8.49911022 1.72546995
v 4.82350016 8.49911022 2.03876996
v 5.15080023 8.10373020 2.78777003
v 5.07200003 8.49911022 1.41366994
v 4.96589994 8.49911022 1.72546995
v 5.15080023 8.10373020 2.78777003
v 5.15080023 8.10373020 2.78777003
v 5.15080023 8.49911022 1.10196996
v 5.07200003 8.49911022 1.41366994
v 4.00939989 8.49911022 2.87157011
v 3.60549998 8.49911022 2.95567012
v 5.15080023 8.10373020 2.78777003
v 5.15080023 7.45115995 4.23276997
v 5.15080023 8.10373020 2.78777003
v 3.60549998 8.49911022 2.95567012
v 3.60549998 8.49911022 2.95567012
v 3.60549998 7.44183016 5.05767012
v 5.15080023 7.45115995 4.23276997
v 5.15080023 6.64504004 5.41066980
v 5.15080023 7.45115995 4.23276997
v 3.60549998 7.44183016 5.05767012
v 3.60549998 5.87572002 6.81467009
v 5.15080023 5.75662994 6.34767008
v 5.15080023 6.64504004 5.41066980
v 3.60549998 7.44183016 5.05767012
v 3.60549998 5.87572002 6.81467009
v 5.15080023 6.64504004 5.41066980
v 5.15080023 4.83179998 7.07667017
v 5.15080023 5.75662994 6.34767008
v 3.60549998 5.87572002 6.81467009
v 3.60549998 3.90805006 8.10468006
v 5.15080023 3.91347003 7.62267017
v 5.15080023 4.83179998 7.07667017
v 3.60549998 5.87572002 6.81467009
v 3.60549998 3.90805006 8.10468006
v 5.15080023 4.83179998 7.07667017
v 5.15080023 3.04600000 8.00967026
v 5.15080023 3.91347003 7.62267017
v 3.60549998 3.90805006 8.10468006
v 3.60549998 1.67289996 8.84068012
v 5.15080023 2.18955994 8.28468037
v 5.15080023 3.04600000 8.00967026
v 3.60549998 3.90805006 8.10468006
v 5.15080023 1.17758000 8.48766994
v 5.15080023 2.18955994 8.28468037
v 3.60549998 1.67289996 8.84068012
v 3.60549998 -0.67658001 8.97266960
v 5.15080023 0.03365000 8.56867027
v 5.15080023 1.17758000 8.48766994
v 3.60549998 1.67289996 8.84068012
v 3.60549998 -0.67658001 8.97266960
v 5.15080023 1.17758000 8.48766994
v 5.15080023 -1.22171998 8.48167038
v 5.15080023 0.03365000 8.56867027
v 3.60549998 -0.67658001 8.97266960
v 3.60549998 -2.97979999 8.49067020
v 5.15080023 -2.57937002 8.17168045
v 5.15080023 -1.22171998 8.48167038
v 3.60549998 -0.67658001 8.97266960
v 3.60549998 -2.97979999 8.49067020
v 5.15080023 -1.22171998 8.48167038
v 5.15080023 -4.02045012 7.56866980
v 5.15080023 -2.57937002 8.17168045
v 3.60549998 -2.97979999 8.49067020
v 3.60549998 -2.97979999 8.49067020
v 3.60549998 -5.07941008 7.42767000
v 5.15080023 -4.02045012 7.56866980
v 5.15080023 -5.46640015 6.60066986
v 5.15080023 -4.02045012 7.56866980
v 3.60549998 -5.07941008 7.42767000
v 3.60549998 -5.07941008 7.42767000
v 3.60549998 -6.83185005 5.85766983
v 5.15080023 -5.46640015 6.60066986
v 5.15080023 -6.79325008 5.22566986
v 5.15080023 -5.46640015 6.60066986
v 3.60549998 -6.83185005 5.85766983
v 3.60549998 -6.83185005 5.85766983
v 3.60549998 -8.11732006 3.88656998
v 5.15080023 -6.79325008 5.22566986
v 5.15080023 -7.83186007 3.48267007
v 5.15080023 -6.79325008 5.22566986
v 3.60549998 -8.11732006 3.88656998
v 3.60549998 -8.11732006 3.88656998
v 3.60549998 -8.84796047 1.64977002
v 5.15080023 -7.83186007 3.48267007
v 5.15080023 -8.43597031 1.52047002
v 5.15080023 -7.83186007 3.48267007
v 3.60549998 -8.84796047 1.64977002
v 3.60549998 -8.97381020 -0.70003003
v 5.15080023 -8.55832958 -0.49193001
v 5.15080023 -8.43597031 1.52047002
v 3.60549998 -8.84796047 1.64977002
v 3.60549998 -8.97381020 -0.70003003
v 5.15080023 -8.43597031 1.52047002
v 5.15080023 -8.22951984 -2.40212989
v 5.15080023 -8.55832958 -0.49193001
v 3.60549998 -8.97381020 -0.70003003
v 3.60549998 -8.97381020 -0.70003003
v 3.60549998 -8.48626995 -3.00202990
v 5.15080023 -8.22951984 -2.40212989
v 5.15080023 -8.22951984 -2.40212989
v 3.60549998 -8.48626995 -3.00202990
v 4.08970022 -8.00020981 -4.04022980
v 5.15080023 -7.55419016 -4.05413008
v 5.15080023 -8.22951984 -2.40212989
v 4.08970022 -8.00020981 -4.04022980
v 4.08970022 -8.00020981 -4.04022980
v 4.52990007 -7.32036018 -4.98423004
v 5.15080023 -7.55419016 -4.05413008
v 5.15080023 -7.55419016 -4.05413008
v 4.52990007 -7.32036018 -4.98423004
v 4.91559982 -6.47570992 -5.81152010
v 5.15080023 -6.67611980 -5.37923002
v 5.15080023 -7.55419016 -4.05413008
v 4.91559982 -6.47570992 -5.81152010
v 5.15080023 -6.67611980 -5.37923002
v 4.91559982 -6.47570992 -5.81152010
v 5.12570000 -5.84849977 -6.28962994
v 3.60549998 -0.00089000 -9.00232983
v 5.15080023 2.04047990 -8.32713032
v 5.15080023 0.02667000 -8.57373047
v 3.60549998 -0.00089000 -9.00232983
v 3.60549998 2.09910989 -8.75393009
v 5.15080023 2.04047990 -8.32713032
v 3.60549998 -0.00089000 -9.00232983
v -3.60560012 2.09910989 -8.75393009
v 3.60549998 2.09910989 -8.75393009
v -3.60560012 -0.00089000 -9.00232983
v -3.60560012 -0.00089000 -9.00232983
v -5.15080023 2.04047990 -8.32713032
v -3.60560012 2.09910989 -8.75393009
v -3.60560012 -0.00089000 -9.00232983
v -5.15080023 0.02667000 -8.57373047
v -5.15080023 2.04047990 -8.32713032
v -3.60560012 4.59911013 -7.73792982
v -3.60560012 2.09910989 -8.75393009
v -5.15080023 4.29268980 -7.42082977
v -5.15080023 2.04047990 -8.32713032
v -3.60560012 4.59911013 -7.73792982
v 3.60549998 2.09910989 -8.75393009
v -3.60560012 2.09910989 -8.75393009
v 3.60549998 4.59911013 -7.73792982
v 3.60549998 4.59911013 -7.73792982
v 5.15080023 2.04047990 -8.32713032
v 3.60549998 2.09910989 -8.75393009
v 3.60549998 4.59911013 -7.73792982
v 5.15080023 4.29268980 -7.42082977
v 5.15080023 2.04047990 -8.32713032
v -6.00000000 2.00481009 -7.74682999
v -5.15080023 0.02667000 -8.57373047
v -6.00000000 -0.06795000 -8.00203037
v -5.15080023 2.04047990 -8.32713032
v -3.60560012 4.59911013 -7.73792982
v -5.15080023 5.86632013 -6.25091982
v -3.60560012 5.87471008 -6.81971979
v -3.60560012 4.59911013 -7.73792982
v -5.15080023 4.29268980 -7.42082977
v -5.15080023 5.86632013 -6.25091982
v -6.00000000 3.94089007 -6.96382999
v -5.15080023 4.29268980 -7.42082977
v -5.15080023 2.04047990 -8.32713032
v -6.00000000 -0.06795000 -8.00203037
v -5.15080023 0.02667000 -8.57373047
v -5.15080023 -1.16784000 -8.49392986
v -3.60560012 -1.75737000 -8.82921982
v -5.15080023 0.02667000 -8.57373047
v -3.60560012 -0.00089000 -9.00232983
v 3.60549998 -0.00089000 -9.00232983
v 5.15080023 0.02667000 -8.57373047
v 5.15080023 -1.14221001 -8.49742985
v 3.60549998 4.59911013 -7.73792982
v 3.60549998 5.87471008 -6.81972980
v 5.15080023 4.29268980 -7.42082977
v -2.00000000 -8.95759964 0.87927002
v -3.60560012 -8.99507999 0.32108000
v -2.18090010 -8.99973011 -0.14673001
v -3.60560012 -8.99507999 0.32108000
v -3.60560012 -8.79185963 -1.93071997
v -2.18090010 -8.99973011 -0.14673001
v 1.00000000 -5.00088978 1.37066996
v -1.00000000 -5.00088978 1.37066996
v -6.00000000 -7.74537992 -2.00802994
v -6.00000000 -8.00061035 0.06477000
v -6.00000000 -7.71066999 2.13297009
v -6.00000000 -6.89531994 4.05557013
v -6.00000000 -5.61011982 5.70168018
v -6.00000000 -3.94267011 6.95867014
v -6.00000000 -2.00658989 7.74168015
v -6.00000000 -6.96237993 -3.94412994
v -6.00000000 -4.05882978 -6.89672995
v -6.00000000 -5.70496988 -5.61152983
v 1.00000000 -3.75089002 2.33887005
v 1.00000000 5.17158985 3.12238002
v -1.00000000 5.17158985 3.12238002
v -1.00000000 -3.75089002 2.33887005
v -1.00000000 -3.75089002 2.33887005
v -1.00000000 5.17158985 3.12238002
v -1.68299997 -3.67163992 2.64586997
v -1.00000000 5.17158985 3.12238002
v -1.50000000 5.06648016 3.20547009
v -1.68299997 -3.67163992 2.64586997
v -1.99580002 1.04911005 2.95446992
v -1.99580002 1.04911005 2.95446992
v -1.68299997 -3.67163992 2.64586997
v -1.50000000 5.06648016 3.20547009
v -1.99580002 1.04911005 2.95446992
v -1.50000000 5.06648016 3.20547009
v -1.86600006 4.77931976 3.43247008
v 2.00000000 4.38705015 3.74247003
v 1.50000000 5.06648016 3.20547009
v 1.99160004 1.03584003 2.94626999
v 1.00000000 -3.75089002 2.33887005
v 1.50000000 5.06648016 3.20547009
v 1.00000000 5.17158985 3.12238002
v 1.00000000 -3.75089002 2.33887005
v 1.68299997 -3.67163992 2.64577007
v 1.50000000 5.06648016 3.20547009
v 1.99160004 1.03584003 2.94626999
v 1.50000000 5.06648016 3.20547009
v 1.68299997 -3.67163992 2.64577007
v 1.99160004 1.03584003 2.94626999
v 1.68299997 -3.67163992 2.64577007
v 2.00000000 -3.50089002 3.30716991
f 1 2 3
f 4 1 3
f 5 2 1
f 1 6 5
f 5 6 7
f 5 7 8
f 5 8 9
f 10 5 9
f 9 11 10
f 10 11 12
f 13 10 12
f 14 13 12
f 15 14 12
f 16 17 18
f 19 20 21
f 22 23 24
f 25 26 27
f 28 25 27
f 27 29 28
f 30 28 29
f 31 32 33
f 34 33 32
f 32 35 34
f 36 34 35
f 35 37 36
f 38 36 37
f 37 39 38
f 40 38 39
f 39 41 40
f 40 41 42
f 43 40 42
f 41 44 42
f 44 45 42
f 46 47 48
f 49 48 47
f 50 51 52
f 53 52 51
f 54 55 56
f 57 56 55
f 58 59 60
f 61 60 59
f 62 63 64
f 65 64 63
f 66 67 68
f 69 68 67
f 70 71 72
f 73 72 71
f 74 75 76
f 77 78 79
f 80 81 82
f 83 84 85
f 86 87 88
f 89 90 91
f 92 93 94
f 95 96 97
f 98 99 100
f 101 102 103
f 104 105 106
f 107 108 109
f 110 111 112
f 113 114 115
f 116 117 118
f 119 120 121
f 122 123 124
f 125 126 127
f 128 129 130
f 131 132 133
f 134 135 136
f 137 138 139
f 140 141 142
f 143 144 145
f 146 147 148
f 149 150 151
f 152 153 154
f 155 156 157
f 157 158 159
f 160 155 157
f 161 160 157
f 159 161 157
f 162 163 164
f 162 164 165
f 162 165 166
f 162 166 167
f 168 169 170
f 171 163 162
f 172 173 174
f 174 175 172
f 176 177 178
f 178 179 176
f 180 181 182
f 183 182 181
f 184 185 186
f 187 186 185
f 188 189 190
f 191 190 189
f 192 193 194
f 195 194 193
f 196 197 198
f 199 198 197
f 200 201 202
f 203 202 201
f 204 205 206
f 207 206 205
f 208 209 210
f 208 211 209
f 212 213 214
f 215 216 217
f 218 219 220
f 221 222 223
f 224 225 226
f 227 228 229
f 230 231 232
f 233 234 235
f 236 237 238
f 239 240 241
f 242 243 244
f 245 246 247
f 248 249 250
f 251 252 253
f 254 255 256
f 257 258 259
f 260 261 262
f 263 264 265
f 266 267 268
f 269 270 271
f 272 273 274
f 275 276 277
f 278 279 280
f 281 282 283
f 284 285 286
f 287 288 289
f 290 291 292
f 293 294 295
f 296 297 298
f 299 300 301
f 302 303 304
f 305 306 307
f 308 309 310
f 311 312 313
f 314 315 316
f 317 318 319
f 320 321 322
f 323 324 325
f 326 327 328
f 329 330 331
f 332 333 334
f 335 336 337
f 338 337 336
f 339 340 341
f 342 343 339
f 341 342 339
f 344 343 342
f 345 346 344
f 342 345 344
f 347 346 345
f 345 348 347
f 349 347 348
f 348 350 349
f 351 349 350
f 350 352 351
f 353 351 352
f 354 355 356
f 357 358 354
f 357 354 356
f 356 355 359
f 356 359 353
f 356 353 352
f 352 357 356
f 360 358 357
f 361 362 360
f 357 361 360
f 363 362 361
f 361 364 363
f 365 363 364
f 364 366 365
f 365 366 367
f 368 365 367
f 367 369 368
f 370 368 369
f 369 371 370
f 372 373 374
f 375 376 377
f 378 379 380
f 381 382 383
f 384 385 386
f 387 388 389
f 390 391 392
f 393 394 395
f 396 397 398
f 399 400 401
f 402 403 404
f 405 406 407
f 408 409 410
f 411 412 413
f 414 415 416
f 417 418 419
f 420 421 422
f 423 424 425
f 426 427 428
f 429 430 431
f 432 433 434
f 435 436 437
f 438 439 440
f 441 442 443
f 444 445 446
f 447 448 449
f 450 451 452
f 453 454 455
f 456 457 458
f 459 460 461
f 462 463 464
f 465 466 467
f 468 469 470
f 471 472 473
f 474 475 476
f 477 478 479
f 480 481 482
f 483 484 485
f 486 487 488
f 489 490 491
f 492 493 494
f 495 496 497
f 498 499 500
f 501 502 503
f 504 505 506
f 507 508 509
f 510 511 512
f 513 514 515
f 516 517 518
f 519 520 521
f 522 523 524
f 525 526 527
f 528 529 530
f 531 532 533
f 534 535 536
f 537 538 539
f 540 541 542
f 543 544 545
f 546 547 548
f 549 550 551
f 552 553 554
f 555 556 557
f 558 559 560
f 561 562 563
f 564 565 566
f 567 568 569
f 570 571 572
f 573 574 575
f 576 577 578
f 579 580 581
f 582 583 584
f 585 586 587
f 588 589 590
f 591 592 593
f 594 595 596
f 597 598 599
f 600 601 602
f 603 604 605
f 606 607 608
f 609 610 611
f 612 613 614
f 615 616 617
f 618 619 620
f 621 622 623
f 624 625 626
f 627 628 629
f 630 631 632
f 633 634 635
f 636 637 638
f 639 640 641
f 642 643 644
f 645 646 647
f 648 649 650
f 651 652 653
f 654 655 656
f 657 658 659
f 660 661 662
f 663 664 665
f 666 667 668
f 669 670 671
f 672 673 674
f 675 676 677
f 678 679 680
f 681 682 683
f 684 685 686
f 687 688 689
f 690 691 692
f 693 694 695
f 696 697 698
f 699 700 701
f 702 703 704
f 705 706 707
f 708 709 710
f 711 712 713
f 714 715 716
f 716 717 714
f 714 717 718
f 719 714 718
f 718 720 719
f 721 719 720
f 720 722 721
f 723 721 722
f 724 723 722
f 722 725 724
f 726 724 725
f 725 727 726
f 726 727 728
f 726 728 729
f 730 726 729
f 729 731 730
f 730 731 732
f 733 730 732
f 734 735 733
f 732 734 733
f 736 737 738
f 738 739 736
f 740 736 739
f 739 741 740
f 742 740 741
f 741 743 742
f 744 742 743
f 743 745 744
f 744 745 746
f 747 744 746
f 745 748 746
f 749 747 746
f 748 750 746
f 751 749 746
f 752 751 746
f 750 752 746
f 753 751 752
f 752 754 753
f 755 753 754
f 754 756 755
f 757 755 756
f 756 758 757
f 759 757 758
f 758 760 759
f 761 762 763
f 764 765 766
f 767 768 769
f 770 771 772
f 773 774 775
f 776 777 778
f 779 780 781
f 782 783 784
f 785 786 787
f 788 789 790
f 791 792 793
f 794 795 796
f 797 798 799
f 800 801 802
f 803 804 805
f 806 807 808
f 809 810 811
f 812 813 814
f 815 816 817
f 818 819 820
f 821 822 823
f 824 825 826
f 827 828 829
f 830 831 832
f 833 834 835
f 836 837 838
f 839 840 841
f 842 843 844
f 845 846 847
f 848 849 850
f 851 852 853
f 854 855 856
f 844 857 842
f 858 859 860
f 861 858 860
f 862 863 864
f 865 866 867
f 868 869 870
f 871 872 873
f 874 875 876
f 877 878 879
f 880 881 882
f 883 884 885
f 886 887 888
f 889 890 891
f 892 893 894
f 895 896 897
f 898 899 900
f 901 902 903
f 904 905 906
f 907 908 909
f 910 911 912
f 913 914 915
f 916 917 918
f 919 920 921
f 922 923 924
f 925 926 927
f 928 929 930
f 931 932 933
f 934 935 936
f 937 938 939
f 940 941 942
f 943 944 945
f 946 947 948
f 949 950 951
f 952 953 954
f 955 956 957
f 958 959 960
f 961 962 963
f 964 965 966
f 967 968 969
f 970 971 972
f 973 974 975
f 976 977 978
f 979 980 981
f 982 983 984
f 985 986 987
f 988 989 990
f 991 992 993
f 994 995 996
f 997 998 999
f 1000 1001 1002
f 1003 1004 1005
f 1006 1007 1008
f 1009 1010 1011
f 1012 1013 1014
f 1015 1016 1017
f 1018 1019 1020
f 1021 1022 1023
f 1024 1025 1026
f 1027 1028 1029
f 1030 1031 1032
f 1033 1034 1035
f 1036 1037 1038
f 1039 1040 1041
f 1042 1043 1044
f 1045 1046 1047
f 1048 1049 1050
f 1051 1052 1053
f 1054 1055 1056
f 1057 1058 1059
f 1060 1061 1062
f 1063 1064 1065
f 1066 1067 1068
f 1069 1070 1071
f 1072 1073 1074
f 1075 1076 1077
f 1078 1079 1080
f 1081 1082 1083
f 1084 1085 1086
f 1087 1088 1089
f 1090 1091 1092
f 1093 1094 1095
f 1096 1097 1098
f 1099 1100 1101
f 1102 1103 1104
f 1105 1106 1107
f 1108 1109 1110
f 1111 1112 1113
f 1114 1115 1116
f 1117 1118 1119
f 1120 1121 1122
f 1123 1124 1125
f 1126 1127 1128
f 1129 1130 1131
f 1132 1133 1134
f 1135 1136 1137
f 1138 1139 1140
f 1141 1142 1143
f 1144 1145 1146
f 1147 1148 1149
f 1150 1151 1152
f 1153 1154 1155
f 1156 1157 1158
f 1159 1160 1161
f 1162 1163 1164
f 1165 1166 1167
f 1168 1169 1170
f 1171 1172 1173
f 1174 1175 1176
f 1177 1178 1179
f 1180 1181 1182
f 1183 1184 1185
f 1186 1187 1188
f 1189 1190 1191
f 1192 1193 1194
f 1195 1196 1197
f 1198 1199 1200
f 1201 1202 1203
f 1204 1205 1206
f 1207 1208 1209
f 1210 1211 1212
f 1213 1214 1215
f 1216 1217 1218
f 1219 1220 1221
f 1222 1223 1224
f 1225 1226 1227
f 1228 1229 1230
f 1231 1232 1233
f 1234 1235 1236
f 1237 1238 1239
f 1240 1241 1242
f 1243 1244 1245
f 1246 1247 1248
f 1249 1250 1251
f 1252 1253 1254
f 1255 1256 1257
f 1258 1259 1260
f 1261 1262 1263
f 1264 1265 1266
f 1267 1268 1269
f 1270 1271 1272
f 1273 1274 1275
f 1276 1277 1278
f 1279 1280 1281
f 1282 1283 1284
f 1285 1286 1287
f 1288 1285 1287
f 1289 1290 1291
f 1292 1293 1294
f 1295 1296 1297
f 1298 1299 1300
f 1301 1302 1303
f 1304 1305 1306
f 1307 1308 1309
f 1310 1311 1312
f 1313 1314 1315
f 1316 1317 1318
f 1319 1320 1321
f 1322 1323 1324
f 1325 1326 1327
f 1328 1329 1330
f 1331 1332 1333
f 1334 1335 1336
f 1337 1338 1339
f 1340 1341 1342
f 1343 1344 1345
f 1346 1347 1348
f 1349 1350 1351
f 1352 1353 1354
f 1355 1356 1357
f 1358 1359 1360
f 1361 1362 1363
f 1364 1365 1366
f 1367 1368 1369
f 1370 1371 1372
f 1373 1371 1370
f 1374 1375 1376
f 1377 1378 1379
f 1380 1381 1382
f 1381 1383 1382
f 1384 1385 1386
f 1384 1387 1385
f 1388 1389 1390
f 1391 1392 1393
f 1394 1395 1396
f 1394 1397 1395
f 1398 1399 1400
f 1401 1402 1403
f 1404 1405 1406
f 1407 1408 1409
f 1410 1411 1412
f 1413 1414 1415
f 1416 1417 1418
f 1419 1420 1421
f 1422 1423 1424
f 157 156 1425
f 157 1426 158
f 157 1425 1426
f 42 1427 1428
f 42 1428 1429
f 42 1429 1430
f 42 1430 1431
f 42 1431 1432
f 42 1432 1433
f 43 42 1433
f 42 1434 1427
f 42 1435 1436
f 42 1436 1434
f 45 1435 42
f 1437 1438 1439
f 1440 1437 1439
f 1441 1442 1443
f 1444 1445 1446
f 266 268 1447
f 1448 1449 1450
f 1451 1452 1453
f 1454 1455 1456
f 1457 1458 1459
f 1460 1461 1462
f 1463 1464 1465
f 1466 1467 1468

