# https://github.com/mikedh/trimesh
mtllib material.mtl

o middle_001
usemtl material_0
v -5.15497017 -5.65163994 5.67690987
v -6.98592997 -7.50773001 8.86246962
v -8.01397038 -5.97789001 7.98239989
v -8.50016975 0.02188000 5.46990008
v -8.48097038 -4.31841993 6.98789019
v -8.50016975 -3.88961005 12.77789969
v -8.50016975 0.02188000 5.46990008
v -8.50016975 -3.88961005 12.77789969
v -8.48937035 -3.70555997 18.59789080
v -8.50016975 0.02188000 20.53790087
v -8.22566986 3.73769999 21.84350008
v -8.50016975 0.02188000 5.46990008
v -8.50016975 0.02188000 20.53790087
v -3.50016999 7.97965002 1.21890003
v -3.50016999 7.04979992 24.44688982
v 3.49295998 7.97965002 1.21890003
v 3.49983001 7.04979992 24.44688982
v -4.29806995 7.00276995 24.01889986
v -3.50016999 7.04979992 24.44688982
v -3.50016999 7.97965002 1.21890003
v -4.29806995 7.00276995 24.01889986
v -3.50016999 7.97965002 1.21890003
v -4.75756979 7.78174019 2.14589996
v -4.75756979 7.78174019 2.14589996
v -6.73177004 6.68550014 2.87239999
v -4.29806995 7.00276995 24.01889986
v -6.31127024 6.25101995 22.77390093
v -4.29806995 7.00276995 24.01889986
v -6.73177004 6.68550014 2.87239999
v -6.73177004 6.68550014 2.87239999
v -7.75257015 5.53448009 3.44447989
v -6.31127024 6.25101995 22.77390093
v -7.62757015 4.93940020 22.20465082
v -6.31127024 6.25101995 22.77390093
v -7.75257015 5.53448009 3.44447989
v -8.22566986 3.73769999 21.84350008
v -7.62757015 4.93940020 22.20465082
v -7.75257015 5.53448009 3.44447989
v -7.75257015 5.53448009 3.44447989
v -8.42967033 3.69428992 4.18791003
v -8.22566986 3.73769999 21.84350008
v -8.42967033 3.69428992 4.18791003
v -8.50016975 0.02188000 5.46990008
v -8.22566986 3.73769999 21.84350008
v -3.43168998 -8.64404964 15.62890047
v -3.50016999 -8.93332005 12.68889994
v 3.42447996 -8.64404964 15.62890047
v 3.49295998 -8.93332005 12.68889994
v -3.50016999 -8.93332005 12.68889994
v -3.50016999 -8.97607040 9.81389994
v 3.49295998 -8.93332005 12.68889994
v 3.49295998 -8.97607040 9.81389994
v -6.41337013 -7.45056009 17.15489954
v -4.73276997 -7.88682985 17.09690089
v -7.46427011 -4.93237019 19.65937990
v -4.00017023 -5.21444988 19.76889986
v -7.46427011 -4.93237019 19.65937990
v -4.73276997 -7.88682985 17.09690089
v -4.73276997 -7.88682985 17.09690089
v -3.43168998 -8.64404964 15.62890047
v -4.00017023 -5.21444988 19.76889986
v -4.00017023 -5.21444988 19.76889986
v -3.43168998 -8.64404964 15.62890047
v 3.42447996 -8.64404964 15.62890047
v 3.99983001 -5.21444988 19.76889986
v -6.98592997 -7.50773001 8.86246962
v -5.15497017 -5.65163994 5.67690987
v -3.50016999 -8.70538998 8.82590956
v -5.15497017 -5.65163994 5.67690987
v -4.00017023 -5.82319021 5.84889979
v -3.50016999 -8.70538998 8.82590956
v 3.99983001 -5.82319021 5.84889979
v 3.49295998 -8.70538998 8.82590956
v -8.50016975 -3.88961005 12.77789969
v -8.48097038 -4.31841993 6.98789019
v -8.01397038 -5.97789001 7.98239989
v -8.11956978 -5.83721018 12.86190028
v -8.50016975 -3.88961005 12.77789969
v -8.01397038 -5.97789001 7.98239989
v -8.11956978 -5.83721018 12.86190028
v -8.01397038 -5.97789001 7.98239989
v -6.98592997 -7.50773001 8.86246962
v -7.03566980 -7.45781994 12.93089957
v -5.41356993 -8.54067993 12.82834048
v -5.52640009 -8.05887032 15.99106020
v -7.07657003 -7.15261984 16.53590006
v -7.03566980 -7.45781994 12.93089957
v -5.41356993 -8.54067993 12.82834048
v -7.07657003 -7.15261984 16.53590006
v -7.03566980 -7.45781994 12.93089957
v -6.98592997 -7.50773001 8.86246962
v -5.66906977 -8.47778034 9.50590033
v -5.41356993 -8.54067993 12.82834048
v -7.03566980 -7.45781994 12.93089957
v -5.66906977 -8.47778034 9.50590033
v -5.66906977 -8.47778034 9.50590033
v -3.50016999 -8.97607040 9.81389994
v -5.41356993 -8.54067993 12.82834048
v -3.43168998 -8.64404964 15.62890047
v -5.52640009 -8.05887032 15.99106020
v -5.41356993 -8.54067993 12.82834048
v -5.41356993 -8.54067993 12.82834048
v -3.50016999 -8.93332005 12.68889994
v -3.43168998 -8.64404964 15.62890047
v -5.41356993 -8.54067993 12.82834048
v -3.50016999 -8.97607040 9.81389994
v -3.50016999 -8.93332005 12.68889994
v 4.48795986 -5.61709976 20.77289957
v -4.49517012 -5.61709976 20.77289957
v -4.00017023 -5.21444988 19.76889986
v -4.49517012 -5.61709976 20.77289957
v 4.75036001 -6.43800020 22.17989916
v -4.75756979 -6.43800020 22.17989916
v 4.75036001 -6.43800020 22.17989916
v 4.75722980 -6.97320986 25.88191027
v -4.75756979 -6.43800020 22.17989916
v -4.75756979 -6.97320986 25.88191027
v 4.75722980 -6.97320986 25.88191027
v 4.75722980 -6.48964977 27.70590014
v -4.75756979 -6.97320986 25.88191027
v -4.75756979 -6.48964977 27.70590014
v 4.75722980 -6.48964977 27.70590014
v 4.75722980 -4.19092989 30.65690035
v -4.75756979 -6.48964977 27.70590014
v -4.75756979 -4.19092989 30.65690035
v 4.75722980 -4.19092989 30.65690035
v 4.75722980 -2.54057002 31.57188982
v -4.75756979 -4.19092989 30.65690035
v -4.75756979 -2.54057002 31.57188982
v 4.75722980 -2.54057002 31.57188982
v 4.75722980 1.17980003 31.95790095
v -4.75756979 -2.54057002 31.57188982
v -4.75756979 1.17980003 31.95790095
v 4.75722980 1.17980003 31.95790095
v 4.75722980 2.98301005 31.40189928
v -4.75756979 1.17980003 31.95790095
v -4.75756979 2.98301005 31.40189928
v 4.75722980 2.98301005 31.40189928
v 4.75722980 4.57411003 30.38689989
v -4.75756979 2.98301005 31.40189928
v -4.75756979 4.57411003 30.38689989
v 4.75722980 4.57411003 30.38689989
v 4.75722980 6.68716002 27.30089945
v -4.75756979 4.57411003 30.38689989
v -4.75756979 6.68716002 27.30089945
v 4.75722980 6.68716002 27.30089945
v 4.75722980 7.05771017 25.45091051
v -4.75756979 6.68716002 27.30089945
v -4.75756979 7.05771017 25.45091051
v 3.49983001 7.04979992 24.44688982
v -4.75756979 7.05771017 25.45091051
v 4.75722980 7.05771017 25.45091051
v -3.50016999 7.04979992 24.44688982
v -4.75756979 7.05771017 25.45091051
v -3.50016999 7.04979992 24.44688982
v -4.29806995 7.00276995 24.01889986
v -7.46427011 -4.93237019 19.65937990
v -4.49517012 -5.61709976 20.77289957
v -4.75756979 -6.43800020 22.17989916
v -5.90557003 -6.46749020 22.90089983
v -7.46427011 -4.93237019 19.65937990
v -4.75756979 -6.43800020 22.17989916
v -5.90557003 -6.46749020 22.90089983
v -4.75756979 -6.43800020 22.17989916
v -4.75756979 -6.97320986 25.88191027
v -5.90557003 -6.71430016 26.07990069
v -5.90557003 -6.46749020 22.90089983
v -4.75756979 -6.97320986 25.88191027
v -4.75756979 -6.97320986 25.88191027
v -4.75756979 -6.48964977 27.70590014
v -5.90557003 -6.71430016 26.07990069
v -5.87887001 -4.67070007 29.33168978
v -5.90557003 -6.71430016 26.07990069
v -4.75756979 -6.48964977 27.70590014
v -5.87887001 -4.67070007 29.33168978
v -4.75756979 -6.48964977 27.70590014
v -4.75756979 -4.19092989 30.65690035
v -5.90557003 -3.05929995 31.08990092
v -5.87887001 -4.67070007 29.33168978
v -4.75756979 -4.19092989 30.65690035
v -4.75756979 -4.19092989 30.65690035
v -4.75756979 -2.54057002 31.57188982
v -5.90557003 -3.05929995 31.08990092
v -5.90557003 0.04375000 31.82591051
v -5.90557003 -3.05929995 31.08990092
v -4.75756979 -2.54057002 31.57188982
v -4.75756979 -2.54057002 31.57188982
v -4.75756979 1.17980003 31.95790095
v -5.90557003 0.04375000 31.82591051
v -5.90557003 0.04375000 31.82591051
v -4.75756979 1.17980003 31.95790095
v -4.75756979 2.98301005 31.40189928
v -5.90557003 3.14201999 31.06989092
v -5.90557003 0.04375000 31.82591051
v -4.75756979 2.98301005 31.40189928
v -4.75756979 2.98301005 31.40189928
v -4.75756979 4.57411003 30.38689989
v -5.90557003 3.14201999 31.06989092
v -5.90557003 5.55840015 28.98889918
v -5.90557003 3.14201999 31.06989092
v -4.75756979 4.57411003 30.38689989
v -4.75756979 4.57411003 30.38689989
v -4.75756979 6.68716002 27.30089945
v -5.90557003 5.55840015 28.98889918
v -5.90557003 6.76483011 26.03690905
v -5.90557003 5.55840015 28.98889918
v -4.75756979 6.68716002 27.30089945
v -4.75756979 6.68716002 27.30089945
v -4.75756979 7.05771017 25.45091051
v -5.90557003 6.76483011 26.03690905
v -5.90557003 6.76483011 26.03690905
v -4.75756979 7.05771017 25.45091051
v -4.29806995 7.00276995 24.01889986
v -5.90557003 6.76483011 26.03690905
v -4.29806995 7.00276995 24.01889986
v -6.31127024 6.25101995 22.77390093
v -8.77363968 -3.34910989 22.56884951
v -8.45003033 -3.33962989 20.40932078
v -7.46427011 -4.93237019 19.65937990
v -5.90557003 -3.05929995 31.08990092
v -5.90557003 0.04375000 31.82591051
v -8.12147045 0.02188000 29.93289942
v -5.90557003 0.04375000 31.82591051
v -5.90557003 3.14201999 31.06989092
v -8.12147045 0.02188000 29.93289942
v -5.90557003 5.55840015 28.98889918
v -5.90557003 6.76483011 26.03690905
v -8.12147045 4.95032978 25.05089945
v -5.90557003 6.76483011 26.03690905
v -6.31127024 6.25101995 22.77390093
v -8.12147045 4.95032978 25.05089945
v -7.62757015 4.93940020 22.20465082
v -8.12147045 4.95032978 25.05089945
v -6.31127024 6.25101995 22.77390093
v -8.99995995 3.87811995 25.23034090
v -8.99995995 3.11434007 27.46990008
v -8.12147045 4.95032978 25.05089945
v -8.22566986 3.73769999 21.84350008
v -8.99995995 3.87811995 25.23034090
v -8.12147045 4.95032978 25.05089945
v -8.12147045 4.95032978 25.05089945
v -7.62757015 4.93940020 22.20465082
v -8.22566986 3.73769999 21.84350008
v -8.22566986 3.73769999 21.84350008
v -8.50016975 0.02188000 20.53790087
v -9.00018978 0.02642000 23.15290064
v -8.22566986 3.73769999 21.84350008
v -9.00018978 0.02642000 23.15290064
v -8.99995995 3.87811995 25.23034090
v -8.99995995 -2.60559011 27.58102984
v -9.00000000 0.02188000 28.72614092
v -9.00018978 0.02642000 23.15290064
v -8.99995995 -3.58678007 25.82200999
v -8.77363968 -3.34910989 22.56884951
v -8.50016975 0.02188000 20.53790087
v -8.45003033 -3.33962989 20.40932078
v -8.50016975 0.02188000 20.53790087
v -8.77363968 -3.34910989 22.56884951
v -9.00018978 0.02642000 23.15290064
v -8.99995995 -3.58678007 25.82200999
v -9.00018978 0.02642000 23.15290064
v -8.77363968 -3.34910989 22.56884951
v -4.75756979 -7.78383017 1.97190005
v -4.75756979 -7.07768011 3.79890007
v -6.87887001 -6.81238985 2.17691011
v -6.87887001 -5.85402012 -4.57388979
v -4.75756979 -5.98512983 -5.35509020
v -4.75756979 -7.79600000 -1.91511005
v -6.87887001 -6.53823996 -2.89310008
v -6.87887001 -5.85402012 -4.57388979
v -4.75756979 -7.79600000 -1.91511005
v -6.87887001 -5.85402012 -4.57388979
v -6.40557003 -4.61815023 -6.29309993
v -4.75756979 -5.98512983 -5.35509020
v -4.75756979 -4.51347017 -6.64710003
v -4.75756979 -5.98512983 -5.35509020
v -6.40557003 -4.61815023 -6.29309993
v -4.75756979 2.98490000 -7.48110014
v -4.75756979 1.09010005 -7.97510009
v -5.90557003 1.77076006 -7.62009006
v -5.90557003 4.79135990 -6.19509988
v -4.75756979 4.70447016 -6.54409986
v -4.75756979 2.98490000 -7.48110014
v -5.90557003 1.77076006 -7.62009006
v -5.90557003 4.79135990 -6.19509988
v -4.75756979 2.98490000 -7.48110014
v -5.90557003 4.79135990 -6.19509988
v -5.90557003 1.77076006 -7.62009006
v -6.87887001 3.66948009 -6.17009979
v -6.87887001 3.66948009 -6.17009979
v -5.90557003 6.94247007 -3.64109998
v -5.90557003 4.79135990 -6.19509988
v -4.75756979 6.14692020 -5.22009998
v -4.75756979 4.70447016 -6.54409986
v -5.90557003 4.79135990 -6.19509988
v -5.90557003 4.79135990 -6.19509988
v -5.90557003 6.94247007 -3.64109998
v -4.75756979 6.14692020 -5.22009998
v -4.75756979 7.22694016 -3.58609992
v -4.75756979 6.14692020 -5.22009998
v -5.90557003 6.94247007 -3.64109998
v -5.90557003 7.63414001 -0.42208999
v -5.90557003 6.94247007 -3.64109998
v -8.12147045 6.00887012 0.10433000
v -3.50016999 7.97965002 1.21890003
v -4.75756979 7.88062000 -1.74009996
v -5.90557003 7.63414001 -0.42208999
v 3.49295998 -8.70538998 8.82590956
v 3.49295998 -8.97607040 9.81389994
v -3.50016999 -8.70538998 8.82590956
v -4.75756979 -7.07768011 3.79890007
v 3.99983001 -5.82319021 5.84889979
v -4.00017023 -5.82319021 5.84889979
v 4.75722980 -7.07768011 3.79890007
v -4.75756979 -7.07768011 3.79890007
v -4.75756979 -7.78383017 1.97190005
v 4.75722980 -7.07768011 3.79890007
v 4.75722980 -7.78383017 1.97190005
v -4.75756979 -7.78383017 1.97190005
v -4.75756979 -8.02807999 0.02889000
v 4.75722980 -7.78383017 1.97190005
v 4.75722980 -8.02807999 0.02889000
v -4.75756979 -8.02807999 0.02889000
v -4.75756979 -7.79600000 -1.91511005
v 4.75722980 -8.02807999 0.02889000
v 4.75722980 -7.79600000 -1.91511005
v -4.75756979 -7.79600000 -1.91511005
v -4.75756979 -5.98512983 -5.35509020
v 4.75722980 -7.79600000 -1.91511005
v 4.75722980 -5.98512983 -5.35509020
v -4.75756979 -5.98512983 -5.35509020
v -4.75756979 -4.51347017 -6.64710003
v 4.75722980 -5.98512983 -5.35509020
v 4.75722980 -4.51347017 -6.64710003
v -4.75756979 -4.51347017 -6.64710003
v -4.75756979 -2.77351999 -7.54509979
v 4.75722980 -4.51347017 -6.64710003
v 4.75722980 -2.77351999 -7.54509979
v -4.75756979 -2.77351999 -7.54509979
v -4.75756979 1.09010005 -7.97510009
v 4.75722980 -2.77351999 -7.54509979
v 4.75722980 1.09010005 -7.97510009
v -4.75756979 1.09010005 -7.97510009
v -4.75756979 2.98490000 -7.48110014
v 4.75722980 1.09010005 -7.97510009
v 4.75722980 2.98490000 -7.48110014
v -4.75756979 2.98490000 -7.48110014
v -4.75756979 4.70447016 -6.54409986
v 4.75722980 2.98490000 -7.48110014
v 4.75722980 4.70447016 -6.54409986
v -4.75756979 4.70447016 -6.54409986
v -4.75756979 6.14692020 -5.22009998
v 4.75722980 4.70447016 -6.54409986
v 4.75722980 6.14692020 -5.22009998
v -4.75756979 6.14692020 -5.22009998
v -4.75756979 7.22694016 -3.58609992
v 4.75722980 6.14692020 -5.22009998
v 4.75722980 7.22694016 -3.58609992
v -4.75756979 7.22694016 -3.58609992
v -4.75756979 7.88062000 -1.74009996
v 4.75722980 7.22694016 -3.58609992
v 4.75722980 7.88062000 -1.74009996
v -4.75756979 7.88062000 -1.74009996
v -3.50016999 7.97965002 1.21890003
v 4.75722980 7.88062000 -1.74009996
v 3.49295998 7.97965002 1.21890003
v -5.66906977 -8.47778034 9.50590033
v -7.87887001 -5.40785980 2.46300000
v -8.50000000 -3.55834007 4.34190983
v -9.00000000 -3.59912992 -1.17310005
v -9.00000000 -2.21602988 -3.07609993
v -9.00000000 -3.59912992 -1.17310005
v -9.00000000 0.02188000 4.39290995
v -9.00000000 0.02188000 -4.58010011
v -3.50016999 -8.97607040 9.81389994
v -9.00000000 2.25978994 -3.07609993
v -8.12147045 1.63616002 -5.70109993
v -9.00000000 0.02188000 -4.58010011
v -8.12147045 6.00887012 0.10433000
v -8.42967033 3.69428992 4.18791003
v -7.75257015 5.53448009 3.44447989
v -8.12147045 6.00887012 0.10433000
v -9.00000000 3.74480009 -1.09910005
v -8.42967033 3.69428992 4.18791003
v -8.42967033 3.69428992 4.18791003
v -9.00000000 0.02188000 4.39290995
v -8.50016975 0.02188000 5.46990008
v -6.87887001 -7.13355017 0.48091001
v -6.87887001 -6.81238985 2.17691011
v -8.12147045 -5.89099979 -0.42910000
v -6.87887001 -6.53823996 -2.89310008
v -6.87887001 -7.13355017 0.48091001
v -8.12147045 -5.89099979 -0.42910000
v -8.12147045 -5.89099979 -0.42910000
v -8.12147045 -5.60089016 -1.87610000
v -6.87887001 -6.53823996 -2.89310008
v -8.12147045 -5.60089016 -1.87610000
v -8.12100029 -4.85240984 -4.18610006
v -6.87887001 -6.53823996 -2.89310008
v -6.87887001 -5.85402012 -4.57388979
v -6.87887001 -6.53823996 -2.89310008
v -8.12100029 -4.85240984 -4.18610006
v -6.40557003 -4.61815023 -6.29309993
v -6.87887001 -5.85402012 -4.57388979
v -8.12100029 -4.85240984 -4.18610006
v -5.90557003 -1.56868005 -7.33763986
v -6.40557003 -4.61815023 -6.29309993
v -8.12147045 -1.44278002 -5.74108988
v -8.12147045 -1.44278002 -5.74108988
v -8.12147045 1.63616002 -5.70109993
v -5.90557003 -1.56868005 -7.33763986
v -5.90557003 1.77076006 -7.62009006
v -5.90557003 -1.56868005 -7.33763986
v -8.12147045 1.63616002 -5.70109993
v -6.87887001 3.66948009 -6.17009979
v -5.90557003 1.77076006 -7.62009006
v -8.12147045 1.63616002 -5.70109993
v -8.12147045 6.00887012 0.10433000
v -7.75257015 5.53448009 3.44447989
v -5.90557003 7.63414001 -0.42208999
v -6.73177004 6.68550014 2.87239999
v -5.90557003 7.63414001 -0.42208999
v -7.75257015 5.53448009 3.44447989
v -3.50016999 -8.97607040 9.81389994
v -5.66906977 -8.47778034 9.50590033
v -3.50016999 -8.70538998 8.82590956
v -7.87887001 -5.40785980 2.46300000
v -9.00000000 -3.59912992 -1.17310005
v -8.12147045 -5.89099979 -0.42910000
v -8.12147045 -5.60089016 -1.87610000
v -8.12147045 -5.89099979 -0.42910000
v -9.00000000 -3.59912992 -1.17310005
v -9.00000000 -3.59912992 -1.17310005
v -8.12100029 -4.85240984 -4.18610006
v -8.12147045 -5.60089016 -1.87610000
v -9.00000000 -3.59912992 -1.17310005
v -9.00000000 -2.21602988 -3.07609993
v -8.12100029 -4.85240984 -4.18610006
v -9.00000000 -2.21602988 -3.07609993
v -9.00000000 0.02188000 -4.58010011
v -8.12147045 -1.44278002 -5.74108988
v -8.12147045 1.63616002 -5.70109993
v -8.12147045 -1.44278002 -5.74108988
v -9.00000000 0.02188000 -4.58010011
v -8.48937035 -3.70555997 18.59789080
v -8.45003033 -3.33962989 20.40932078
v -8.50016975 0.02188000 20.53790087
v -8.48937035 -3.70555997 18.59789080
v -7.46427011 -4.93237019 19.65937990
v -8.45003033 -3.33962989 20.40932078
v 3.99983001 -5.21444988 19.76889986
v -8.48937035 -3.70555997 18.59789080
v -8.02707005 -5.46230984 17.55204958
v -7.46427011 -4.93237019 19.65937990
v -6.41337013 -7.45056009 17.15489954
v -7.46427011 -4.93237019 19.65937990
v -8.02707005 -5.46230984 17.55204958
v -8.02707005 -5.46230984 17.55204958
v -7.07657003 -7.15261984 16.53590006
v -6.41337013 -7.45056009 17.15489954
v -5.52640009 -8.05887032 15.99106020
v -6.41337013 -7.45056009 17.15489954
v -7.07657003 -7.15261984 16.53590006
v -4.73276997 -7.88682985 17.09690089
v -6.41337013 -7.45056009 17.15489954
v -5.52640009 -8.05887032 15.99106020
v -5.52640009 -8.05887032 15.99106020
v -3.43168998 -8.64404964 15.62890047
v -4.73276997 -7.88682985 17.09690089
v -4.00017023 -5.21444988 19.76889986
v -4.49517012 -5.61709976 20.77289957
v -7.46427011 -4.93237019 19.65937990
v -6.87887001 -6.53823996 -2.89310008
v -4.75756979 -7.79600000 -1.91511005
v -6.87887001 -7.13355017 0.48091001
v -4.75756979 -8.02807999 0.02889000
v -6.87887001 -7.13355017 0.48091001
v -4.75756979 -7.79600000 -1.91511005
v -4.75756979 -7.78383017 1.97190005
v -6.87887001 -7.13355017 0.48091001
v -4.75756979 -8.02807999 0.02889000
v -6.87887001 -6.81238985 2.17691011
v -6.87887001 -7.13355017 0.48091001
v -4.75756979 -7.78383017 1.97190005
v -6.40557003 -4.61815023 -6.29309993
v -8.12100029 -4.85240984 -4.18610006
v -8.12147045 -1.44278002 -5.74108988
v -9.00000000 -2.21602988 -3.07609993
v -8.12147045 -1.44278002 -5.74108988
v -8.12100029 -4.85240984 -4.18610006
v -6.87887001 -6.81238985 2.17691011
v -7.87887001 -5.40785980 2.46300000
v -8.12147045 -5.89099979 -0.42910000
v -9.00000000 2.25978994 -3.07609993
v -9.00000000 3.74480009 -1.09910005
v -8.42967033 3.69428992 4.18791003
v -9.00000000 3.74480009 -1.09910005
v -9.00000000 0.02188000 4.39290995
v -8.50016975 0.02188000 5.46990008
v -9.00000000 0.02188000 4.39290995
v -8.50000000 -3.55834007 4.34190983
v -8.50000000 -3.55834007 4.34190983
v -9.00000000 0.02188000 4.39290995
v -9.00000000 -3.59912992 -1.17310005
v -9.00000000 2.25978994 -3.07609993
v -8.12100029 4.61814022 -4.13952022
v -8.12147045 1.63616002 -5.70109993
v -8.12100029 4.61814022 -4.13952022
v -6.87887001 3.66948009 -6.17009979
v -8.12147045 1.63616002 -5.70109993
v -6.87887001 3.66948009 -6.17009979
v -8.12100029 4.61814022 -4.13952022
v -5.90557003 6.94247007 -3.64109998
v -8.12100029 5.47325993 -2.53603988
v -5.90557003 6.94247007 -3.64109998
v -8.12100029 4.61814022 -4.13952022
v -5.90557003 6.94247007 -3.64109998
v -8.12100029 5.47325993 -2.53603988
v -8.12147045 6.00887012 0.10433000
v -8.12100029 5.47325993 -2.53603988
v -9.00000000 3.74480009 -1.09910005
v -8.12147045 6.00887012 0.10433000
v -8.50016975 -3.88961005 12.77789969
v -8.02707005 -5.46230984 17.55204958
v -8.48937035 -3.70555997 18.59789080
v -8.50016975 -3.88961005 12.77789969
v -8.11956978 -5.83721018 12.86190028
v -8.02707005 -5.46230984 17.55204958
v -8.11956978 -5.83721018 12.86190028
v -7.07657003 -7.15261984 16.53590006
v -8.02707005 -5.46230984 17.55204958
v -8.11956978 -5.83721018 12.86190028
v -7.03566980 -7.45781994 12.93089957
v -7.07657003 -7.15261984 16.53590006
v -3.50016999 7.97965002 1.21890003
v -5.90557003 7.63414001 -0.42208999
v -4.75756979 7.78174019 2.14589996
v -4.75756979 7.78174019 2.14589996
v -5.90557003 7.63414001 -0.42208999
v -6.73177004 6.68550014 2.87239999
v -8.01397038 -5.97789001 7.98239989
v -8.48097038 -4.31841993 6.98789019
v -6.52396011 -4.86509991 5.63612980
v -5.15497017 -5.65163994 5.67690987
v -8.01397038 -5.97789001 7.98239989
v -6.52396011 -4.86509991 5.63612980
v -6.75466013 -5.90532017 3.90652007
v -5.15497017 -5.65163994 5.67690987
v -6.52396011 -4.86509991 5.63612980
v -6.87887001 -6.81238985 2.17691011
v -5.15497017 -5.65163994 5.67690987
v -6.75466013 -5.90532017 3.90652007
v -6.87887001 -6.81238985 2.17691011
v -6.75466013 -5.90532017 3.90652007
v -7.87887001 -5.40785980 2.46300000
v -6.75466013 -5.90532017 3.90652007
v -6.52396011 -4.86509991 5.63612980
v -7.87887001 -5.40785980 2.46300000
v -6.52396011 -4.86509991 5.63612980
v -8.50000000 -3.55834007 4.34190983
v -7.87887001 -5.40785980 2.46300000
v -8.50000000 -3.55834007 4.34190983
v -8.45823002 -3.70615005 5.68879980
v -8.50016975 0.02188000 5.46990008
v -8.45823002 -3.70615005 5.68879980
v -8.48097038 -4.31841993 6.98789019
v -8.50016975 0.02188000 5.46990008
v -8.48097038 -4.31841993 6.98789019
v -8.45823002 -3.70615005 5.68879980
v -6.52396011 -4.86509991 5.63612980
v -8.45823002 -3.70615005 5.68879980
v -8.50000000 -3.55834007 4.34190983
v -6.52396011 -4.86509991 5.63612980
v -5.15497017 -5.65163994 5.67690987
v -6.87887001 -6.81238985 2.17691011
v -4.75756979 -7.07768011 3.79890007
v -5.15497017 -5.65163994 5.67690987
v -4.75756979 -7.07768011 3.79890007
v -4.00017023 -5.82319021 5.84889979
v -8.99995995 3.11434007 27.46990008
v -8.99995995 3.87811995 25.23034090
v -5.90557003 -6.46749020 22.90089983
v -7.96932983 -4.72889996 22.71511072
v -7.46427011 -4.93237019 19.65937990
v -7.96932983 -4.72889996 22.71511072
v -8.77363968 -3.34910989 22.56884951
v -7.46427011 -4.93237019 19.65937990
v -8.12100029 -4.78403997 25.94853968
v -8.77363968 -3.34910989 22.56884951
v -7.96932983 -4.72889996 22.71511072
v -8.12100029 -3.83817005 28.38673014
v -8.99995995 -3.58678007 25.82200999
v -8.12100029 -4.78403997 25.94853968
v -8.99995995 -3.58678007 25.82200999
v -8.12100029 -3.83817005 28.38673014
v -8.99995995 -2.60559011 27.58102984
v -8.12100029 -3.16487002 29.14329905
v -8.99995995 -2.60559011 27.58102984
v -8.12100029 -3.83817005 28.38673014
v -8.12100029 -3.16487002 29.14329905
v -5.90557003 -3.05929995 31.08990092
v -8.12147045 0.02188000 29.93289942
v -5.90557003 3.14201999 31.06989092
v -8.12100029 3.12702990 29.12055010
v -8.12147045 0.02188000 29.93289942
v -8.12100029 3.99729991 28.01866907
v -8.99995995 3.11434007 27.46990008
v -8.12100029 3.12702990 29.12055010
v -8.99995995 3.11434007 27.46990008
v -8.12100029 3.99729991 28.01866907
v -8.12147045 4.95032978 25.05089945
v -8.12100029 3.99729991 28.01866907
v -5.90557003 5.55840015 28.98889918
v -8.12147045 4.95032978 25.05089945
v -5.90557003 5.55840015 28.98889918
v -8.12100029 3.99729991 28.01866907
v -8.12100029 3.12702990 29.12055010
v -5.90557003 5.55840015 28.98889918
v -8.12100029 3.12702990 29.12055010
v -5.90557003 3.14201999 31.06989092
v -5.90557003 -3.05929995 31.08990092
v -8.12100029 -3.16487002 29.14329905
v -5.87887001 -4.67070007 29.33168978
v -8.12100029 -3.16487002 29.14329905
v -8.12100029 -3.83817005 28.38673014
v -5.87887001 -4.67070007 29.33168978
v -5.87887001 -4.67070007 29.33168978
v -8.12100029 -3.83817005 28.38673014
v -5.90557003 -6.71430016 26.07990069
v -8.12100029 -3.83817005 28.38673014
v -8.12100029 -4.78403997 25.94853968
v -5.90557003 -6.71430016 26.07990069
v -8.77363968 -3.34910989 22.56884951
v -8.12100029 -4.78403997 25.94853968
v -8.99995995 -3.58678007 25.82200999
v -5.90557003 -6.71430016 26.07990069
v -8.12100029 -4.78403997 25.94853968
v -5.90557003 -6.46749020 22.90089983
v -8.12100029 -4.78403997 25.94853968
v -7.96932983 -4.72889996 22.71511072
v -5.90557003 -6.46749020 22.90089983
v -9.00000000 3.74480009 -1.09910005
v -8.12100029 5.47325993 -2.53603988
v -8.12100029 4.61814022 -4.13952022
v -9.00000000 3.74480009 -1.09910005
v -8.12100029 4.61814022 -4.13952022
v -9.00000000 2.25978994 -3.07609993
v -8.99995995 -2.60559011 27.58102984
v -8.12100029 -3.16487002 29.14329905
v -9.00000000 0.02188000 28.72614092
v -8.12147045 0.02188000 29.93289942
v -9.00000000 0.02188000 28.72614092
v -8.12100029 -3.16487002 29.14329905
v -8.12147045 0.02188000 29.93289942
v -8.12100029 3.12702990 29.12055010
v -9.00000000 0.02188000 28.72614092
v -8.99995995 3.11434007 27.46990008
v -9.00000000 0.02188000 28.72614092
v -8.12100029 3.12702990 29.12055010
v -5.90557003 -1.56868005 -7.33763986
v -5.90557003 1.77076006 -7.62009006
v -4.75756979 1.09010005 -7.97510009
v -5.90557003 -1.56868005 -7.33763986
v -4.75756979 1.09010005 -7.97510009
v -4.75756979 -2.77351999 -7.54509979
v -6.40557003 -4.61815023 -6.29309993
v -5.90557003 -1.56868005 -7.33763986
v -4.75756979 -2.77351999 -7.54509979
v -6.40557003 -4.61815023 -6.29309993
v -4.75756979 -2.77351999 -7.54509979
v -4.75756979 -4.51347017 -6.64710003
v -5.90557003 6.94247007 -3.64109998
v -4.75756979 7.88062000 -1.74009996
v -4.75756979 7.22694016 -3.58609992
v -5.90557003 6.94247007 -3.64109998
v -5.90557003 7.63414001 -0.42208999
v -4.75756979 7.88062000 -1.74009996
v 5.89835978 6.94247007 -3.64109998
v 4.75722980 7.88062000 -1.74009996
v 5.89835978 7.63414001 -0.42208999
v 5.89835978 6.94247007 -3.64109998
v 4.75722980 7.22694016 -3.58609992
v 4.75722980 7.88062000 -1.74009996
v 6.39835978 -4.61815023 -6.29309993
v 4.75722980 -4.51347017 -6.64710003
v 4.75722980 -2.77351999 -7.54509979
v 6.39835978 -4.61815023 -6.29309993
v 4.75722980 -2.77351999 -7.54509979
v 5.89835978 -1.56868005 -7.33763986
v 5.89835978 -1.56868005 -7.33763986
v 4.75722980 -2.77351999 -7.54509979
v 4.75722980 1.09010005 -7.97510009
v 5.89835978 -1.56868005 -7.33763986
v 4.75722980 1.09010005 -7.97510009
v 5.89835978 1.77076006 -7.62009006
v 8.99995995 3.11434007 27.46990008
v 8.11378956 3.12702990 29.12055010
v 9.00000000 0.02188000 28.72614092
v 8.11425972 0.02188000 29.93289942
v 9.00000000 0.02188000 28.72614092
v 8.11378956 3.12702990 29.12055010
v 8.11425972 0.02188000 29.93289942
v 8.11378956 -3.16488004 29.14329905
v 9.00000000 0.02188000 28.72614092
v 8.99995995 -2.60559011 27.58102984
v 9.00000000 0.02188000 28.72614092
v 8.11378956 -3.16488004 29.14329905
v 9.00000000 3.74480009 -1.09910005
v 9.00000000 2.25978994 -3.07609993
v 8.11378956 4.61814022 -4.13952022
v 9.00000000 3.74480009 -1.09910005
v 8.11378956 4.61814022 -4.13952022
v 8.11378956 5.47325993 -2.53603988
v 8.11378956 -4.78403997 25.94853968
v 5.89835978 -6.46749020 22.90089983
v 7.96212006 -4.72889996 22.71511072
v 5.89835978 -6.71430016 26.07990069
v 5.89835978 -6.46749020 22.90089983
v 8.11378956 -4.78403997 25.94853968
v 8.76642990 -3.34910989 22.56884951
v 8.99995995 -3.58678007 25.82200999
v 8.11378956 -4.78403997 25.94853968
v 8.11378956 -3.83817005 28.38673014
v 5.89835978 -6.71430016 26.07990069
v 8.11378956 -4.78403997 25.94853968
v 5.87166023 -4.67070007 29.33168978
v 5.89835978 -6.71430016 26.07990069
v 8.11378956 -3.83817005 28.38673014
v 8.11378956 -3.16488004 29.14329905
v 5.87166023 -4.67070007 29.33168978
v 8.11378956 -3.83817005 28.38673014
v 5.89835978 -3.05929995 31.08990092
v 5.87166023 -4.67070007 29.33168978
v 8.11378956 -3.16488004 29.14329905
v 5.89835978 5.55840015 28.98889918
v 5.89835978 3.14201999 31.06989092
v 8.11378956 3.12702990 29.12055010
v 5.89835978 5.55840015 28.98889918
v 8.11378956 3.12702990 29.12055010
v 8.11378956 3.99729991 28.01866907
v 8.11378956 3.99729991 28.01866907
v 8.11425972 4.95032978 25.05089945
v 5.89835978 5.55840015 28.98889918
v 8.99995995 3.11434007 27.46990008
v 8.11425972 4.95032978 25.05089945
v 8.11378956 3.99729991 28.01866907
v 8.11378956 3.99729991 28.01866907
v 8.11378956 3.12702990 29.12055010
v 8.99995995 3.11434007 27.46990008
v 5.89835978 3.14201999 31.06989092
v 8.11425972 0.02188000 29.93289942
v 8.11378956 3.12702990 29.12055010
v 8.11378956 -3.16488004 29.14329905
v 8.11425972 0.02188000 29.93289942
v 5.89835978 -3.05929995 31.08990092
v 8.11378956 -3.16488004 29.14329905
v 8.11378956 -3.83817005 28.38673014
v 8.99995995 -2.60559011 27.58102984
v 8.99995995 -3.58678007 25.82200999
v 8.99995995 -2.60559011 27.58102984
v 8.11378956 -3.83817005 28.38673014
v 8.11378956 -3.83817005 28.38673014
v 8.11378956 -4.78403997 25.94853968
v 8.99995995 -3.58678007 25.82200999
v 8.11378956 -4.78403997 25.94853968
v 7.96212006 -4.72889996 22.71511072
v 8.76642990 -3.34910989 22.56884951
v 7.96212006 -4.72889996 22.71511072
v 7.45705986 -4.93237019 19.65937990
v 8.76642990 -3.34910989 22.56884951
v 5.89835978 -6.46749020 22.90089983
v 7.45705986 -4.93237019 19.65937990
v 7.96212006 -4.72889996 22.71511072
v 8.99995995 3.11434007 27.46990008
v 9.00000000 0.02188000 28.72614092
v 9.00018978 0.02642000 23.15290064
v 8.99995995 3.87811995 25.23034090
v 5.14775991 -5.65163994 5.67689986
v 3.99983001 -5.82319021 5.84889979
v 4.75722980 -7.07768011 3.79890007
v 5.14775991 -5.65163994 5.67689986
v 4.75722980 -7.07768011 3.79890007
v 6.87166023 -6.81238985 2.17690009
v 8.45102024 -3.70615005 5.68879980
v 6.51674986 -4.86509991 5.63612980
v 8.49279022 -3.55834007 4.34190983
v 8.47375965 -4.31841993 6.98789019
v 6.51674986 -4.86509991 5.63612980
v 8.45102024 -3.70615005 5.68879980
v 8.45102024 -3.70615005 5.68879980
v 8.49295998 0.02188000 5.46990008
v 8.47375965 -4.31841993 6.98789019
v 8.49279022 -3.55834007 4.34190983
v 8.49295998 0.02188000 5.46990008
v 8.45102024 -3.70615005 5.68879980
v 6.51674986 -4.86509991 5.63612980
v 7.87166023 -5.40785980 2.46300000
v 8.49279022 -3.55834007 4.34190983
v 6.74745989 -5.90533018 3.90652007
v 7.87166023 -5.40785980 2.46300000
v 6.51674986 -4.86509991 5.63612980
v 6.87166023 -6.81238985 2.17690009
v 7.87166023 -5.40785980 2.46300000
v 6.74745989 -5.90533018 3.90652007
v 6.74745989 -5.90533018 3.90652007
v 5.14775991 -5.65163994 5.67689986
v 6.87166023 -6.81238985 2.17690009
v 6.51674986 -4.86509991 5.63612980
v 5.14775991 -5.65163994 5.67689986
v 6.74745989 -5.90533018 3.90652007
v 5.14775991 -5.65163994 5.67689986
v 6.51674986 -4.86509991 5.63612980
v 8.00675964 -5.97789001 7.98239989
v 8.00675964 -5.97789001 7.98239989
v 6.51674986 -4.86509991 5.63612980
v 8.47375965 -4.31841993 6.98789019
v 4.75036001 7.78174019 2.14589996
v 6.72455978 6.68550014 2.87239999
v 5.89835978 7.63414001 -0.42208999
v 3.49295998 7.97965002 1.21890003
v 4.75036001 7.78174019 2.14589996
v 5.89835978 7.63414001 -0.42208999
v 8.11236000 -5.83721018 12.86190028
v 7.06935978 -7.15261984 16.53590006
v 7.02846003 -7.45781994 12.93089957
v 8.11236000 -5.83721018 12.86190028
v 8.01986027 -5.46230984 17.55204958
v 7.06935978 -7.15261984 16.53590006
v 8.49295998 -3.88961005 12.77789969
v 8.01986027 -5.46230984 17.55204958
v 8.11236000 -5.83721018 12.86190028
v 8.49295998 -3.88961005 12.77789969
v 8.48215961 -3.70555997 18.59789080
v 8.01986027 -5.46230984 17.55204958
v 8.11378956 5.47325993 -2.53603988
v 8.11425972 6.00887012 0.10432000
v 9.00000000 3.74480009 -1.09910005
v 5.89835978 6.94247007 -3.64109998
v 8.11425972 6.00887012 0.10432000
v 8.11378956 5.47325993 -2.53603988
v 8.11378956 5.47325993 -2.53603988
v 8.11378956 4.61814022 -4.13952022
v 5.89835978 6.94247007 -3.64109998
v 6.87166023 3.66948009 -6.17009979
v 5.89835978 6.94247007 -3.64109998
v 8.11378956 4.61814022 -4.13952022
v 8.11378956 4.61814022 -4.13952022
v 8.11425972 1.63616002 -5.70109993
v 6.87166023 3.66948009 -6.17009979
v 9.00000000 2.25978994 -3.07609993
v 8.11425972 1.63616002 -5.70109993
v 8.11378956 4.61814022 -4.13952022
v 8.49279022 -3.55834007 4.34190983
v 9.00000000 -3.59912992 -1.17310005
v 9.00000000 0.02188000 4.39290995
v 8.49295998 0.02188000 5.46990008
v 8.49279022 -3.55834007 4.34190983
v 9.00000000 0.02188000 4.39290995
v 8.42245960 3.69428992 4.18791003
v 9.00000000 0.02188000 4.39290995
v 9.00000000 3.74480009 -1.09910005
v 9.00000000 0.02188000 4.39290995
v 9.00000000 2.25978994 -3.07609993
v 9.00000000 3.74480009 -1.09910005
v 9.00000000 0.02188000 -4.58010011
v 6.87166023 -6.81238985 2.17690009
v 8.11425972 -5.89099979 -0.42910000
v 7.87166023 -5.40785980 2.46300000
v 9.00000000 -2.21602988 -3.07609993
v 8.11378956 -4.85240984 -4.18610006
v 8.11425972 -1.44278002 -5.74109989
v 6.39835978 -4.61815023 -6.29309993
v 8.11425972 -1.44278002 -5.74109989
v 8.11378956 -4.85240984 -4.18610006
v 6.87166023 -6.81238985 2.17690009
v 4.75722980 -7.78383017 1.97190005
v 6.87166023 -7.13355017 0.48089999
v 4.75722980 -7.78383017 1.97190005
v 4.75722980 -8.02807999 0.02889000
v 6.87166023 -7.13355017 0.48089999
v 4.75722980 -8.02807999 0.02889000
v 4.75722980 -7.79600000 -1.91511005
v 6.87166023 -7.13355017 0.48089999
v 6.87166023 -6.53823996 -2.89310008
v 6.87166023 -7.13355017 0.48089999
v 4.75722980 -7.79600000 -1.91511005
v 3.99983001 -5.21444988 19.76889986
v 7.45705986 -4.93237019 19.65937990
v 4.48795986 -5.61709976 20.77289957
v 5.51918983 -8.05887032 15.99106020
v 4.72556019 -7.88682985 17.09690089
v 3.42447996 -8.64404964 15.62890047
v 4.72556019 -7.88682985 17.09690089
v 5.51918983 -8.05887032 15.99106020
v 6.40615988 -7.45056009 17.15489954
v 5.51918983 -8.05887032 15.99106020
v 7.06935978 -7.15261984 16.53590006
v 6.40615988 -7.45056009 17.15489954
v 8.01986027 -5.46230984 17.55204958
v 6.40615988 -7.45056009 17.15489954
v 7.06935978 -7.15261984 16.53590006
v 6.40615988 -7.45056009 17.15489954
v 8.01986027 -5.46230984 17.55204958
v 7.45705986 -4.93237019 19.65937990
v 8.48215961 -3.70555997 18.59789080
v 7.45705986 -4.93237019 19.65937990
v 8.01986027 -5.46230984 17.55204958
v 8.48215961 -3.70555997 18.59789080
v 8.44281960 -3.33962989 20.40932078
v 7.45705986 -4.93237019 19.65937990
v 8.48215961 -3.70555997 18.59789080
v 8.49295998 0.02188000 20.53790087
v 8.44281960 -3.33962989 20.40932078
v 8.11425972 1.63616002 -5.70109993
v 9.00000000 0.02188000 -4.58010011
v 8.11425972 -1.44278002 -5.74109989
v 9.00000000 -2.21602988 -3.07609993
v 8.11425972 -1.44278002 -5.74109989
v 9.00000000 0.02188000 -4.58010011
v 9.00000000 -3.59912992 -1.17310005
v 8.11378956 -4.85240984 -4.18610006
v 9.00000000 -2.21602988 -3.07609993
v 9.00000000 -3.59912992 -1.17310005
v 8.11425972 -5.60089016 -1.87611001
v 8.11378956 -4.85240984 -4.18610006
v 8.11425972 -5.60089016 -1.87611001
v 9.00000000 -3.59912992 -1.17310005
v 8.11425972 -5.89099979 -0.42910000
v 7.87166023 -5.40785980 2.46300000
v 8.11425972 -5.89099979 -0.42910000
v 9.00000000 -3.59912992 -1.17310005
v 3.49295998 -8.97607040 9.81389994
v 3.49295998 -8.70538998 8.82590956
v 5.66185999 -8.47778034 9.50590033
v 6.72455978 6.68550014 2.87239999
v 7.74535990 5.53448009 3.44447989
v 5.89835978 7.63414001 -0.42208999
v 8.11425972 6.00887012 0.10432000
v 5.89835978 7.63414001 -0.42208999
v 7.74535990 5.53448009 3.44447989
v 6.87166023 3.66948009 -6.17009979
v 8.11425972 1.63616002 -5.70109993
v 5.89835978 1.77076006 -7.62009006
v 5.89835978 1.77076006 -7.62009006
v 8.11425972 1.63616002 -5.70109993
v 5.89835978 -1.56868005 -7.33763986
v 8.11425972 -1.44278002 -5.74109989
v 5.89835978 -1.56868005 -7.33763986
v 8.11425972 1.63616002 -5.70109993
v 5.89835978 -1.56868005 -7.33763986
v 8.11425972 -1.44278002 -5.74109989
v 6.39835978 -4.61815023 -6.29309993
v 6.39835978 -4.61815023 -6.29309993
v 8.11378956 -4.85240984 -4.18610006
v 6.87166023 -5.85402012 -4.57388979
v 6.87166023 -5.85402012 -4.57388979
v 8.11378956 -4.85240984 -4.18610006
v 6.87166023 -6.53823996 -2.89310008
v 8.11425972 -5.60089016 -1.87611001
v 6.87166023 -6.53823996 -2.89310008
v 8.11378956 -4.85240984 -4.18610006
v 8.11425972 -5.89099979 -0.42910000
v 6.87166023 -6.53823996 -2.89310008
v 8.11425972 -5.60089016 -1.87611001
v 6.87166023 -6.53823996 -2.89310008
v 8.11425972 -5.89099979 -0.42910000
v 6.87166023 -7.13355017 0.48089999
v 6.87166023 -7.13355017 0.48089999
v 8.11425972 -5.89099979 -0.42910000
v 6.87166023 -6.81238985 2.17690009
v 8.42245960 3.69428992 4.18791003
v 8.49295998 0.02188000 5.46990008
v 9.00000000 0.02188000 4.39290995
v 8.11425972 6.00887012 0.10432000
v 8.42245960 3.69428992 4.18791003
v 9.00000000 3.74480009 -1.09910005
v 8.11425972 6.00887012 0.10432000
v 7.74535990 5.53448009 3.44447989
v 8.42245960 3.69428992 4.18791003
v 9.00000000 2.25978994 -3.07609993
v 9.00000000 0.02188000 -4.58010011
v 8.11425972 1.63616002 -5.70109993
v 9.00000000 -2.21602988 -3.07609993
v 9.00000000 -3.59912992 -1.17310005
v 7.87166023 -5.40785980 2.46300000
v 9.00000000 -3.59912992 -1.17310005
v 8.49279022 -3.55834007 4.34190983
v 6.97873020 -7.50773001 8.86246962
v 5.66185999 -8.47778034 9.50590033
v 3.49295998 -8.70538998 8.82590956
v 3.49295998 7.97965002 1.21890003
v 5.89835978 7.63414001 -0.42208999
v 4.75722980 7.88062000 -1.74009996
v 5.89835978 7.63414001 -0.42208999
v 8.11425972 6.00887012 0.10432000
v 5.89835978 6.94247007 -3.64109998
v 4.75722980 7.22694016 -3.58609992
v 5.89835978 6.94247007 -3.64109998
v 4.75722980 6.14692020 -5.22009998
v 5.89835978 4.79135990 -6.19510990
v 4.75722980 6.14692020 -5.22009998
v 5.89835978 6.94247007 -3.64109998
v 4.75722980 6.14692020 -5.22009998
v 5.89835978 4.79135990 -6.19510990
v 4.75722980 4.70447016 -6.54409986
v 6.87166023 3.66948009 -6.17009979
v 5.89835978 4.79135990 -6.19510990
v 5.89835978 6.94247007 -3.64109998
v 5.89835978 4.79135990 -6.19510990
v 6.87166023 3.66948009 -6.17009979
v 5.89835978 1.77076006 -7.62009006
v 5.89835978 1.77076006 -7.62009006
v 4.75722980 2.98490000 -7.48110014
v 5.89835978 4.79135990 -6.19510990
v 5.89835978 4.79135990 -6.19510990
v 4.75722980 2.98490000 -7.48110014
v 4.75722980 4.70447016 -6.54409986
v 4.75722980 2.98490000 -7.48110014
v 5.89835978 1.77076006 -7.62009006
v 4.75722980 1.09010005 -7.97510009
v 4.75722980 -4.51347017 -6.64710003
v 6.39835978 -4.61815023 -6.29309993
v 4.75722980 -5.98512983 -5.35509020
v 6.87166023 -5.85402012 -4.57388979
v 4.75722980 -5.98512983 -5.35509020
v 6.39835978 -4.61815023 -6.29309993
v 6.87166023 -6.53823996 -2.89310008
v 4.75722980 -7.79600000 -1.91511005
v 6.87166023 -5.85402012 -4.57388979
v 6.87166023 -5.85402012 -4.57388979
v 4.75722980 -7.79600000 -1.91511005
v 4.75722980 -5.98512983 -5.35509020
v 4.75722980 -7.78383017 1.97190005
v 6.87166023 -6.81238985 2.17690009
v 4.75722980 -7.07768011 3.79890007
v 8.99995995 -3.58678007 25.82200999
v 8.76642990 -3.34910989 22.56884951
v 9.00018978 0.02642000 23.15290064
v 8.49295998 0.02188000 20.53790087
v 9.00018978 0.02642000 23.15290064
v 8.76642990 -3.34910989 22.56884951
v 8.76642990 -3.34910989 22.56884951
v 8.44281960 -3.33962989 20.40932078
v 8.49295998 0.02188000 20.53790087
v 8.99995995 -3.58678007 25.82200999
v 8.99995995 -2.60559011 27.58102984
v 8.21846008 3.73769999 21.84350008
v 8.99995995 3.87811995 25.23034090
v 9.00018978 0.02642000 23.15290064
v 8.21846008 3.73769999 21.84350008
v 9.00018978 0.02642000 23.15290064
v 8.49295998 0.02188000 20.53790087
v 8.11425972 4.95032978 25.05089945
v 8.21846008 3.73769999 21.84350008
v 7.62035990 4.93940020 22.20465082
v 8.21846008 3.73769999 21.84350008
v 8.11425972 4.95032978 25.05089945
v 8.99995995 3.87811995 25.23034090
v 8.99995995 3.87811995 25.23034090
v 8.11425972 4.95032978 25.05089945
v 8.99995995 3.11434007 27.46990008
v 7.62035990 4.93940020 22.20465082
v 6.30405998 6.25101995 22.77390093
v 8.11425972 4.95032978 25.05089945
v 5.89835978 6.76483011 26.03690905
v 8.11425972 4.95032978 25.05089945
v 6.30405998 6.25101995 22.77390093
v 5.89835978 5.55840015 28.98889918
v 8.11425972 4.95032978 25.05089945
v 5.89835978 6.76483011 26.03690905
v 5.89835978 0.04374000 31.82591051
v 8.11425972 0.02188000 29.93289942
v 5.89835978 3.14201999 31.06989092
v 5.89835978 -3.05929995 31.08990092
v 8.11425972 0.02188000 29.93289942
v 5.89835978 0.04374000 31.82591051
v 8.76642990 -3.34910989 22.56884951
v 7.45705986 -4.93237019 19.65937990
v 8.44281960 -3.33962989 20.40932078
v 5.89835978 6.76483011 26.03690905
v 6.30405998 6.25101995 22.77390093
v 4.29086018 7.00276995 24.01889986
v 5.89835978 6.76483011 26.03690905
v 4.29086018 7.00276995 24.01889986
v 4.75722980 7.05771017 25.45091051
v 4.75722980 6.68716002 27.30089945
v 5.89835978 6.76483011 26.03690905
v 4.75722980 7.05771017 25.45091051
v 5.89835978 6.76483011 26.03690905
v 4.75722980 6.68716002 27.30089945
v 5.89835978 5.55840015 28.98889918
v 4.75722980 4.57411003 30.38689989
v 5.89835978 5.55840015 28.98889918
v 4.75722980 6.68716002 27.30089945
v 5.89835978 5.55840015 28.98889918
v 4.75722980 4.57411003 30.38689989
v 5.89835978 3.14201999 31.06989092
v 4.75722980 2.98301005 31.40189928
v 5.89835978 3.14201999 31.06989092
v 4.75722980 4.57411003 30.38689989
v 5.89835978 3.14201999 31.06989092
v 4.75722980 2.98301005 31.40189928
v 5.89835978 0.04374000 31.82591051
v 5.89835978 0.04374000 31.82591051
v 4.75722980 2.98301005 31.40189928
v 4.75722980 1.17980003 31.95790095
v 4.75722980 -2.54057002 31.57188982
v 5.89835978 0.04374000 31.82591051
v 4.75722980 1.17980003 31.95790095
v 5.89835978 0.04374000 31.82591051
v 4.75722980 -2.54057002 31.57188982
v 5.89835978 -3.05929995 31.08990092
v 4.75722980 -4.19092989 30.65690035
v 5.89835978 -3.05929995 31.08990092
v 4.75722980 -2.54057002 31.57188982
v 5.89835978 -3.05929995 31.08990092
v 4.75722980 -4.19092989 30.65690035
v 5.87166023 -4.67070007 29.33168978
v 5.87166023 -4.67070007 29.33168978
v 4.75722980 -4.19092989 30.65690035
v 4.75722980 -6.48964977 27.70590014
v 5.87166023 -4.67070007 29.33168978
v 4.75722980 -6.48964977 27.70590014
v 5.89835978 -6.71430016 26.07990069
v 4.75722980 -6.97320986 25.88191027
v 5.89835978 -6.71430016 26.07990069
v 4.75722980 -6.48964977 27.70590014
v 5.89835978 -6.71430016 26.07990069
v 4.75722980 -6.97320986 25.88191027
v 5.89835978 -6.46749020 22.90089983
v 5.89835978 -6.46749020 22.90089983
v 4.75722980 -6.97320986 25.88191027
v 4.75036001 -6.43800020 22.17989916
v 5.89835978 -6.46749020 22.90089983
v 4.75036001 -6.43800020 22.17989916
v 7.45705986 -4.93237019 19.65937990
v 7.45705986 -4.93237019 19.65937990
v 4.75036001 -6.43800020 22.17989916
v 4.48795986 -5.61709976 20.77289957
v 4.75722980 7.05771017 25.45091051
v 4.29086018 7.00276995 24.01889986
v 3.49983001 7.04979992 24.44688982
v 5.40636015 -8.54067993 12.82834048
v 3.49295998 -8.93332005 12.68889994
v 3.49295998 -8.97607040 9.81389994
v 5.40636015 -8.54067993 12.82834048
v 3.42447996 -8.64404964 15.62890047
v 3.49295998 -8.93332005 12.68889994
v 3.42447996 -8.64404964 15.62890047
v 5.40636015 -8.54067993 12.82834048
v 5.51918983 -8.05887032 15.99106020
v 5.66185999 -8.47778034 9.50590033
v 5.40636015 -8.54067993 12.82834048
v 3.49295998 -8.97607040 9.81389994
v 5.40636015 -8.54067993 12.82834048
v 5.66185999 -8.47778034 9.50590033
v 7.02846003 -7.45781994 12.93089957
v 7.02846003 -7.45781994 12.93089957
v 5.66185999 -8.47778034 9.50590033
v 6.97873020 -7.50773001 8.86246962
v 7.02846003 -7.45781994 12.93089957
v 7.06935978 -7.15261984 16.53590006
v 5.40636015 -8.54067993 12.82834048
v 5.40636015 -8.54067993 12.82834048
v 7.06935978 -7.15261984 16.53590006
v 5.51918983 -8.05887032 15.99106020
v 7.02846003 -7.45781994 12.93089957
v 6.97873020 -7.50773001 8.86246962
v 8.11236000 -5.83721018 12.86190028
v 8.00675964 -5.97789001 7.98239989
v 8.11236000 -5.83721018 12.86190028
v 8.00675964 -5.97789001 7.98239989
v 8.49295998 -3.88961005 12.77789969
v 8.49295998 -3.88961005 12.77789969
v 8.00675964 -5.97789001 7.98239989
v 8.47375965 -4.31841993 6.98789019
v 5.14775991 -5.65163994 5.67689986
v 5.14775991 -5.65163994 5.67689986
v 4.72556019 -7.88682985 17.09690089
v 3.99983001 -5.21444988 19.76889986
v 3.42447996 -8.64404964 15.62890047
v 3.99983001 -5.21444988 19.76889986
v 4.72556019 -7.88682985 17.09690089
v 7.45705986 -4.93237019 19.65937990
v 6.40615988 -7.45056009 17.15489954
v 7.45705986 -4.93237019 19.65937990
v 4.72556019 -7.88682985 17.09690089
v 8.42245960 3.69428992 4.18791003
v 8.21846008 3.73769999 21.84350008
v 8.49295998 0.02188000 5.46990008
v 7.74535990 5.53448009 3.44447989
v 8.21846008 3.73769999 21.84350008
v 8.42245960 3.69428992 4.18791003
v 8.21846008 3.73769999 21.84350008
v 7.74535990 5.53448009 3.44447989
v 7.62035990 4.93940020 22.20465082
v 7.62035990 4.93940020 22.20465082
v 7.74535990 5.53448009 3.44447989
v 6.30405998 6.25101995 22.77390093
v 6.72455978 6.68550014 2.87239999
v 6.30405998 6.25101995 22.77390093
v 7.74535990 5.53448009 3.44447989
v 6.30405998 6.25101995 22.77390093
v 6.72455978 6.68550014 2.87239999
v 4.29086018 7.00276995 24.01889986
v 4.75036001 7.78174019 2.14589996
v 4.29086018 7.00276995 24.01889986
v 6.72455978 6.68550014 2.87239999
v 4.29086018 7.00276995 24.01889986
v 4.75036001 7.78174019 2.14589996
v 3.49295998 7.97965002 1.21890003
v 4.29086018 7.00276995 24.01889986
v 3.49295998 7.97965002 1.21890003
v 3.49983001 7.04979992 24.44688982
v 8.21846008 3.73769999 21.84350008
v 8.49295998 0.02188000 20.53790087
v 8.49295998 0.02188000 5.46990008
v 8.49295998 0.02188000 5.46990008
v 8.49295998 0.02188000 20.53790087
v 8.48215961 -3.70555997 18.59789080
v 8.49295998 -3.88961005 12.77789969
v 8.49295998 0.02188000 5.46990008
v 8.49295998 -3.88961005 12.77789969
v 8.47375965 -4.31841993 6.98789019
v 5.14775991 -5.65163994 5.67689986
v 8.00675964 -5.97789001 7.98239989
v 6.97873020 -7.50773001 8.86246962
v 4.48795986 -5.61709976 20.77289957
f 1 2 3
f 4 5 6
f 7 8 9
f 7 9 10
f 11 12 13
f 14 15 16
f 17 16 15
f 18 19 20
f 21 22 23
f 24 25 26
f 27 28 29
f 30 31 32
f 33 34 35
f 36 37 38
f 39 40 41
f 42 43 44
f 45 46 47
f 48 47 46
f 49 50 51
f 52 51 50
f 53 54 55
f 56 57 58
f 59 60 61
f 62 63 64
f 65 62 64
f 66 67 68
f 69 70 71
f 72 73 71
f 70 72 71
f 74 75 76
f 77 78 79
f 80 81 82
f 83 80 82
f 84 85 86
f 87 88 89
f 90 91 92
f 93 94 95
f 96 97 98
f 99 100 101
f 102 103 104
f 105 106 107
f 108 109 110
f 111 112 113
f 114 115 116
f 117 116 115
f 118 119 120
f 121 120 119
f 122 123 124
f 125 124 123
f 126 127 128
f 129 128 127
f 130 131 132
f 133 132 131
f 134 135 136
f 137 136 135
f 138 139 140
f 141 140 139
f 142 143 144
f 145 144 143
f 146 147 148
f 149 148 147
f 150 151 152
f 151 150 153
f 154 155 156
f 157 158 159
f 160 161 162
f 163 164 165
f 166 167 168
f 169 170 171
f 172 173 174
f 175 176 177
f 178 179 180
f 181 182 183
f 184 185 186
f 187 188 189
f 190 191 192
f 193 194 195
f 196 197 198
f 199 200 201
f 202 203 204
f 205 206 207
f 208 209 210
f 211 212 213
f 214 215 216
f 217 218 219
f 220 221 222
f 223 224 225
f 226 227 228
f 229 230 231
f 232 233 234
f 235 236 237
f 238 239 240
f 241 242 243
f 244 245 246
f 247 248 249
f 250 251 252
f 253 250 252
f 254 255 256
f 257 258 259
f 260 261 262
f 263 264 265
f 266 267 268
f 269 270 271
f 272 273 274
f 275 276 277
f 278 279 280
f 281 282 283
f 284 285 286
f 287 288 289
f 290 291 292
f 293 294 295
f 296 297 298
f 299 300 301
f 302 303 304
f 305 306 307
f 308 309 310
f 311 312 313
f 312 311 314
f 315 316 317
f 318 317 316
f 319 320 321
f 322 321 320
f 323 324 325
f 326 325 324
f 327 328 329
f 330 329 328
f 331 332 333
f 334 333 332
f 335 336 337
f 338 337 336
f 339 340 341
f 342 341 340
f 343 344 345
f 346 345 344
f 347 348 349
f 350 349 348
f 351 352 353
f 354 353 352
f 355 356 357
f 358 357 356
f 359 360 361
f 362 361 360
f 363 364 365
f 366 365 364
f 66 68 367
f 368 369 370
f 371 372 373
f 374 371 373
f 375 310 309
f 376 377 378
f 379 380 381
f 382 383 384
f 385 386 387
f 388 389 390
f 391 392 393
f 394 395 396
f 397 398 399
f 400 401 402
f 403 404 405
f 406 407 408
f 409 410 411
f 412 413 414
f 415 416 417
f 418 419 420
f 421 422 423
f 424 425 426
f 427 428 429
f 430 431 432
f 433 434 435
f 436 437 438
f 439 440 441
f 442 443 444
f 445 446 447
f 448 449 450
f 451 108 110
f 452 453 454
f 455 456 457
f 458 459 460
f 461 462 463
f 464 465 466
f 467 468 469
f 470 471 472
f 473 474 475
f 476 477 478
f 479 480 481
f 482 483 484
f 485 486 487
f 488 489 490
f 491 492 493
f 373 494 374
f 373 495 494
f 496 497 498
f 499 500 501
f 502 503 504
f 505 506 507
f 508 509 510
f 511 512 513
f 514 515 516
f 517 518 519
f 520 521 522
f 523 524 525
f 526 527 528
f 529 530 531
f 532 533 534
f 535 536 537
f 538 539 540
f 541 542 543
f 544 545 546
f 547 548 549
f 550 551 552
f 553 554 555
f 556 557 558
f 559 560 561
f 562 563 564
f 565 566 567
f 568 569 570
f 571 572 573
f 574 575 576
f 577 578 579
f 580 581 252
f 580 252 251
f 582 583 584
f 585 586 587
f 588 589 590
f 591 592 593
f 594 595 596
f 597 598 599
f 600 601 602
f 603 604 605
f 606 607 608
f 609 610 611
f 612 613 614
f 615 616 617
f 618 619 620
f 621 622 623
f 624 625 626
f 627 628 629
f 630 631 632
f 633 634 635
f 636 637 638
f 639 640 641
f 642 643 644
f 645 646 647
f 648 649 650
f 651 652 653
f 654 655 656
f 657 658 659
f 660 661 662
f 663 664 665
f 666 667 668
f 669 670 671
f 672 673 674
f 675 676 677
f 678 679 680
f 681 682 683
f 684 685 686
f 687 688 689
f 690 691 692
f 693 694 695
f 696 697 698
f 699 700 701
f 702 703 704
f 705 706 707
f 708 709 710
f 711 712 713
f 714 715 716
f 717 718 719
f 720 721 722
f 723 724 725
f 726 727 728
f 729 730 731
f 732 733 734
f 735 736 737
f 738 739 740
f 741 742 743
f 744 745 746
f 747 748 749
f 750 751 752
f 753 754 755
f 756 757 758
f 759 760 761
f 762 763 764
f 765 766 767
f 768 769 770
f 771 772 773
f 774 775 776
f 774 776 777
f 778 779 780
f 781 782 783
f 784 785 786
f 787 788 789
f 790 791 792
f 793 794 795
f 796 797 798
f 799 800 801
f 802 803 804
f 805 806 807
f 808 809 810
f 811 812 813
f 814 815 816
f 817 818 819
f 820 821 822
f 823 824 825
f 826 827 828
f 829 830 831
f 832 833 834
f 835 836 837
f 838 839 840
f 841 842 843
f 844 845 846
f 847 848 849
f 850 851 852
f 853 854 855
f 856 857 858
f 859 860 861
f 862 863 864
f 862 865 863
f 866 867 868
f 869 870 871
f 872 873 874
f 875 876 877
f 878 879 880
f 881 882 883
f 884 885 886
f 887 888 889
f 890 891 892
f 893 894 895
f 896 897 898
f 899 900 901
f 902 903 904
f 905 906 907
f 908 909 910
f 911 912 913
f 914 915 916
f 917 918 919
f 920 921 922
f 923 924 925
f 926 927 928
f 929 930 931
f 932 933 934
f 935 936 937
f 938 939 940
f 941 942 943
f 944 945 946
f 947 948 949
f 950 951 952
f 953 954 955
f 956 957 958
f 959 960 961
f 962 963 964
f 965 966 967
f 968 969 970
f 971 972 973
f 974 975 976
f 977 978 979
f 980 981 982
f 865 862 983
f 983 862 984
f 985 986 987
f 988 989 990
f 991 992 993
f 994 995 996
f 997 998 999
f 1000 1001 1002
f 1003 1004 1005
f 1006 1007 1008
f 1009 1010 1011
f 1012 1013 1014
f 1015 1016 1017
f 1018 1019 1020
f 1021 1022 1023
f 1024 1025 1026
f 1027 1028 1029
f 1030 1031 1032
f 1033 1034 1035
f 1036 1037 1038
f 1039 1040 1041
f 1042 1043 1044
f 1045 776 1046
f 1046 776 775
f 1047 1048 1049
f 1050 1051 1052
f 1053 1054 1055
f 1056 1057 1058
f 1059 1060 1061
f 1062 1063 1064
f 1065 1066 1067
f 1068 1069 1070
f 1071 1072 1073
f 1074 1075 1076
f 1077 1078 1079
f 1080 1081 1082
f 1083 1084 1085
f 1086 1087 1088
f 1089 1090 1091
f 1092 1093 1094
f 1095 1096 1097
f 1098 1099 1100
f 1101 1102 1103
f 1104 1105 1106
f 1107 1108 1109
f 1110 1111 1112
f 1113 1114 1115
f 1116 1117 1118
f 1119 1120 1121
f 1122 1123 1124
f 1125 1126 1127
f 1128 1129 1130
f 1131 1132 1133
f 1134 1135 1136
f 1137 1138 1139
f 1140 1141 1142
f 1143 1144 1145
f 1146 1147 1148
f 1149 1150 1151
f 1152 1153 1154
f 1155 1156 1157
f 1158 1159 1160
f 1161 1162 1163
f 1164 1165 1166
f 1167 1168 1169
f 1169 1168 1170
f 1171 1172 1173
f 1174 1175 1176
f 1177 73 72
f 990 1178 988
f 1179 1180 1181
f 1182 1183 1184
f 1185 1186 1187
f 1188 1189 1190
f 1191 1192 1193
f 1194 1195 1196
f 1197 1198 1199
f 1200 1201 1202
f 1203 1204 1205
f 1206 1207 1208
f 1209 1210 1211
f 1212 1213 1214
f 1215 1216 1217
f 1218 1219 1220
f 1218 1220 1221
f 1222 1223 1224
f 1225 1226 1227
f 1228 112 111

