# https://github.com/mikedh/trimesh

o forearm_collision_E3M5-mesh
v -13.11653042 -65.92442322 164.88929749
v -20.45977974 -71.90862274 156.50689697
v -6.89824677 -74.44371033 156.50689697
v 6.89820099 -74.44371033 156.50689697
v -0.00002289 -67.21208191 164.88929749
v -6.89824677 -74.44371033 156.50689697
v -6.22813416 -67.21208191 164.88929749
v -6.22813416 -67.21208191 164.88929749
v -0.00002289 -67.21208191 125.61779785
v 6.89820099 -74.44371033 156.50689697
v -6.89824677 -74.44371033 156.50689697
v -20.45977974 -71.90862274 156.50689697
v -13.11653042 -65.92442322 125.61779785
v -6.89824677 -74.44371033 156.50689697
v -6.22813416 -67.21208191 125.61779785
v -6.22813416 -67.21208191 125.61779785
v 20.45973969 -71.90862274 156.50689697
v 13.11649036 -65.92442322 164.88929749
v 6.89820099 -74.44371033 156.50689697
v 6.22809601 -67.21208191 164.88929749
v 6.22809601 -67.21208191 164.88929749
v 13.11649036 -65.92442322 125.61779785
v 20.45973969 -71.90862274 156.50689697
v 6.89820099 -74.44371033 156.50689697
v 6.22809601 -67.21208191 125.61779785
v 6.22809601 -67.21208191 125.61779785
v -25.73364067 -62.11017990 164.88929749
v -33.32458115 -66.92476654 156.50689697
v -20.45977974 -71.90862274 156.50689697
v -18.47228050 -64.92326355 164.88929749
v -18.47228050 -64.92326355 164.88929749
v -33.32458115 -66.92476654 156.50689697
v -25.73364067 -62.11017990 125.61779785
v -20.45977974 -71.90862274 156.50689697
v -18.47228050 -64.92326355 125.61779785
v -18.47228050 -64.92326355 125.61779785
v 33.32453918 -66.92476654 156.50689697
v 25.73360062 -62.11017990 164.88929749
v 20.45973969 -71.90862274 156.50689697
v 18.47223091 -64.92326355 164.88929749
v 18.47223091 -64.92326355 164.88929749
v 25.73360062 -62.11017990 125.61779785
v 33.32453918 -66.92476654 156.50689697
v 20.45973969 -71.90862274 156.50689697
v 18.47223091 -64.92326355 125.61779785
v 18.47223091 -64.92326355 125.61779785
v -6.22813416 -67.21208191 125.61779785
v -13.16862011 -66.20303345 -0.00000405
v -0.00002289 -67.50003052 -0.00000405
v 13.16856956 -66.20303345 -0.00000405
v 6.22809601 -67.21208191 125.61779785
v -0.00002289 -67.50003052 -0.00000405
v 6.22809601 -67.21208191 125.61779785
v -0.00002289 -67.21208191 125.61779785
v -0.00002289 -67.50003052 -0.00000405
v -6.22813416 -67.21208191 125.61779785
v -0.00002289 -0.00002289 -0.00000405
v 13.16856956 -66.20303345 -0.00000405
v -0.00002289 -67.50003052 -0.00000405
v -13.16862011 -66.20303345 -0.00000405
v -13.16862011 -66.20303345 182.80000305
v -6.22813416 -67.21208191 164.88929749
v -0.00002289 -67.50003052 182.80000305
v -6.22813416 -67.21208191 164.88929749
v -0.00002289 -67.21208191 164.88929749
v -0.00002289 -67.50003052 182.80000305
v 6.22809601 -67.21208191 164.88929749
v 6.22809601 -67.21208191 164.88929749
v 13.16856956 -66.20303345 182.80000305
v -0.00002289 -67.50003052 182.80000305
v -0.00002289 -0.00002289 182.80000305
v -13.16862011 -66.20303345 182.80000305
v -0.00002289 -67.50003052 182.80000305
v 13.16856956 -66.20303345 182.80000305
v -13.11653042 -65.92442322 125.61779785
v -13.16862011 -66.20303345 -0.00000405
v -6.22813416 -67.21208191 125.61779785
v 13.16856956 -66.20303345 -0.00000405
v 13.11649036 -65.92442322 125.61779785
v 6.22809601 -67.21208191 125.61779785
v -13.16862011 -66.20303345 182.80000305
v -13.11653042 -65.92442322 164.88929749
v -6.22813416 -67.21208191 164.88929749
v 13.11649036 -65.92442322 164.88929749
v 13.16856956 -66.20303345 182.80000305
v 6.22809601 -67.21208191 164.88929749
v -37.37076187 -55.91384888 164.88929749
v -45.05456161 -59.66186905 156.50689697
v -33.32458115 -66.92476654 156.50689697
v -30.08736038 -60.42353821 164.88929749
v -30.08736038 -60.42353821 164.88929749
v -45.05456161 -59.66186905 156.50689697
v -37.37076187 -55.91384888 125.61779785
v -33.32458115 -66.92476654 156.50689697
v -30.08736038 -60.42353821 125.61779785
v -30.08736038 -60.42353821 125.61779785
v 45.05450821 -59.66186905 156.50689697
v 37.37071991 -55.91384888 164.88929749
v 33.32453918 -66.92476654 156.50689697
v 30.08732033 -60.42353821 164.88929749
v 30.08732033 -60.42353821 164.88929749
v 37.37071991 -55.91384888 125.61779785
v 45.05450821 -59.66186905 156.50689697
v 33.32453918 -66.92476654 156.50689697
v 30.08732033 -60.42353821 125.61779785
v 30.08732033 -60.42353821 125.61779785
v -18.47228050 -64.92326355 125.61779785
v -25.83115005 -62.36188889 -0.00000405
v -13.16862011 -66.20303345 -0.00000405
v -18.47228050 -64.92326355 125.61779785
v -25.83115005 -62.36188889 -0.00000405
v 25.83111000 -62.36188889 -0.00000405
v 18.47223091 -64.92326355 125.61779785
v 13.16856956 -66.20303345 -0.00000405
v 18.47223091 -64.92326355 125.61779785
v 25.83111000 -62.36188889 -0.00000405
v -25.83115005 -62.36188889 182.80000305
v -25.83115005 -62.36188889 182.80000305
v -18.47228050 -64.92326355 164.88929749
v -13.16862011 -66.20303345 182.80000305
v -18.47228050 -64.92326355 164.88929749
v 25.83111000 -62.36188889 182.80000305
v 18.47223091 -64.92326355 164.88929749
v 18.47223091 -64.92326355 164.88929749
v 25.83111000 -62.36188889 182.80000305
v 13.16856956 -66.20303345 182.80000305
v -25.73364067 -62.11017990 125.61779785
v -25.83115005 -62.36188889 -0.00000405
v -18.47228050 -64.92326355 125.61779785
v 25.83111000 -62.36188889 -0.00000405
v 25.73360062 -62.11017990 125.61779785
v 18.47223091 -64.92326355 125.61779785
v -25.83115005 -62.36188889 182.80000305
v -25.73364067 -62.11017990 164.88929749
v -18.47228050 -64.92326355 164.88929749
v 25.73360062 -62.11017990 164.88929749
v 25.83111000 -62.36188889 182.80000305
v 18.47223091 -64.92326355 164.88929749
v -30.08736038 -60.42353821 125.61779785
v -37.50101089 -56.12422180 -0.00000405
v -25.83115005 -62.36188889 -0.00000405
v -30.08736038 -60.42353821 125.61779785
v -37.50101089 -56.12422180 -0.00000405
v 37.50096893 -56.12422180 -0.00000405
v 30.08732033 -60.42353821 125.61779785
v 25.83111000 -62.36188889 -0.00000405
v 30.08732033 -60.42353821 125.61779785
v 37.50096893 -56.12422180 -0.00000405
v -37.50101089 -56.12422180 182.80000305
v -37.50101089 -56.12422180 182.80000305
v -30.08736038 -60.42353821 164.88929749
v -25.83115005 -62.36188889 182.80000305
v -30.08736038 -60.42353821 164.88929749
v 37.50096893 -56.12422180 182.80000305
v 30.08732033 -60.42353821 164.88929749
v 30.08732033 -60.42353821 164.88929749
v 37.50096893 -56.12422180 182.80000305
v 25.83111000 -62.36188889 182.80000305
v -37.37076187 -55.91384888 125.61779785
v -37.50101089 -56.12422180 -0.00000405
v -30.08736038 -60.42353821 125.61779785
v 37.50096893 -56.12422180 -0.00000405
v 37.37071991 -55.91384888 125.61779785
v 30.08732033 -60.42353821 125.61779785
v -37.50101089 -56.12422180 182.80000305
v -37.37076187 -55.91384888 164.88929749
v -30.08736038 -60.42353821 164.88929749
v 37.37071991 -55.91384888 164.88929749
v 37.50096893 -56.12422180 182.80000305
v 30.08732033 -60.42353821 164.88929749
v -47.58427048 -47.57015991 164.88929749
v -55.25025177 -50.36725998 156.50689697
v -45.05456161 -59.66186905 156.50689697
v -40.67786026 -53.86618042 164.88929749
v -40.67786026 -53.86618042 164.88929749
v -55.25025177 -50.36725998 156.50689697
v -47.58427048 -47.57015991 125.61779785
v -45.05456161 -59.66186905 156.50689697
v -40.67786026 -53.86618042 125.61779785
v -40.67786026 -53.86618042 125.61779785
v 55.25019836 -50.36725998 156.50689697
v 47.58422089 -47.57015991 164.88929749
v 45.05450821 -59.66186905 156.50689697
v 40.67781830 -53.86618042 164.88929749
v 40.67781830 -53.86618042 164.88929749
v 47.58422089 -47.57015991 125.61779785
v 55.25019836 -50.36725998 156.50689697
v 45.05450821 -59.66186905 156.50689697
v 40.67781830 -53.86618042 125.61779785
v 40.67781830 -53.86618042 125.61779785
v -40.67786026 -53.86618042 125.61779785
v -47.72972870 -47.72972870 -0.00000405
v -37.50101089 -56.12422180 -0.00000405
v -40.67786026 -53.86618042 125.61779785
v -47.72972870 -47.72972870 -0.00000405
v 47.72967911 -47.72972870 -0.00000405
v 40.67781830 -53.86618042 125.61779785
v 37.50096893 -56.12422180 -0.00000405
v 40.67781830 -53.86618042 125.61779785
v 47.72967911 -47.72972870 -0.00000405
v -47.72972870 -47.72972870 182.80000305
v -47.72972870 -47.72972870 182.80000305
v -40.67786026 -53.86618042 164.88929749
v -37.50101089 -56.12422180 182.80000305
v -40.67786026 -53.86618042 164.88929749
v 47.72967911 -47.72972870 182.80000305
v 40.67781830 -53.86618042 164.88929749
v 40.67781830 -53.86618042 164.88929749
v 47.72967911 -47.72972870 182.80000305
v 37.50096893 -56.12422180 182.80000305
v -47.58427048 -47.57015991 125.61779785
v -47.72972870 -47.72972870 -0.00000405
v -40.67786026 -53.86618042 125.61779785
v 47.72967911 -47.72972870 -0.00000405
v 47.58422089 -47.57015991 125.61779785
v 40.67781830 -53.86618042 125.61779785
v -47.72972870 -47.72972870 182.80000305
v -47.58427048 -47.57015991 164.88929749
v -40.67786026 -53.86618042 164.88929749
v 47.58422089 -47.57015991 164.88929749
v 47.72967911 -47.72972870 182.80000305
v 40.67781830 -53.86618042 164.88929749
v -55.98424149 -37.39530182 164.88929749
v -63.56446838 -39.35746002 156.50689697
v -55.25025177 -50.36725998 156.50689697
v -49.88312149 -45.47446823 164.88929749
v -49.88312149 -45.47446823 164.88929749
v -63.56446838 -39.35746002 156.50689697
v -55.98424149 -37.39530182 125.61779785
v -55.25025177 -50.36725998 156.50689697
v -49.88312149 -45.47446823 125.61779785
v -49.88312149 -45.47446823 125.61779785
v 63.56443024 -39.35746002 156.50689697
v 55.98419952 -37.39530182 164.88929749
v 55.25019836 -50.36725998 156.50689697
v 49.88307953 -45.47446823 164.88929749
v 49.88307953 -45.47446823 164.88929749
v 55.98419952 -37.39530182 125.61779785
v 63.56443024 -39.35746002 156.50689697
v 55.25019836 -50.36725998 156.50689697
v 49.88307953 -45.47446823 125.61779785
v 49.88307953 -45.47446823 125.61779785
v -49.88312149 -45.47446823 125.61779785
v -56.12422180 -37.50101089 -0.00000405
v -47.72972870 -47.72972870 -0.00000405
v -49.88312149 -45.47446823 125.61779785
v -56.12422180 -37.50101089 -0.00000405
v 56.12417984 -37.50101089 -0.00000405
v 49.88307953 -45.47446823 125.61779785
v 47.72967911 -47.72972870 -0.00000405
v 49.88307953 -45.47446823 125.61779785
v 56.12417984 -37.50101089 -0.00000405
v -56.12422180 -37.50101089 182.80000305
v -56.12422180 -37.50101089 182.80000305
v -49.88312149 -45.47446823 164.88929749
v -47.72972870 -47.72972870 182.80000305
v -49.88312149 -45.47446823 164.88929749
v 56.12417984 -37.50101089 182.80000305
v 49.88307953 -45.47446823 164.88929749
v 49.88307953 -45.47446823 164.88929749
v 56.12417984 -37.50101089 182.80000305
v 47.72967911 -47.72972870 182.80000305
v -55.98424149 -37.39530182 125.61779785
v -56.12422180 -37.50101089 -0.00000405
v -49.88312149 -45.47446823 125.61779785
v 56.12417984 -37.50101089 -0.00000405
v 55.98419952 -37.39530182 125.61779785
v 49.88307953 -45.47446823 125.61779785
v -56.12422180 -37.50101089 182.80000305
v -55.98424149 -37.39530182 164.88929749
v -49.88312149 -45.47446823 164.88929749
v 55.98419952 -37.39530182 164.88929749
v 56.12417984 -37.50101089 182.80000305
v 49.88307953 -45.47446823 164.88929749
v -62.24916840 -25.77503014 164.88929749
v -69.71408081 -27.00738907 156.50689697
v -63.56446838 -39.35746002 156.50689697
v -57.38967896 -35.53419113 164.88929749
v -57.38967896 -35.53419113 164.88929749
v -69.71408081 -27.00738907 156.50689697
v -62.24916840 -25.77503014 125.61779785
v -63.56446838 -39.35746002 156.50689697
v -57.38967896 -35.53419113 125.61779785
v -57.38967896 -35.53419113 125.61779785
v 69.71402740 -27.00738907 156.50689697
v 62.24911880 -25.77503014 164.88929749
v 63.56443024 -39.35746002 156.50689697
v 57.38964081 -35.53419113 164.88929749
v 57.38964081 -35.53419113 164.88929749
v 62.24911880 -25.77503014 125.61779785
v 69.71402740 -27.00738907 156.50689697
v 63.56443024 -39.35746002 156.50689697
v 57.38964081 -35.53419113 125.61779785
v 57.38964081 -35.53419113 125.61779785
v -57.38967896 -35.53419113 125.61779785
v -62.36188889 -25.83115005 -0.00000405
v -56.12422180 -37.50101089 -0.00000405
v -57.38967896 -35.53419113 125.61779785
v -62.36188889 -25.83115005 -0.00000405
v 62.36185074 -25.83115005 -0.00000405
v 57.38964081 -35.53419113 125.61779785
v 56.12417984 -37.50101089 -0.00000405
v 57.38964081 -35.53419113 125.61779785
v 62.36185074 -25.83115005 -0.00000405
v -62.36188889 -25.83115005 182.80000305
v -62.36188889 -25.83115005 182.80000305
v -57.38967896 -35.53419113 164.88929749
v -56.12422180 -37.50101089 182.80000305
v -57.38967896 -35.53419113 164.88929749
v 62.36185074 -25.83115005 182.80000305
v 57.38964081 -35.53419113 164.88929749
v 57.38964081 -35.53419113 164.88929749
v 62.36185074 -25.83115005 182.80000305
v 56.12417984 -37.50101089 182.80000305
v -62.24916840 -25.77503014 125.61779785
v -62.36188889 -25.83115005 -0.00000405
v -57.38967896 -35.53419113 125.61779785
v 62.36185074 -25.83115005 -0.00000405
v 62.24911880 -25.77503014 125.61779785
v 57.38964081 -35.53419113 125.61779785
v -62.36188889 -25.83115005 182.80000305
v -62.24916840 -25.77503014 164.88929749
v -57.38967896 -35.53419113 164.88929749
v 62.24911880 -25.77503014 164.88929749
v 62.36185074 -25.83115005 182.80000305
v 57.38964081 -35.53419113 164.88929749
v -66.13816071 -13.15015984 164.88929749
v -73.48966217 -13.73760986 156.50689697
v -69.71408081 -27.00738907 156.50689697
v -62.94189835 -24.38384056 164.88929749
v -62.94189835 -24.38384056 164.88929749
v -73.48966217 -13.73760986 156.50689697
v -66.13816071 -13.15015984 125.61779785
v -69.71408081 -27.00738907 156.50689697
v -62.94189835 -24.38384056 125.61779785
v -62.94189835 -24.38384056 125.61779785
v 73.48961639 -13.73760986 156.50689697
v 66.13812256 -13.15015984 164.88929749
v 69.71402740 -27.00738907 156.50689697
v 62.94186020 -24.38384056 164.88929749
v 62.94186020 -24.38384056 164.88929749
v 66.13812256 -13.15015984 125.61779785
v 73.48961639 -13.73760986 156.50689697
v 69.71402740 -27.00738907 156.50689697
v 62.94186020 -24.38384056 125.61779785
v 62.94186020 -24.38384056 125.61779785
v -62.94189835 -24.38384056 125.61779785
v -66.20303345 -13.16862011 -0.00000405
v -62.36188889 -25.83115005 -0.00000405
v -62.94189835 -24.38384056 125.61779785
v -66.20303345 -13.16862011 -0.00000405
v 66.20298004 -13.16862011 -0.00000405
v 62.94186020 -24.38384056 125.61779785
v 62.36185074 -25.83115005 -0.00000405
v 62.94186020 -24.38384056 125.61779785
v 66.20298004 -13.16862011 -0.00000405
v -66.20303345 -13.16862011 182.80000305
v -66.20303345 -13.16862011 182.80000305
v -62.94189835 -24.38384056 164.88929749
v -62.36188889 -25.83115005 182.80000305
v -62.94189835 -24.38384056 164.88929749
v 66.20298004 -13.16862011 182.80000305
v 62.94186020 -24.38384056 164.88929749
v 62.94186020 -24.38384056 164.88929749
v 66.20298004 -13.16862011 182.80000305
v 62.36185074 -25.83115005 182.80000305
v -66.13816071 -13.15015984 125.61779785
v -66.20303345 -13.16862011 -0.00000405
v -62.94189835 -24.38384056 125.61779785
v 66.20298004 -13.16862011 -0.00000405
v 66.13812256 -13.15015984 125.61779785
v 62.94186020 -24.38384056 125.61779785
v -66.20303345 -13.16862011 182.80000305
v -66.13816071 -13.15015984 164.88929749
v -62.94189835 -24.38384056 164.88929749
v 66.13812256 -13.15015984 164.88929749
v 66.20298004 -13.16862011 182.80000305
v 62.94186020 -24.38384056 164.88929749
v -66.35070801 -12.40310955 164.88929749
v -66.35070801 -12.40310955 164.88929749
v -67.50003052 -0.00002289 164.88929749
v -73.48966217 -13.73760986 156.50689697
v -74.76262665 -0.00002289 156.50689697
v -74.76262665 -0.00002289 156.50689697
v -66.35070801 -12.40310955 125.61779785
v -73.48966217 -13.73760986 156.50689697
v -66.35070801 -12.40310955 125.61779785
v 74.76258087 -0.00002289 156.50689697
v 66.35066223 -12.40310955 164.88929749
v 73.48961639 -13.73760986 156.50689697
v 66.35066223 -12.40310955 164.88929749
v 66.35066223 -12.40310955 125.61779785
v 66.35066223 -12.40310955 125.61779785
v 67.49997711 -0.00002289 125.61779785
v 73.48961639 -13.73760986 156.50689697
v 74.76258087 -0.00002289 156.50689697
v -66.35070801 -12.40310955 125.61779785
v -67.50003052 -0.00002289 -0.00000405
v -66.20303345 -13.16862011 -0.00000405
v -66.35070801 -12.40310955 125.61779785
v -67.50003052 -0.00002289 -0.00000405
v 67.49997711 -0.00002289 -0.00000405
v 66.35066223 -12.40310955 125.61779785
v 66.20298004 -13.16862011 -0.00000405
v 66.35066223 -12.40310955 125.61779785
v 67.49997711 -0.00002289 -0.00000405
v -67.50003052 -0.00002289 182.80000305
v -67.50003052 -0.00002289 182.80000305
v -66.35070801 -12.40310955 164.88929749
v -66.20303345 -13.16862011 182.80000305
v -66.35070801 -12.40310955 164.88929749
v 67.49997711 -0.00002289 182.80000305
v 66.35066223 -12.40310955 164.88929749
v 66.35066223 -12.40310955 164.88929749
v 67.49997711 -0.00002289 182.80000305
v 66.20298004 -13.16862011 182.80000305
v -67.50003052 -0.00002289 125.61779785
v -67.50003052 -0.00002289 -0.00000405
v -66.35070801 -12.40310955 125.61779785
v -67.50003052 -0.00002289 125.61779785
v 67.49997711 -0.00002289 -0.00000405
v 67.49997711 -0.00002289 125.61779785
v 66.35066223 -12.40310955 125.61779785
v -67.50003052 -0.00002289 182.80000305
v -67.50003052 -0.00002289 164.88929749
v -66.35070801 -12.40310955 164.88929749
v 67.49997711 -0.00002289 164.88929749
v 67.49997711 -0.00002289 182.80000305
v 66.35066223 -12.40310955 164.88929749
v 67.49997711 -0.00002289 164.88929749
v -73.48966217 13.73756981 156.50689697
v -67.50003052 -0.00002289 125.61779785
v -74.76262665 -0.00002289 156.50689697
v 73.48961639 13.73756981 156.50689697
v 67.49997711 -0.00002289 164.88929749
v 74.76258087 -0.00002289 156.50689697
v -66.35070801 12.40307045 125.61779785
v 66.35066223 12.40307045 164.88929749
v -66.20303345 13.16856956 -0.00000405
v -67.50003052 -0.00002289 125.61779785
v -66.35070801 12.40307045 125.61779785
v -67.50003052 -0.00002289 -0.00000405
v -66.35070801 12.40307045 125.61779785
v -66.20303345 13.16856956 -0.00000405
v -67.50003052 -0.00002289 -0.00000405
v 56.12417984 37.50096893 -0.00000405
v 62.36185074 25.83111000 -0.00000405
v 66.20298004 13.16856956 -0.00000405
v 25.83111000 62.36185074 -0.00000405
v 37.50096893 56.12417984 -0.00000405
v 47.72967911 47.72967911 -0.00000405
v -13.16862011 66.20298004 -0.00000405
v -0.00002289 67.49997711 -0.00000405
v 13.16856956 66.20298004 -0.00000405
v -47.72972870 47.72967911 -0.00000405
v -37.50101089 56.12417984 -0.00000405
v -25.83115005 62.36185074 -0.00000405
v -62.36188889 25.83111000 -0.00000405
v -56.12422180 37.50096893 -0.00000405
v 66.35066223 12.40307045 125.61779785
v 74.76258087 -0.00002289 156.50689697
v 67.49997711 -0.00002289 125.61779785
v -67.50003052 -0.00002289 164.88929749
v -66.35070801 12.40307045 164.88929749
v -74.76262665 -0.00002289 156.50689697
v -73.48966217 13.73756981 156.50689697
v 73.48961639 13.73756981 156.50689697
v -67.50003052 -0.00002289 182.80000305
v -66.35070801 12.40307045 164.88929749
v -67.50003052 -0.00002289 164.88929749
v -66.20303345 13.16856956 182.80000305
v -66.20303345 13.16856956 182.80000305
v -66.35070801 12.40307045 164.88929749
v -67.50003052 -0.00002289 182.80000305
v -47.72972870 47.72967911 182.80000305
v -56.12422180 37.50096893 182.80000305
v -62.36188889 25.83111000 182.80000305
v -13.16862011 66.20298004 182.80000305
v -25.83115005 62.36185074 182.80000305
v -37.50101089 56.12417984 182.80000305
v 25.83111000 62.36185074 182.80000305
v 13.16856956 66.20298004 182.80000305
v -0.00002289 67.49997711 182.80000305
v 56.12417984 37.50096893 182.80000305
v 47.72967911 47.72967911 182.80000305
v 37.50096893 56.12417984 182.80000305
v 66.20298004 13.16856956 182.80000305
v 62.36185074 25.83111000 182.80000305
v 66.20298004 13.16856956 -0.00000405
v 66.35066223 12.40307045 125.61779785
v 67.49997711 -0.00002289 -0.00000405
v 66.35066223 12.40307045 125.61779785
v 67.49997711 -0.00002289 125.61779785
v 67.49997711 -0.00002289 -0.00000405
v 66.35066223 12.40307045 164.88929749
v 67.49997711 -0.00002289 182.80000305
v 67.49997711 -0.00002289 164.88929749
v 66.35066223 12.40307045 164.88929749
v 66.20298004 13.16856956 182.80000305
v 67.49997711 -0.00002289 182.80000305
v -66.13816071 13.15011978 125.61779785
v -66.20303345 13.16856956 -0.00000405
v -66.35070801 12.40307045 125.61779785
v -73.48966217 13.73756981 156.50689697
v -66.13816071 13.15011978 125.61779785
v -66.35070801 12.40307045 125.61779785
v 66.20298004 13.16856956 -0.00000405
v 66.13812256 13.15011978 125.61779785
v 66.35066223 12.40307045 125.61779785
v 66.13812256 13.15011978 125.61779785
v 73.48961639 13.73756981 156.50689697
v 66.35066223 12.40307045 125.61779785
v -66.20303345 13.16856956 182.80000305
v -66.13816071 13.15011978 164.88929749
v -66.35070801 12.40307045 164.88929749
v -66.13816071 13.15011978 164.88929749
v -73.48966217 13.73756981 156.50689697
v -66.35070801 12.40307045 164.88929749
v 66.13812256 13.15011978 164.88929749
v 66.20298004 13.16856956 182.80000305
v 66.35066223 12.40307045 164.88929749
v 73.48961639 13.73756981 156.50689697
v 66.13812256 13.15011978 164.88929749
v 66.35066223 12.40307045 164.88929749
v -62.94189835 24.38378906 125.61779785
v -69.71408081 27.00735092 156.50689697
v -62.94189835 24.38378906 125.61779785
v 62.94186020 24.38378906 125.61779785
v 69.71402740 27.00735092 156.50689697
v 62.94186020 24.38378906 125.61779785
v -62.94189835 24.38378906 164.88929749
v -69.71408081 27.00735092 156.50689697
v -62.94189835 24.38378906 164.88929749
v 62.94186020 24.38378906 164.88929749
v 69.71402740 27.00735092 156.50689697
v 62.94186020 24.38378906 164.88929749
v -62.94189835 24.38378906 125.61779785
v -62.36188889 25.83111000 -0.00000405
v -66.20303345 13.16856956 -0.00000405
v 62.36185074 25.83111000 -0.00000405
v 62.94186020 24.38378906 125.61779785
v 66.20298004 13.16856956 -0.00000405
v -62.36188889 25.83111000 182.80000305
v -62.94189835 24.38378906 164.88929749
v -66.20303345 13.16856956 182.80000305
v 62.94186020 24.38378906 164.88929749
v 62.36185074 25.83111000 182.80000305
v 66.20298004 13.16856956 182.80000305
v -62.24916840 25.77498055 125.61779785
v -62.36188889 25.83111000 -0.00000405
v -62.94189835 24.38378906 125.61779785
v -69.71408081 27.00735092 156.50689697
v -62.24916840 25.77498055 125.61779785
v -62.94189835 24.38378906 125.61779785
v 62.36185074 25.83111000 -0.00000405
v 62.24911880 25.77498055 125.61779785
v 62.94186020 24.38378906 125.61779785
v 62.24911880 25.77498055 125.61779785
v 69.71402740 27.00735092 156.50689697
v 62.94186020 24.38378906 125.61779785
v -62.36188889 25.83111000 182.80000305
v -62.24916840 25.77498055 164.88929749
v -62.94189835 24.38378906 164.88929749
v -62.24916840 25.77498055 164.88929749
v -69.71408081 27.00735092 156.50689697
v -62.94189835 24.38378906 164.88929749
v 62.24911880 25.77498055 164.88929749
v 62.36185074 25.83111000 182.80000305
v 62.94186020 24.38378906 164.88929749
v 69.71402740 27.00735092 156.50689697
v 62.24911880 25.77498055 164.88929749
v 62.94186020 24.38378906 164.88929749
v -57.38967896 35.53414917 125.61779785
v -63.56446838 39.35742188 156.50689697
v -57.38967896 35.53414917 125.61779785
v 57.38964081 35.53414917 125.61779785
v 63.56443024 39.35742188 156.50689697
v 57.38964081 35.53414917 125.61779785
v -57.38967896 35.53414917 164.88929749
v -63.56446838 39.35742188 156.50689697
v -57.38967896 35.53414917 164.88929749
v 57.38964081 35.53414917 164.88929749
v 63.56443024 39.35742188 156.50689697
v 57.38964081 35.53414917 164.88929749
v -57.38967896 35.53414917 125.61779785
v -56.12422180 37.50096893 -0.00000405
v -62.36188889 25.83111000 -0.00000405
v 56.12417984 37.50096893 -0.00000405
v 57.38964081 35.53414917 125.61779785
v 62.36185074 25.83111000 -0.00000405
v -56.12422180 37.50096893 182.80000305
v -57.38967896 35.53414917 164.88929749
v -62.36188889 25.83111000 182.80000305
v 57.38964081 35.53414917 164.88929749
v 56.12417984 37.50096893 182.80000305
v 62.36185074 25.83111000 182.80000305
v -55.98424149 37.39524841 125.61779785
v -56.12422180 37.50096893 -0.00000405
v -57.38967896 35.53414917 125.61779785
v -63.56446838 39.35742188 156.50689697
v -55.98424149 37.39524841 125.61779785
v -57.38967896 35.53414917 125.61779785
v 56.12417984 37.50096893 -0.00000405
v 55.98419952 37.39524841 125.61779785
v 57.38964081 35.53414917 125.61779785
v 55.98419952 37.39524841 125.61779785
v 63.56443024 39.35742188 156.50689697
v 57.38964081 35.53414917 125.61779785
v -56.12422180 37.50096893 182.80000305
v -55.98424149 37.39524841 164.88929749
v -57.38967896 35.53414917 164.88929749
v -55.98424149 37.39524841 164.88929749
v -63.56446838 39.35742188 156.50689697
v -57.38967896 35.53414917 164.88929749
v 55.98419952 37.39524841 164.88929749
v 56.12417984 37.50096893 182.80000305
v 57.38964081 35.53414917 164.88929749
v 63.56443024 39.35742188 156.50689697
v 55.98419952 37.39524841 164.88929749
v 57.38964081 35.53414917 164.88929749
v -49.88312149 45.47443008 125.61779785
v -55.25025177 50.36722183 156.50689697
v -49.88312149 45.47443008 125.61779785
v 49.88307953 45.47443008 125.61779785
v 55.25019836 50.36722183 156.50689697
v 49.88307953 45.47443008 125.61779785
v -49.88312149 45.47443008 164.88929749
v -55.25025177 50.36722183 156.50689697
v -49.88312149 45.47443008 164.88929749
v 49.88307953 45.47443008 164.88929749
v 55.25019836 50.36722183 156.50689697
v 49.88307953 45.47443008 164.88929749
v -49.88312149 45.47443008 125.61779785
v -47.72972870 47.72967911 -0.00000405
v -56.12422180 37.50096893 -0.00000405
v 47.72967911 47.72967911 -0.00000405
v 49.88307953 45.47443008 125.61779785
v 56.12417984 37.50096893 -0.00000405
v -47.72972870 47.72967911 182.80000305
v -49.88312149 45.47443008 164.88929749
v -56.12422180 37.50096893 182.80000305
v 49.88307953 45.47443008 164.88929749
v 47.72967911 47.72967911 182.80000305
v 56.12417984 37.50096893 182.80000305
v -47.58427048 47.57012177 125.61779785
v -47.72972870 47.72967911 -0.00000405
v -49.88312149 45.47443008 125.61779785
v -55.25025177 50.36722183 156.50689697
v -47.58427048 47.57012177 125.61779785
v -49.88312149 45.47443008 125.61779785
v 47.72967911 47.72967911 -0.00000405
v 47.58422089 47.57012177 125.61779785
v 49.88307953 45.47443008 125.61779785
v 47.58422089 47.57012177 125.61779785
v 55.25019836 50.36722183 156.50689697
v 49.88307953 45.47443008 125.61779785
v -47.72972870 47.72967911 182.80000305
v -47.58427048 47.57012177 164.88929749
v -49.88312149 45.47443008 164.88929749
v -47.58427048 47.57012177 164.88929749
v -55.25025177 50.36722183 156.50689697
v -49.88312149 45.47443008 164.88929749
v 47.58422089 47.57012177 164.88929749
v 47.72967911 47.72967911 182.80000305
v 49.88307953 45.47443008 164.88929749
v 55.25019836 50.36722183 156.50689697
v 47.58422089 47.57012177 164.88929749
v 49.88307953 45.47443008 164.88929749
v -40.67786026 53.86613846 125.61779785
v -45.05456161 59.66183090 156.50689697
v -40.67786026 53.86613846 125.61779785
v 40.67781830 53.86613846 125.61779785
v 45.05450821 59.66183090 156.50689697
v 40.67781830 53.86613846 125.61779785
v -40.67786026 53.86613846 164.88929749
v -45.05456161 59.66183090 156.50689697
v -40.67786026 53.86613846 164.88929749
v 40.67781830 53.86613846 164.88929749
v 45.05450821 59.66183090 156.50689697
v 40.67781830 53.86613846 164.88929749
v -40.67786026 53.86613846 125.61779785
v -37.50101089 56.12417984 -0.00000405
v -47.72972870 47.72967911 -0.00000405
v 37.50096893 56.12417984 -0.00000405
v 40.67781830 53.86613846 125.61779785
v 47.72967911 47.72967911 -0.00000405
v -37.50101089 56.12417984 182.80000305
v -40.67786026 53.86613846 164.88929749
v -47.72972870 47.72967911 182.80000305
v 40.67781830 53.86613846 164.88929749
v 37.50096893 56.12417984 182.80000305
v 47.72967911 47.72967911 182.80000305
v -37.37076187 55.91381073 125.61779785
v -37.50101089 56.12417984 -0.00000405
v -40.67786026 53.86613846 125.61779785
v -45.05456161 59.66183090 156.50689697
v -37.37076187 55.91381073 125.61779785
v -40.67786026 53.86613846 125.61779785
v 37.50096893 56.12417984 -0.00000405
v 37.37071991 55.91381073 125.61779785
v 40.67781830 53.86613846 125.61779785
v 37.37071991 55.91381073 125.61779785
v 45.05450821 59.66183090 156.50689697
v 40.67781830 53.86613846 125.61779785
v -37.50101089 56.12417984 182.80000305
v -37.37076187 55.91381073 164.88929749
v -40.67786026 53.86613846 164.88929749
v -37.37076187 55.91381073 164.88929749
v -45.05456161 59.66183090 156.50689697
v -40.67786026 53.86613846 164.88929749
v 37.37071991 55.91381073 164.88929749
v 37.50096893 56.12417984 182.80000305
v 40.67781830 53.86613846 164.88929749
v 45.05450821 59.66183090 156.50689697
v 37.37071991 55.91381073 164.88929749
v 40.67781830 53.86613846 164.88929749
v -30.08736038 60.42350006 125.61779785
v -33.32458115 66.92472076 156.50689697
v -30.08736038 60.42350006 125.61779785
v 30.08732033 60.42350006 125.61779785
v 33.32453918 66.92472076 156.50689697
v 30.08732033 60.42350006 125.61779785
v -30.08736038 60.42350006 164.88929749
v -33.32458115 66.92472076 156.50689697
v -30.08736038 60.42350006 164.88929749
v 30.08732033 60.42350006 164.88929749
v 33.32453918 66.92472076 156.50689697
v 30.08732033 60.42350006 164.88929749
v -30.08736038 60.42350006 125.61779785
v -25.83115005 62.36185074 -0.00000405
v -37.50101089 56.12417984 -0.00000405
v 25.83111000 62.36185074 -0.00000405
v 30.08732033 60.42350006 125.61779785
v 37.50096893 56.12417984 -0.00000405
v -25.83115005 62.36185074 182.80000305
v -30.08736038 60.42350006 164.88929749
v -37.50101089 56.12417984 182.80000305
v 30.08732033 60.42350006 164.88929749
v 25.83111000 62.36185074 182.80000305
v 37.50096893 56.12417984 182.80000305
v -25.73364067 62.11014175 125.61779785
v -25.83115005 62.36185074 -0.00000405
v -30.08736038 60.42350006 125.61779785
v -33.32458115 66.92472076 156.50689697
v -25.73364067 62.11014175 125.61779785
v -30.08736038 60.42350006 125.61779785
v 25.83111000 62.36185074 -0.00000405
v 25.73360062 62.11014175 125.61779785
v 30.08732033 60.42350006 125.61779785
v 25.73360062 62.11014175 125.61779785
v 33.32453918 66.92472076 156.50689697
v 30.08732033 60.42350006 125.61779785
v -25.83115005 62.36185074 182.80000305
v -25.73364067 62.11014175 164.88929749
v -30.08736038 60.42350006 164.88929749
v -25.73364067 62.11014175 164.88929749
v -33.32458115 66.92472076 156.50689697
v -30.08736038 60.42350006 164.88929749
v 25.73360062 62.11014175 164.88929749
v 25.83111000 62.36185074 182.80000305
v 30.08732033 60.42350006 164.88929749
v 33.32453918 66.92472076 156.50689697
v 25.73360062 62.11014175 164.88929749
v 30.08732033 60.42350006 164.88929749
v -18.47228050 64.92321014 125.61779785
v -20.45977974 71.90857697 156.50689697
v -18.47228050 64.92321014 125.61779785
v 18.47223091 64.92321014 125.61779785
v 20.45973969 71.90857697 156.50689697
v 18.47223091 64.92321014 125.61779785
v -18.47228050 64.92321014 164.88929749
v -20.45977974 71.90857697 156.50689697
v -18.47228050 64.92321014 164.88929749
v 18.47223091 64.92321014 164.88929749
v 20.45973969 71.90857697 156.50689697
v 18.47223091 64.92321014 164.88929749
v -18.47228050 64.92321014 125.61779785
v -13.16862011 66.20298004 -0.00000405
v -25.83115005 62.36185074 -0.00000405
v 13.16856956 66.20298004 -0.00000405
v 18.47223091 64.92321014 125.61779785
v 25.83111000 62.36185074 -0.00000405
v -13.16862011 66.20298004 182.80000305
v -18.47228050 64.92321014 164.88929749
v -25.83115005 62.36185074 182.80000305
v 18.47223091 64.92321014 164.88929749
v 13.16856956 66.20298004 182.80000305
v 25.83111000 62.36185074 182.80000305
v -13.11653042 65.92436981 125.61779785
v -13.16862011 66.20298004 -0.00000405
v -18.47228050 64.92321014 125.61779785
v -20.45977974 71.90857697 156.50689697
v -13.11653042 65.92436981 125.61779785
v -18.47228050 64.92321014 125.61779785
v 13.16856956 66.20298004 -0.00000405
v 13.11649036 65.92436981 125.61779785
v 18.47223091 64.92321014 125.61779785
v 13.11649036 65.92436981 125.61779785
v 20.45973969 71.90857697 156.50689697
v 18.47223091 64.92321014 125.61779785
v -13.16862011 66.20298004 182.80000305
v -13.11653042 65.92436981 164.88929749
v -18.47228050 64.92321014 164.88929749
v -13.11653042 65.92436981 164.88929749
v -20.45977974 71.90857697 156.50689697
v -18.47228050 64.92321014 164.88929749
v 13.11649036 65.92436981 164.88929749
v 13.16856956 66.20298004 182.80000305
v 18.47223091 64.92321014 164.88929749
v 20.45973969 71.90857697 156.50689697
v 13.11649036 65.92436981 164.88929749
v 18.47223091 64.92321014 164.88929749
v -6.22813416 67.21205139 125.61779785
v -6.89824677 74.44365692 156.50689697
v -6.22813416 67.21205139 125.61779785
v 6.22809601 67.21205139 125.61779785
v 6.89820099 74.44365692 156.50689697
v 6.22809601 67.21205139 125.61779785
v -6.22813416 67.21205139 164.88929749
v -6.89824677 74.44365692 156.50689697
v -6.22813416 67.21205139 164.88929749
v 6.22809601 67.21205139 164.88929749
v 6.89820099 74.44365692 156.50689697
v 6.22809601 67.21205139 164.88929749
v -6.22813416 67.21205139 125.61779785
v -0.00002289 67.49997711 -0.00000405
v -13.16862011 66.20298004 -0.00000405
v -0.00002289 67.49997711 -0.00000405
v 6.22809601 67.21205139 125.61779785
v 13.16856956 66.20298004 -0.00000405
v -0.00002289 67.49997711 182.80000305
v -6.22813416 67.21205139 164.88929749
v -13.16862011 66.20298004 182.80000305
v 6.22809601 67.21205139 164.88929749
v -0.00002289 67.49997711 182.80000305
v 13.16856956 66.20298004 182.80000305
v -0.00002289 67.21205139 125.61779785
v -0.00002289 67.49997711 -0.00000405
v -6.22813416 67.21205139 125.61779785
v -6.89824677 74.44365692 156.50689697
v -0.00002289 67.21205139 125.61779785
v -6.22813416 67.21205139 125.61779785
v 6.22809601 67.21205139 125.61779785
v 6.89820099 74.44365692 156.50689697
v 6.22809601 67.21205139 125.61779785
v -0.00002289 67.49997711 182.80000305
v -0.00002289 67.21205139 164.88929749
v -6.22813416 67.21205139 164.88929749
v -0.00002289 67.21205139 164.88929749
v -6.89824677 74.44365692 156.50689697
v -6.22813416 67.21205139 164.88929749
v 6.22809601 67.21205139 164.88929749
v 6.89820099 74.44365692 156.50689697
v 6.22809601 67.21205139 164.88929749
f 1 2 3
f 4 5 6
f 5 7 6
f 8 1 3
f 9 10 11
f 12 13 14
f 13 15 14
f 16 9 11
f 17 18 19
f 18 20 19
f 21 5 4
f 22 23 24
f 9 25 10
f 26 22 24
f 27 28 29
f 1 30 2
f 31 27 29
f 32 33 34
f 33 35 34
f 36 13 12
f 37 38 39
f 38 40 39
f 41 18 17
f 42 43 44
f 22 45 23
f 46 42 44
f 47 48 49
f 50 51 52
f 53 54 55
f 54 56 55
f 57 58 59
f 60 57 59
f 61 62 63
f 64 65 66
f 65 67 66
f 68 69 70
f 71 72 73
f 74 71 73
f 75 76 77
f 78 79 80
f 81 82 83
f 84 85 86
f 87 88 89
f 27 90 28
f 91 87 89
f 92 93 94
f 93 95 94
f 96 33 32
f 97 98 99
f 98 100 99
f 101 38 37
f 102 103 104
f 42 105 43
f 106 102 104
f 107 108 109
f 75 110 76
f 111 57 60
f 112 113 114
f 115 79 78
f 57 116 58
f 71 117 72
f 118 119 120
f 121 82 81
f 122 71 74
f 84 123 85
f 124 125 126
f 127 128 129
f 130 131 132
f 133 134 135
f 136 137 138
f 139 140 141
f 127 142 128
f 143 57 111
f 144 145 146
f 147 131 130
f 57 148 116
f 71 149 117
f 150 151 152
f 153 134 133
f 154 71 122
f 136 155 137
f 156 157 158
f 159 160 161
f 162 163 164
f 165 166 167
f 168 169 170
f 171 172 173
f 87 174 88
f 175 171 173
f 176 177 178
f 177 179 178
f 180 93 92
f 181 182 183
f 182 184 183
f 185 98 97
f 186 187 188
f 102 189 103
f 190 186 188
f 191 192 193
f 159 194 160
f 195 57 143
f 196 197 198
f 199 163 162
f 57 200 148
f 71 201 149
f 202 203 204
f 205 166 165
f 206 71 154
f 168 207 169
f 208 209 210
f 211 212 213
f 214 215 216
f 217 218 219
f 220 221 222
f 223 224 225
f 171 226 172
f 227 223 225
f 228 229 230
f 229 231 230
f 232 177 176
f 233 234 235
f 234 236 235
f 237 182 181
f 238 239 240
f 186 241 187
f 242 238 240
f 243 244 245
f 211 246 212
f 247 57 195
f 248 249 250
f 251 215 214
f 57 252 200
f 71 253 201
f 254 255 256
f 257 218 217
f 258 71 206
f 220 259 221
f 260 261 262
f 263 264 265
f 266 267 268
f 269 270 271
f 272 273 274
f 275 276 277
f 223 278 224
f 279 275 277
f 280 281 282
f 281 283 282
f 284 229 228
f 285 286 287
f 286 288 287
f 289 234 233
f 290 291 292
f 238 293 239
f 294 290 292
f 295 296 297
f 263 298 264
f 299 57 247
f 300 301 302
f 303 267 266
f 57 304 252
f 71 305 253
f 306 307 308
f 309 270 269
f 310 71 258
f 272 311 273
f 312 313 314
f 315 316 317
f 318 319 320
f 321 322 323
f 324 325 326
f 327 328 329
f 275 330 276
f 331 327 329
f 332 333 334
f 333 335 334
f 336 281 280
f 337 338 339
f 338 340 339
f 341 286 285
f 342 343 344
f 290 345 291
f 346 342 344
f 347 348 349
f 315 350 316
f 351 57 299
f 352 353 354
f 355 319 318
f 57 356 304
f 71 357 305
f 358 359 360
f 361 322 321
f 362 71 310
f 324 363 325
f 364 365 366
f 367 368 369
f 370 371 372
f 373 374 375
f 376 377 378
f 327 379 328
f 380 381 382
f 381 383 382
f 384 385 386
f 387 333 332
f 388 389 390
f 391 338 337
f 342 392 343
f 393 394 395
f 394 396 395
f 397 398 399
f 367 400 368
f 401 57 351
f 402 403 404
f 405 371 370
f 57 406 356
f 71 407 357
f 408 409 410
f 411 374 373
f 412 71 362
f 376 413 377
f 414 415 416
f 417 418 419
f 384 420 385
f 421 422 423
f 424 425 426
f 427 428 429
f 388 430 389
f 431 432 433
f 434 435 436
f 431 437 432
f 434 438 435
f 439 57 401
f 440 441 442
f 443 444 445
f 446 447 57
f 447 448 57
f 448 406 57
f 449 450 57
f 450 451 57
f 451 446 57
f 452 453 57
f 453 454 57
f 454 449 57
f 455 456 57
f 456 457 57
f 457 452 57
f 439 458 57
f 458 459 57
f 459 455 57
f 460 461 462
f 463 464 465
f 464 466 465
f 460 467 461
f 468 469 470
f 71 471 407
f 472 473 474
f 475 476 71
f 476 477 71
f 477 471 71
f 478 479 71
f 479 480 71
f 480 475 71
f 481 482 71
f 482 483 71
f 483 478 71
f 484 485 71
f 485 486 71
f 486 481 71
f 412 487 71
f 487 488 71
f 488 484 71
f 489 490 491
f 492 493 494
f 495 496 497
f 498 499 500
f 501 502 503
f 504 505 506
f 507 508 509
f 510 511 512
f 513 514 515
f 516 517 518
f 519 520 521
f 522 523 524
f 525 502 501
f 504 526 505
f 526 527 505
f 507 528 508
f 529 511 510
f 530 529 510
f 513 531 514
f 532 517 516
f 533 532 516
f 534 520 519
f 522 535 523
f 535 536 523
f 537 538 539
f 540 541 542
f 543 544 545
f 546 547 548
f 549 550 551
f 552 553 554
f 555 556 557
f 558 559 560
f 561 562 563
f 564 565 566
f 567 568 569
f 570 571 572
f 573 550 549
f 552 574 553
f 574 575 553
f 555 576 556
f 577 559 558
f 578 577 558
f 561 579 562
f 580 565 564
f 581 580 564
f 582 568 567
f 570 583 571
f 583 584 571
f 585 586 587
f 588 589 590
f 591 592 593
f 594 595 596
f 597 598 599
f 600 601 602
f 603 604 605
f 606 607 608
f 609 610 611
f 612 613 614
f 615 616 617
f 618 619 620
f 621 598 597
f 600 622 601
f 622 623 601
f 603 624 604
f 625 607 606
f 626 625 606
f 609 627 610
f 628 613 612
f 629 628 612
f 630 616 615
f 618 631 619
f 631 632 619
f 633 634 635
f 636 637 638
f 639 640 641
f 642 643 644
f 645 646 647
f 648 649 650
f 651 652 653
f 654 655 656
f 657 658 659
f 660 661 662
f 663 664 665
f 666 667 668
f 669 646 645
f 648 670 649
f 670 671 649
f 651 672 652
f 673 655 654
f 674 673 654
f 657 675 658
f 676 661 660
f 677 676 660
f 678 664 663
f 666 679 667
f 679 680 667
f 681 682 683
f 684 685 686
f 687 688 689
f 690 691 692
f 693 694 695
f 696 697 698
f 699 700 701
f 702 703 704
f 705 706 707
f 708 709 710
f 711 712 713
f 714 715 716
f 717 694 693
f 696 718 697
f 718 719 697
f 699 720 700
f 721 703 702
f 722 721 702
f 705 723 706
f 724 709 708
f 725 724 708
f 726 712 711
f 714 727 715
f 727 728 715
f 729 730 731
f 732 733 734
f 735 736 737
f 738 739 740
f 741 742 743
f 744 745 746
f 747 748 749
f 750 751 752
f 753 754 755
f 756 757 758
f 759 760 761
f 762 763 764
f 765 742 741
f 744 766 745
f 766 767 745
f 747 768 748
f 769 751 750
f 770 769 750
f 753 771 754
f 772 757 756
f 773 772 756
f 774 760 759
f 762 775 763
f 775 776 763
f 777 778 779
f 780 781 782
f 783 784 785
f 786 787 788
f 789 790 791
f 792 793 794
f 795 796 797
f 798 799 800
f 801 802 803
f 804 805 806
f 807 808 809
f 810 811 812
f 813 790 789
f 792 814 793
f 814 815 793
f 795 816 796
f 817 799 798
f 818 817 798
f 801 819 802
f 820 805 804
f 821 820 804
f 822 808 807
f 810 823 811
f 823 824 811
f 825 826 827
f 828 829 830
f 831 832 833
f 834 835 836
f 837 838 839
f 840 841 842
f 843 838 837
f 840 844 841
f 844 845 841
f 846 847 848
f 849 850 851
f 846 852 847
f 853 850 849
f 854 853 849

