# https://github.com/mikedh/trimesh
mtllib material.mtl

o th_proximal_001
usemtl material_0
v 6.56299019 -2.38277006 47.24267960
v 5.35263014 -4.47926998 47.24261093
v 8.87246990 -3.22337008 44.39989853
v 6.56299019 -2.38277006 47.24267960
v 6.60915995 0.00113000 47.53578186
v 2.84679008 -2.37656999 49.09226990
v 2.54221010 1.39789999 49.16617966
v 2.84679008 -2.37656999 49.09226990
v 6.60915995 0.00113000 47.53578186
v 12.34216022 2.62174010 3.91527009
v 11.52785969 5.12782001 3.91527009
v 11.01634026 0.00113000 12.12860012
v 9.95808983 4.42891979 37.15410995
v 10.66137981 2.26448011 37.15410995
v 10.15396023 0.00113000 28.83626938
v 11.01634026 0.00113000 12.12860012
v 8.87557030 6.44006014 12.12189007
v 10.19227982 0.00113000 20.46215057
v 8.87557030 6.44006014 12.12189007
v 11.01634026 0.00113000 12.12860012
v 11.52785969 5.12782001 3.91527009
v 10.19227982 0.00113000 20.46215057
v 8.19526958 5.94581985 20.45874977
v 10.15396023 0.00113000 28.83626938
v 8.19526958 5.94581985 20.45874977
v 10.19227982 0.00113000 20.46215057
v 8.87557030 6.44006014 12.12189007
v 8.17780018 5.93308020 28.83789062
v 8.17780018 5.93308020 28.83789062
v 11.52785969 5.12782001 3.91527009
v 8.44713974 9.36806011 3.91528010
v 8.87557030 6.44006014 12.12189007
v 6.45203018 8.86355019 12.12187958
v 8.87557030 6.44006014 12.12189007
v 8.44713974 9.36806011 3.91528010
v 8.87557030 6.44006014 12.12189007
v 6.45203018 8.86355019 12.12187958
v 8.19526958 5.94581985 20.45874977
v 5.95783997 8.18330002 20.45874023
v 8.19526958 5.94581985 20.45874977
v 5.95783997 8.18330002 20.45874023
v 8.17780018 5.93308020 28.83789062
v 5.94504976 8.16576004 28.83790016
v 5.94504976 8.16576004 28.83790016
v 7.29731989 8.09109974 37.15417862
v 9.95808983 4.42891979 37.15410995
v 8.17780018 5.93308020 28.83789062
v 5.94504976 8.16576004 28.83790016
v 9.95808983 4.42891979 37.15410995
v 8.44713974 9.36806011 3.91528010
v 6.31535006 10.91689968 3.91528010
v 6.45203018 8.86355019 12.12187958
v 6.45203018 8.86355019 12.12187958
v 3.39831996 10.41952991 12.12189007
v 5.95783997 8.18330002 20.45874023
v 6.45203018 8.86355019 12.12187958
v 6.31535006 10.91689968 3.91528010
v 3.90808010 11.98867035 3.91527009
v 3.39831996 10.41952991 12.12189007
v 6.45203018 8.86355019 12.12187958
v 3.90808010 11.98867035 3.91527009
v 5.95783997 8.18330002 20.45874023
v 3.13845992 9.61985016 20.45874977
v 5.94504976 8.16576004 28.83790016
v 3.13845992 9.61985016 20.45874977
v 5.94504976 8.16576004 28.83790016
v 3.13175011 9.59922981 28.83789062
v 7.29731989 8.09109974 37.15417862
v 3.13175011 9.59922981 28.83789062
v 3.37712002 10.35445023 37.15417099
v 7.29731989 8.09109974 37.15417862
v 3.13175011 9.59922981 28.83789062
v 3.90808010 11.98867035 3.91527009
v 1.33067000 12.53652954 3.91528010
v 3.39831996 10.41952991 12.12189007
v -3.37208009 10.41952991 12.12189007
v 3.39831996 10.41952991 12.12189007
v 1.33067000 12.53652954 3.91528010
v 3.39831996 10.41952991 12.12189007
v -3.37208009 10.41952991 12.12189007
v 3.13845992 9.61985016 20.45874977
v 3.13845992 9.61985016 20.45874977
v -3.11222005 9.61985016 20.45874977
v 3.13175011 9.59922981 28.83789062
v -3.11222005 9.61985016 20.45874977
v 3.13175011 9.59922981 28.83789062
v -3.10549998 9.59922981 28.83789062
v 3.37712002 10.35445023 37.15417099
v -3.10549998 9.59922981 28.83789062
v -1.30443001 12.53652954 3.91528010
v -1.12475002 10.82761955 37.15417862
v 3.37712002 10.35445023 37.15417099
v -3.10549998 9.59922981 28.83789062
v -3.37208009 10.41952991 12.12189007
v -1.30443001 12.53652954 3.91528010
v -3.88183999 11.98867035 3.91527009
v -3.88183999 11.98867035 3.91527009
v -6.28911018 10.91689968 3.91528010
v -3.37208009 10.41952991 12.12189007
v -3.37208009 10.41952991 12.12189007
v -6.42578983 8.86355019 12.12189007
v -3.11222005 9.61985016 20.45874977
v -6.42578983 8.86355019 12.12189007
v -3.37208009 10.41952991 12.12189007
v -6.28911018 10.91689968 3.91528010
v -5.93160009 8.18330002 20.45874977
v -3.11222005 9.61985016 20.45874977
v -5.93160009 8.18330002 20.45874977
v -3.10549998 9.59922981 28.83789062
v -5.91879988 8.16576004 28.83789062
v -5.91879988 8.16576004 28.83789062
v -7.27105999 8.09109974 37.15417862
v -1.12475002 10.82761955 37.15417862
v -3.10549998 9.59922981 28.83789062
v -5.91879988 8.16576004 28.83789062
v -1.12475002 10.82761955 37.15417862
v -6.28911018 10.91689968 3.91528010
v -8.42090034 9.36806011 3.91528010
v -6.42578983 8.86355019 12.12189007
v -6.42578983 8.86355019 12.12189007
v -8.42090034 9.36806011 3.91528010
v -11.50162029 5.12782001 3.91528010
v -8.84932995 6.44006014 12.12189007
v -6.42578983 8.86355019 12.12189007
v -11.50162029 5.12782001 3.91528010
v -6.42578983 8.86355019 12.12189007
v -8.84932995 6.44006014 12.12189007
v -5.93160009 8.18330002 20.45874977
v -8.16901970 5.94581985 20.45874977
v -5.93160009 8.18330002 20.45874977
v -8.16901970 5.94581985 20.45874977
v -5.91879988 8.16576004 28.83789062
v -5.91879988 8.16576004 28.83789062
v -8.15155983 5.93308020 28.83789062
v -7.27105999 8.09109974 37.15417862
v -8.15155983 5.93308020 28.83789062
v -9.93183994 4.42891979 37.15410995
v -7.27105999 8.09109974 37.15417862
v -8.15155983 5.93308020 28.83789062
v -10.99009991 0.00113000 12.12860012
v -8.84932995 6.44006014 12.12189007
v -11.50162029 5.12782001 3.91528010
v -8.84932995 6.44006014 12.12189007
v -10.99009991 0.00113000 12.12860012
v -8.16901970 5.94581985 20.45874977
v -10.16602993 0.00113000 20.46213913
v -8.16901970 5.94581985 20.45874977
v -10.99009991 0.00113000 12.12860012
v -8.16901970 5.94581985 20.45874977
v -10.16602993 0.00113000 20.46213913
v -8.15155983 5.93308020 28.83789062
v -8.15155983 5.93308020 28.83789062
v -10.12771034 0.00113000 28.83626938
v -9.93183994 4.42891979 37.15410995
v -10.12771034 0.00113000 28.83626938
v -11.50162029 5.12782001 3.91528010
v -12.59134007 0.00113000 3.91534996
v -10.99009991 0.00113000 12.12860012
v -10.63514042 2.26448011 37.15410995
v 5.35263014 -4.47926998 47.24261093
v 3.49825001 -6.03527021 47.24267960
v 7.23522997 -6.05896997 44.39989853
v 5.35263014 -4.47926998 47.24261093
v 6.56299019 -2.38277006 47.24267960
v 2.84679008 -2.37656999 49.09226990
v 6.60915995 0.00113000 47.53578186
v 6.56299019 -2.38277006 47.24267960
v 9.67969990 -0.00886000 44.25638962
v 10.14795017 -3.68766999 40.89575958
v 10.65736961 -0.00554000 41.13605881
v 8.87246990 -3.22337008 44.39989853
v 11.52785969 5.12782001 3.91527009
v 12.34216022 2.62174010 3.91527009
v 12.91713047 1.09478998 -0.14384000
v 8.30648994 6.02661991 -7.26175022
v 9.76257038 3.16892004 -7.26175022
v 4.71546984 5.68327999 -9.95829010
v 6.03858995 8.29450035 -7.26168013
v 8.30648994 6.02661991 -7.26175022
v 4.71546984 5.68327999 -9.95829010
v 7.23522997 -6.05896997 44.39989853
v 4.72705984 -8.16366959 44.39982986
v 8.27509975 -6.93146992 40.89575958
v 7.64244986 10.50203991 0.00908000
v 8.44713974 9.36806011 3.91528010
v 11.52785969 5.12782001 3.91527009
v 6.31535006 10.91689968 3.91528010
v 8.44713974 9.36806011 3.91528010
v 7.64244986 10.50203991 0.00908000
v 6.03858995 8.29450035 -7.26168013
v 3.18089008 9.75057030 -7.26168013
v 7.16705990 9.84776974 -3.83483005
v 3.18089008 9.75057030 -7.26168013
v 6.03858995 8.29450035 -7.26168013
v 4.71546984 5.68327999 -9.95829010
v 3.77421999 11.57654953 -3.83483005
v 7.16705990 9.84776974 -3.83483005
v 3.77421999 11.57654953 -3.83483005
v 7.64244986 10.50203991 0.00908000
v 4.02410984 12.34568977 0.00914000
v 7.64244986 10.50203991 0.00908000
v 4.02410984 12.34568977 0.00914000
v 6.31535006 10.91689968 3.91528010
v 3.90808010 11.98867035 3.91527009
v 6.31535006 10.91689968 3.91528010
v 4.02410984 12.34568977 0.00914000
v 3.18089008 9.75057030 -7.26168013
v -3.15472007 9.75057030 -7.26175022
v 3.77421999 11.57654953 -3.83483005
v -3.15472007 9.75057030 -7.26175022
v 3.18089008 9.75057030 -7.26168013
v -2.27218008 7.03446007 -9.95872021
v 3.77421999 11.57654953 -3.83483005
v 0.01312000 12.17224979 -3.83483005
v 4.02410984 12.34568977 0.00914000
v 0.01312000 12.17224979 -3.83483005
v 3.77421999 11.57654953 -3.83483005
v -3.15472007 9.75057030 -7.26175022
v 0.01312000 12.98097038 0.00914000
v 1.33067000 12.53652954 3.91528010
v 3.90808010 11.98867035 3.91527009
v 4.02410984 12.34568977 0.00914000
v 0.01312000 12.98097038 0.00914000
v 3.90808010 11.98867035 3.91527009
v 0.01312000 12.98097038 0.00914000
v -1.30443001 12.53652954 3.91528010
v 1.33067000 12.53652954 3.91528010
v 0.01312000 12.98097038 0.00914000
v -3.74798012 11.57654953 -3.83482003
v 0.01312000 12.17224979 -3.83483005
v -3.15472007 9.75057030 -7.26175022
v 0.01312000 12.17224979 -3.83483005
v -3.74798012 11.57654953 -3.83482003
v 0.01312000 12.98097038 0.00914000
v 0.01312000 12.98097038 0.00914000
v -3.99786997 12.34568977 0.00915000
v -1.30443001 12.53652954 3.91528010
v -3.99786997 12.34568977 0.00915000
v -3.88183999 11.98867035 3.91527009
v -1.30443001 12.53652954 3.91528010
v -3.99786997 12.34568977 0.00915000
v -5.64169979 4.78556013 -9.95683956
v -2.27218008 7.03446007 -9.95872021
v -3.11307001 2.27244997 -11.67953968
v -2.27218008 7.03446007 -9.95872021
v -5.64169979 4.78556013 -9.95683956
v -3.15472007 9.75057030 -7.26175022
v -6.01242018 8.29450035 -7.26175022
v -3.15472007 9.75057030 -7.26175022
v -5.64169979 4.78556013 -9.95683956
v -3.15472007 9.75057030 -7.26175022
v -6.01242018 8.29450035 -7.26175022
v -3.74798012 11.57654953 -3.83482003
v -3.74798012 11.57654953 -3.83482003
v -7.14089012 9.84776974 -3.83489990
v -3.99786997 12.34568977 0.00915000
v -7.14089012 9.84776974 -3.83489990
v -7.61620998 10.50203991 0.00908000
v -7.61620998 10.50203991 0.00908000
v -6.28911018 10.91689968 3.91528010
v -3.88183999 11.98867035 3.91527009
v -3.99786997 12.34568977 0.00915000
v -7.61620998 10.50203991 0.00908000
v -3.88183999 11.98867035 3.91527009
v -8.42090034 9.36806011 3.91528010
v -6.28911018 10.91689968 3.91528010
v -7.61620998 10.50203991 0.00908000
v -6.01242018 8.29450035 -7.26175022
v -8.28024960 6.02661991 -7.26175022
v -7.14089012 9.84776974 -3.83489990
v -8.28024960 6.02661991 -7.26175022
v -6.01242018 8.29450035 -7.26175022
v -5.64169979 4.78556013 -9.95683956
v -9.83349037 7.15512991 -3.83482003
v -7.14089012 9.84776974 -3.83489990
v -9.83349037 7.15512991 -3.83482003
v -7.61620998 10.50203991 0.00908000
v -10.48777008 7.63048983 0.00908000
v -7.61620998 10.50203991 0.00908000
v -10.48777008 7.63048983 0.00908000
v -8.42090034 9.36806011 3.91528010
v -11.50162029 5.12782001 3.91528010
v -8.42090034 9.36806011 3.91528010
v -10.48777008 7.63048983 0.00908000
v -5.64169979 4.78556013 -9.95683956
v -6.82883978 2.31377006 -9.95810032
v -8.28024960 6.02661991 -7.26175022
v -6.82883978 2.31377006 -9.95810032
v -5.64169979 4.78556013 -9.95683956
v -3.11307001 2.27244997 -11.67953968
v -9.73633003 3.16892004 -7.26175022
v -8.28024960 6.02661991 -7.26175022
v -6.82883978 2.31377006 -9.95810032
v -8.28024960 6.02661991 -7.26175022
v -9.73633003 3.16892004 -7.26175022
v -9.83349037 7.15512991 -3.83482003
v -11.56235981 3.76220989 -3.83482003
v -9.83349037 7.15512991 -3.83482003
v -11.56235981 3.76220989 -3.83482003
v -10.48777008 7.63048983 0.00908000
v -10.48777008 7.63048983 0.00908000
v -12.33148003 4.01211977 0.00908000
v -11.50162029 5.12782001 3.91528010
v -12.33148003 4.01211977 0.00908000
v -12.59134007 0.00113000 3.91534996
v -11.50162029 5.12782001 3.91528010
v -12.33148003 4.01211977 0.00908000
v -12.08549023 0.03693000 -3.51345992
v -11.56235981 3.76220989 -3.83482003
v -9.73633003 3.16892004 -7.26175022
v -11.56235981 3.76220989 -3.83482003
v -12.08549023 0.03693000 -3.51345992
v -12.33148003 4.01211977 0.00908000
v -12.33148003 4.01211977 0.00908000
v -12.75930023 -0.06820000 -0.00748000
v -12.59134007 0.00113000 3.91534996
v -12.75930023 -0.06820000 -0.00748000
v -12.33148003 4.01211977 0.00908000
v -12.08549023 0.03693000 -3.51345992
v 8.87246990 -3.22337008 44.39989853
v 10.65736961 -0.00554000 41.13605881
v 9.67969990 -0.00886000 44.25638962
v 10.66137981 2.26448011 37.15410995
v 9.95808983 4.42891979 37.15410995
v 10.65736961 -0.00554000 41.13605881
v 8.27509975 6.93376017 40.89575958
v 10.65736961 -0.00554000 41.13605881
v 9.95808983 4.42891979 37.15410995
v 10.65736961 -0.00554000 41.13605881
v 8.27509975 6.93376017 40.89575958
v 9.67969990 -0.00886000 44.25638962
v 9.67969990 -0.00886000 44.25638962
v 7.23523998 6.06125021 44.39989853
v 6.60915995 0.00113000 47.53578186
v 7.23523998 6.06125021 44.39989853
v 9.67969990 -0.00886000 44.25638962
v 8.27509975 6.93376017 40.89575958
v 6.60915995 0.00113000 47.53578186
v 5.35263014 4.48149014 47.24261093
v 2.54221010 1.39789999 49.16617966
v 5.35263014 4.48149014 47.24261093
v 6.60915995 0.00113000 47.53578186
v 7.23523998 6.06125021 44.39989853
v 9.95808983 4.42891979 37.15410995
v 7.29731989 8.09109974 37.15417862
v 8.27509975 6.93376017 40.89575958
v 8.27509975 6.93376017 40.89575958
v 5.40580988 9.34144020 40.89575958
v 7.23523998 6.06125021 44.39989853
v 5.40580988 9.34144020 40.89575958
v 8.27509975 6.93376017 40.89575958
v 7.29731989 8.09109974 37.15417862
v 7.23523998 6.06125021 44.39989853
v 4.72705984 8.16590977 44.39982986
v 5.35263014 4.48149014 47.24261093
v 4.72705984 8.16590977 44.39982986
v 5.35263014 4.48149014 47.24261093
v 3.49823999 6.03749990 47.24267960
v 2.54221010 1.39789999 49.16617966
v 3.49823999 6.03749990 47.24267960
v 7.29731989 8.09109974 37.15417862
v 3.37712002 10.35445023 37.15417099
v 5.40580988 9.34144020 40.89575958
v 1.88597000 10.62254047 40.89575958
v 5.40580988 9.34144020 40.89575958
v 3.37712002 10.35445023 37.15417099
v 5.40580988 9.34144020 40.89575958
v 1.88597000 10.62254047 40.89575958
v 4.72705984 8.16590977 44.39982986
v 4.72705984 8.16590977 44.39982986
v 1.65022004 9.28577042 44.39989853
v 3.49823999 6.03749990 47.24267960
v 1.65022004 9.28577042 44.39989853
v 1.88597000 10.62254047 40.89575958
v -1.85970998 10.62254047 40.89575958
v 1.65022004 9.28577042 44.39989853
v 1.88597000 10.62254047 40.89575958
v 3.37712002 10.35445023 37.15417099
v -1.12475002 10.82761955 37.15417862
v -1.85970998 10.62254047 40.89575958
v 1.88597000 10.62254047 40.89575958
v -1.12475002 10.82761955 37.15417862
v 1.65022004 9.28577042 44.39989853
v -1.62397003 9.28577042 44.39989853
v 3.49823999 6.03749990 47.24267960
v -1.62397003 9.28577042 44.39989853
v -1.19722998 6.86543989 47.24269104
v 3.49823999 6.03749990 47.24267960
v -1.62397003 9.28577042 44.39989853
v 3.49823999 6.03749990 47.24267960
v -1.19722998 6.86543989 47.24269104
v 2.54221010 1.39789999 49.16617966
v -2.82053995 2.37883997 49.09226990
v 2.54221010 1.39789999 49.16617966
v -1.19722998 6.86543989 47.24269104
v -1.85970998 10.62254047 40.89575958
v -5.37954998 9.34144020 40.89577103
v -1.62397003 9.28577042 44.39989853
v -1.85970998 10.62254047 40.89575958
v -1.12475002 10.82761955 37.15417862
v -7.27105999 8.09109974 37.15417862
v -5.37954998 9.34144020 40.89577103
v -1.85970998 10.62254047 40.89575958
v -7.27105999 8.09109974 37.15417862
v -1.62397003 9.28577042 44.39989853
v -4.70088005 8.16590977 44.39989853
v -1.19722998 6.86543989 47.24269104
v -4.70088005 8.16590977 44.39989853
v -5.37954998 9.34144020 40.89577103
v -8.24884987 6.93376017 40.89577103
v -4.70088005 8.16590977 44.39989853
v -8.24884987 6.93376017 40.89577103
v -5.37954998 9.34144020 40.89577103
v -7.27105999 8.09109974 37.15417862
v -4.70088005 8.16590977 44.39989853
v -7.20898008 6.06125021 44.39990997
v -1.19722998 6.86543989 47.24269104
v -7.20898008 6.06125021 44.39990997
v -5.32637978 4.48149014 47.24261856
v -1.19722998 6.86543989 47.24269104
v -7.20898008 6.06125021 44.39990997
v -1.19722998 6.86543989 47.24269104
v -5.32637978 4.48149014 47.24261856
v -2.82053995 2.37883997 49.09226990
v -7.27105999 8.09109974 37.15417862
v -9.93183994 4.42891979 37.15410995
v -8.24884987 6.93376017 40.89577103
v -10.61056995 1.65542996 40.89316940
v -8.24884987 6.93376017 40.89577103
v -9.93183994 4.42891979 37.15410995
v -8.24884987 6.93376017 40.89577103
v -10.61056995 1.65542996 40.89316940
v -7.20898008 6.06125021 44.39990997
v -7.20898008 6.06125021 44.39990997
v -9.63731956 1.11883998 44.52991867
v -5.32637978 4.48149014 47.24261856
v -9.63731956 1.11883998 44.52991867
v -7.20898008 6.06125021 44.39990997
v -10.61056995 1.65542996 40.89316940
v -6.58291006 0.00113000 47.53578949
v -5.32637978 4.48149014 47.24261856
v -9.63731956 1.11883998 44.52991867
v -5.32637978 4.48149014 47.24261856
v -6.58291006 0.00113000 47.53578949
v -2.82053995 2.37883997 49.09226990
v -9.93183994 4.42891979 37.15410995
v -10.63514042 2.26448011 37.15410995
v -10.61056995 1.65542996 40.89316940
v 9.67969990 -0.00886000 44.25638962
v 6.56299019 -2.38277006 47.24267960
v 8.87246990 -3.22337008 44.39989853
v 9.95808983 -4.42667007 37.15410995
v 10.66137981 -2.26226997 37.15410995
v 10.14795017 -3.68766999 40.89575958
v -12.59134007 0.00113000 3.91534996
v -12.31591988 -2.61946988 3.91528010
v -10.99009991 0.00113000 12.12860012
v 7.23522997 -6.05896997 44.39989853
v -10.99009991 0.00113000 12.12860012
v -10.40524960 -3.38397002 12.12189007
v -10.16602993 0.00113000 20.46213913
v -10.40524960 -3.38397002 12.12189007
v -10.99009991 0.00113000 12.12860012
v -12.31591988 -2.61946988 3.91528010
v -9.60558033 -3.12417006 20.45874977
v -10.16602993 0.00113000 20.46213913
v -10.40524960 -3.38397002 12.12189007
v -9.60558033 -3.12417006 20.45874977
v -10.12771034 0.00113000 28.83626938
v -10.16602993 0.00113000 20.46213913
v -9.58500004 -3.11747003 28.83789062
v -10.12771034 0.00113000 28.83626938
v -9.60558033 -3.12417006 20.45874977
v -9.58500004 -3.11747003 28.83789062
v -10.63514042 -2.26226997 37.15410995
v -10.63514042 2.26448011 37.15410995
v -9.58500004 -3.11747003 28.83789062
v -10.63514042 2.26448011 37.15410995
v -10.12771034 0.00113000 28.83626938
v 8.27509975 -6.93146992 40.89575958
v 10.14795017 -3.68766999 40.89575958
v 7.23522997 -6.05896997 44.39989853
v -12.31591988 -2.61946988 3.91528010
v -11.50162029 -5.12556982 3.91528010
v -10.40524960 -3.38397002 12.12189007
v -9.93183994 -4.42667007 37.15410995
v -10.63514042 -2.26226997 37.15410995
v -9.58500004 -3.11747003 28.83789062
v -10.40524960 -3.38397002 12.12189007
v -8.84932995 -6.43776989 12.12189007
v -9.60558033 -3.12417006 20.45874977
v -8.84932995 -6.43776989 12.12189007
v -10.40524960 -3.38397002 12.12189007
v -11.50162029 -5.12556982 3.91528010
v -9.60558033 -3.12417006 20.45874977
v -8.16901970 -5.94357014 20.45874977
v -9.58500004 -3.11747003 28.83789062
v -8.16901970 -5.94357014 20.45874977
v -9.58500004 -3.11747003 28.83789062
v -8.15155983 -5.93087006 28.83789062
v -9.93183994 -4.42667007 37.15410995
v -8.15155983 -5.93087006 28.83789062
v -11.50162029 -5.12556982 3.91528010
v -8.42090034 -9.36577034 3.91528010
v -8.84932995 -6.43776989 12.12189007
v -6.42578983 -8.86126995 12.12189007
v -8.84932995 -6.43776989 12.12189007
v -8.42090034 -9.36577034 3.91528010
v -8.84932995 -6.43776989 12.12189007
v -6.42578983 -8.86126995 12.12189007
v -8.16901970 -5.94357014 20.45874977
v -8.16901970 -5.94357014 20.45874977
v -5.93160009 -8.18107033 20.45874977
v -8.15155983 -5.93087006 28.83789062
v -5.93160009 -8.18107033 20.45874977
v -5.91879988 -8.16347027 28.83789062
v -5.91879988 -8.16347027 28.83789062
v -7.27105999 -8.08887005 37.15417862
v -9.93183994 -4.42667007 37.15410995
v -8.15155983 -5.93087006 28.83789062
v -5.91879988 -8.16347027 28.83789062
v -9.93183994 -4.42667007 37.15410995
v -8.42090034 -9.36577034 3.91528010
v -6.28911018 -10.91466999 3.91528010
v -6.42578983 -8.86126995 12.12189007
v -6.42578983 -8.86126995 12.12189007
v -3.37208009 -10.41726971 12.12189007
v -5.93160009 -8.18107033 20.45874977
v -6.42578983 -8.86126995 12.12189007
v -6.28911018 -10.91466999 3.91528010
v -3.88183999 -11.98637009 3.91528010
v -3.37208009 -10.41726971 12.12189007
v -6.42578983 -8.86126995 12.12189007
v -3.88183999 -11.98637009 3.91528010
v -3.11222005 -9.61756992 20.45874977
v -5.93160009 -8.18107033 20.45874977
v -3.11222005 -9.61756992 20.45874977
v -5.91879988 -8.16347027 28.83789062
v -5.91879988 -8.16347027 28.83789062
v -3.10549998 -9.59696960 28.83789062
v -7.27105999 -8.08887005 37.15417862
v -3.10549998 -9.59696960 28.83789062
v -3.35086012 -10.35216999 37.15417099
v -7.27105999 -8.08887005 37.15417862
v -3.10549998 -9.59696960 28.83789062
v -3.88183999 -11.98637009 3.91528010
v -1.30443001 -12.53427029 3.91528010
v -3.37208009 -10.41726971 12.12189007
v -1.30443001 -12.53427029 3.91528010
v 1.33067000 -12.53427029 3.91528010
v -3.37208009 -10.41726971 12.12189007
v 1.15100002 -10.82536983 37.15417862
v -3.35086012 -10.35216999 37.15417099
v -3.10549998 -9.59696960 28.83789062
v -3.37208009 -10.41726971 12.12189007
v 3.39831996 -10.41726971 12.12189007
v -3.11222005 -9.61756992 20.45874977
v -3.11222005 -9.61756992 20.45874977
v 3.13845992 -9.61756992 20.45874977
v -3.10549998 -9.59696960 28.83789062
v 3.13845992 -9.61756992 20.45874977
v -3.10549998 -9.59696960 28.83789062
v 3.13175011 -9.59696960 28.83789062
v 1.15100002 -10.82536983 37.15417862
v 3.13175011 -9.59696960 28.83789062
v 3.90808010 -11.98637009 3.91528010
v 6.31535006 -10.91466999 3.91528010
v 3.39831996 -10.41726971 12.12189007
v 6.45203018 -8.86126995 12.12187958
v 3.39831996 -10.41726971 12.12189007
v 6.31535006 -10.91466999 3.91528010
v 3.39831996 -10.41726971 12.12189007
v 6.45203018 -8.86126995 12.12187958
v 3.13845992 -9.61756992 20.45874977
v 3.13845992 -9.61756992 20.45874977
v 5.95783997 -8.18107033 20.45874023
v 3.13175011 -9.59696960 28.83789062
v 5.95783997 -8.18107033 20.45874023
v 5.94504976 -8.16347027 28.83790016
v 5.94504976 -8.16347027 28.83790016
v 7.29731989 -8.08887005 37.15417862
v 1.15100002 -10.82536983 37.15417862
v 3.13175011 -9.59696960 28.83789062
v 5.94504976 -8.16347027 28.83790016
v 1.15100002 -10.82536983 37.15417862
v 6.31535006 -10.91466999 3.91528010
v 8.44713974 -9.36577034 3.91528010
v 6.45203018 -8.86126995 12.12187958
v 6.45203018 -8.86126995 12.12187958
v 8.44713974 -9.36577034 3.91528010
v 11.52785969 -5.12556982 3.91527009
v 8.87557030 -6.43776989 12.12189007
v 6.45203018 -8.86126995 12.12187958
v 11.52785969 -5.12556982 3.91527009
v 6.45203018 -8.86126995 12.12187958
v 8.87557030 -6.43776989 12.12189007
v 5.95783997 -8.18107033 20.45874023
v 5.95783997 -8.18107033 20.45874023
v 8.19526958 -5.94357014 20.45874977
v 5.94504976 -8.16347027 28.83790016
v 8.19526958 -5.94357014 20.45874977
v 5.94504976 -8.16347027 28.83790016
v 8.17780018 -5.93087006 28.83789062
v 7.29731989 -8.08887005 37.15417862
v 8.17780018 -5.93087006 28.83789062
v 9.95808983 -4.42667007 37.15410995
v 7.29731989 -8.08887005 37.15417862
v 8.17780018 -5.93087006 28.83789062
v 8.87557030 -6.43776989 12.12189007
v 10.43148994 -3.38397002 12.12187958
v 8.19526958 -5.94357014 20.45874977
v 10.43148994 -3.38397002 12.12187958
v 8.87557030 -6.43776989 12.12189007
v 11.52785969 -5.12556982 3.91527009
v 8.19526958 -5.94357014 20.45874977
v 9.63183022 -3.12417006 20.45874977
v 8.17780018 -5.93087006 28.83789062
v 9.63183022 -3.12417006 20.45874977
v 8.17780018 -5.93087006 28.83789062
v 9.61124992 -3.11747003 28.83790016
v 9.95808983 -4.42667007 37.15410995
v 9.61124992 -3.11747003 28.83790016
v 11.52785969 -5.12556982 3.91527009
v 12.34216022 -2.61946988 3.91527009
v 10.43148994 -3.38397002 12.12187958
v 10.66137981 -2.26226997 37.15410995
v 9.95808983 -4.42667007 37.15410995
v 9.61124992 -3.11747003 28.83790016
v 10.43148994 -3.38397002 12.12187958
v 12.34216022 -2.61946988 3.91527009
v 12.34216022 2.62174010 3.91527009
v 10.43148994 -3.38397002 12.12187958
v 12.34216022 2.62174010 3.91527009
v 11.01634026 0.00113000 12.12860012
v 10.14795017 -3.68766999 40.89575958
v 8.27509975 -6.93146992 40.89575958
v 9.95808983 -4.42667007 37.15410995
v 9.63183022 -3.12417006 20.45874977
v 9.63183022 -3.12417006 20.45874977
v 10.19227982 0.00113000 20.46215057
v 9.61124992 -3.11747003 28.83790016
v 9.63183022 -3.12417006 20.45874977
v 11.01634026 0.00113000 12.12860012
v 10.19227982 0.00113000 20.46215057
v 9.61124992 -3.11747003 28.83790016
v 10.15396023 0.00113000 28.83626938
v 10.66137981 -2.26226997 37.15410995
v 8.87246990 -3.22337008 44.39989853
v 10.15396023 0.00113000 28.83626938
v 9.61124992 -3.11747003 28.83790016
v 10.19227982 0.00113000 20.46215057
v 10.66137981 2.26448011 37.15410995
v 10.66137981 -2.26226997 37.15410995
v 10.15396023 0.00113000 28.83626938
v -3.11307001 2.27244997 -11.67953968
v -3.66193008 -1.19297004 -11.67953968
v -6.82883978 2.31377006 -9.95810032
v -6.96572018 -1.29969001 -9.95652008
v -6.82883978 2.31377006 -9.95810032
v -3.66193008 -1.19297004 -11.67953968
v -6.82883978 2.31377006 -9.95810032
v -6.96572018 -1.29969001 -9.95652008
v -9.73633003 3.16892004 -7.26175022
v -9.73633003 -3.16667008 -7.26174021
v -12.08549023 0.03693000 -3.51345992
v -9.73633003 3.16892004 -7.26175022
v -9.73633003 -3.16667008 -7.26174021
v -9.73633003 3.16892004 -7.26175022
v -6.96572018 -1.29969001 -9.95652008
v -11.64270973 -3.81134009 -3.89589000
v -12.08549023 0.03693000 -3.51345992
v -9.73633003 -3.16667008 -7.26174021
v -11.64270973 -3.81134009 -3.89589000
v -12.75930023 -0.06820000 -0.00748000
v -12.08549023 0.03693000 -3.51345992
v -12.33148003 -4.00987005 0.00908000
v -12.31591988 -2.61946988 3.91528010
v -12.59134007 0.00113000 3.91534996
v -12.33148003 -4.00987005 0.00908000
v -12.59134007 0.00113000 3.91534996
v -12.75930023 -0.06820000 -0.00748000
v -12.33148003 -4.00987005 0.00908000
v -12.75930023 -0.06820000 -0.00748000
v -11.64270973 -3.81134009 -3.89589000
v -11.50162029 -5.12556982 3.91528010
v -12.31591988 -2.61946988 3.91528010
v -12.33148003 -4.00987005 0.00908000
v -5.96977997 -4.34567022 -9.95872021
v -6.96572018 -1.29969001 -9.95652008
v -3.66193008 -1.19297004 -11.67953968
v -6.96572018 -1.29969001 -9.95652008
v -5.96977997 -4.34567022 -9.95872021
v -9.73633003 -3.16667008 -7.26174021
v -9.73633003 -3.16667008 -7.26174021
v -8.28024960 -6.02437019 -7.26175022
v -11.64270973 -3.81134009 -3.89589000
v -8.28024960 -6.02437019 -7.26175022
v -9.73633003 -3.16667008 -7.26174021
v -5.96977997 -4.34567022 -9.95872021
v -11.64270973 -3.81134009 -3.89589000
v -9.83349037 -7.15287018 -3.83482003
v -12.33148003 -4.00987005 0.00908000
v -9.83349037 -7.15287018 -3.83482003
v -11.64270973 -3.81134009 -3.89589000
v -8.28024960 -6.02437019 -7.26175022
v -10.48777008 -7.62827015 0.00908000
v -12.33148003 -4.00987005 0.00908000
v -9.83349037 -7.15287018 -3.83482003
v -12.33148003 -4.00987005 0.00908000
v -10.48777008 -7.62827015 0.00908000
v -11.50162029 -5.12556982 3.91528010
v -8.28024960 -6.02437019 -7.26175022
v -6.01242018 -8.29226971 -7.26175022
v -9.83349037 -7.15287018 -3.83482003
v -6.01242018 -8.29226971 -7.26175022
v -8.28024960 -6.02437019 -7.26175022
v -5.96977997 -4.34567022 -9.95872021
v -9.83349037 -7.15287018 -3.83482003
v -7.14089012 -9.84547043 -3.83489990
v -10.48777008 -7.62827015 0.00908000
v -7.14089012 -9.84547043 -3.83489990
v -7.61620998 -10.49977016 0.00908000
v -6.28911018 -10.91466999 3.91528010
v -8.42090034 -9.36577034 3.91528010
v -7.61620998 -10.49977016 0.00908000
v -7.14089012 -9.84547043 -3.83489990
v -3.74798012 -11.57427025 -3.83482003
v -7.61620998 -10.49977016 0.00908000
v -7.61620998 -10.49977016 0.00908000
v -3.99786997 -12.34346962 0.00915000
v -6.28911018 -10.91466999 3.91528010
v -3.99786997 -12.34346962 0.00915000
v -3.88183999 -11.98637009 3.91528010
v -6.28911018 -10.91466999 3.91528010
v -3.99786997 -12.34346962 0.00915000
v -3.74798012 -11.57427025 -3.83482003
v 0.01312000 -12.16996956 -3.83483005
v -3.99786997 -12.34346962 0.00915000
v 0.01312000 -12.16996956 -3.83483005
v -3.74798012 -11.57427025 -3.83482003
v 0.01312000 -10.25006962 -7.26175022
v 0.01312000 -12.97867012 0.00915000
v 0.01312000 -12.97867012 0.00915000
v -1.30443001 -12.53427029 3.91528010
v -3.88183999 -11.98637009 3.91528010
v -3.99786997 -12.34346962 0.00915000
v 0.01312000 -12.97867012 0.00915000
v -3.88183999 -11.98637009 3.91528010
v 1.33067000 -12.53427029 3.91528010
v -1.30443001 -12.53427029 3.91528010
v 0.01312000 -12.97867012 0.00915000
v -3.66193008 -1.19297004 -11.67953968
v 3.13930988 -2.27016997 -11.67953968
v 0.01312000 -7.39416981 -9.95864964
v 3.13930988 -2.27016997 -11.67953968
v -3.66193008 -1.19297004 -11.67953968
v -3.11307001 2.27244997 -11.67953968
v 2.29841995 -7.03216982 -9.95872974
v 0.01312000 -7.39416981 -9.95864964
v 3.13930988 -2.27016997 -11.67953968
v 0.01312000 -7.39416981 -9.95864964
v 2.29841995 -7.03216982 -9.95872974
v 0.01312000 -10.25006962 -7.26175022
v 0.01312000 -10.25006962 -7.26175022
v 3.18089008 -9.74827003 -7.26168013
v 0.01312000 -12.16996956 -3.83483005
v 3.18089008 -9.74827003 -7.26168013
v 0.01312000 -12.16996956 -3.83483005
v 3.77421999 -11.57427025 -3.83483005
v 0.01312000 -12.97867012 0.00915000
v 3.77421999 -11.57427025 -3.83483005
v 4.02410984 -12.34346962 0.00915000
v 0.01312000 -12.97867012 0.00915000
v 4.02410984 -12.34346962 0.00915000
v 1.33067000 -12.53427029 3.91528010
v 3.90808010 -11.98637009 3.91528010
v 1.33067000 -12.53427029 3.91528010
v 4.02410984 -12.34346962 0.00915000
v 5.99601984 -4.34567022 -9.95872974
v 2.29841995 -7.03216982 -9.95872974
v 3.13930988 -2.27016997 -11.67953968
v 2.29841995 -7.03216982 -9.95872974
v 5.99601984 -4.34567022 -9.95872974
v 3.18089008 -9.74827003 -7.26168013
v 3.18089008 -9.74827003 -7.26168013
v 6.03858995 -8.29226971 -7.26168013
v 3.77421999 -11.57427025 -3.83483005
v 6.03858995 -8.29226971 -7.26168013
v 3.18089008 -9.74827003 -7.26168013
v 5.99601984 -4.34567022 -9.95872974
v 3.77421999 -11.57427025 -3.83483005
v 7.16705990 -9.84547043 -3.83483005
v 4.02410984 -12.34346962 0.00915000
v 7.16705990 -9.84547043 -3.83483005
v 7.64244986 -10.49977016 0.00908000
v 7.64244986 -10.49977016 0.00908000
v 6.31535006 -10.91466999 3.91528010
v 3.90808010 -11.98637009 3.91528010
v 4.02410984 -12.34346962 0.00915000
v 7.64244986 -10.49977016 0.00908000
v 3.90808010 -11.98637009 3.91528010
v 8.44713974 -9.36577034 3.91528010
v 6.31535006 -10.91466999 3.91528010
v 7.64244986 -10.49977016 0.00908000
v 8.30648994 -6.02437019 -7.26175022
v 6.03858995 -8.29226971 -7.26168013
v 5.99601984 -4.34567022 -9.95872974
v 6.03858995 -8.29226971 -7.26168013
v 8.30648994 -6.02437019 -7.26175022
v 7.16705990 -9.84547043 -3.83483005
v 9.85972023 -7.15287018 -3.83483005
v 7.16705990 -9.84547043 -3.83483005
v 9.85972023 -7.15287018 -3.83483005
v 7.64244986 -10.49977016 0.00908000
v 10.51401043 -7.62827015 0.00907000
v 7.64244986 -10.49977016 0.00908000
v 10.51401043 -7.62827015 0.00907000
v 8.44713974 -9.36577034 3.91528010
v 11.52785969 -5.12556982 3.91527009
v 8.44713974 -9.36577034 3.91528010
v 10.51401043 -7.62827015 0.00907000
v 7.04650021 -2.28416991 -9.95872021
v 5.99601984 -4.34567022 -9.95872974
v 3.13930988 -2.27016997 -11.67953968
v 5.99601984 -4.34567022 -9.95872974
v 7.04650021 -2.28416991 -9.95872021
v 8.30648994 -6.02437019 -7.26175022
v 8.30648994 -6.02437019 -7.26175022
v 9.76257038 -3.16667008 -7.26175022
v 9.85972023 -7.15287018 -3.83483005
v 9.76257038 -3.16667008 -7.26175022
v 11.58860016 -3.75996995 -3.83483005
v 9.85972023 -7.15287018 -3.83483005
v 11.58860016 -3.75996995 -3.83483005
v 10.51401043 -7.62827015 0.00907000
v 10.51401043 -7.62827015 0.00907000
v 12.35772038 -4.00987005 0.00907000
v 11.52785969 -5.12556982 3.91527009
v 12.35772038 -4.00987005 0.00907000
v 12.34216022 -2.61946988 3.91527009
v 11.52785969 -5.12556982 3.91527009
v 12.35772038 -4.00987005 0.00907000
v 3.13930988 -2.27016997 -11.67953968
v -3.11307001 2.27244997 -11.67953968
v 4.71546984 5.68327999 -9.95829010
v 9.76257038 -3.16667008 -7.26175022
v 9.76257038 3.16892004 -7.26175022
v 11.58860016 -3.75996995 -3.83483005
v 11.58860016 -3.75996995 -3.83483005
v 12.91713047 1.09478998 -0.14384000
v 12.35772038 -4.00987005 0.00907000
v 12.35772038 -4.00987005 0.00907000
v 12.91713047 1.09478998 -0.14384000
v 12.34216022 -2.61946988 3.91527009
v 12.34216022 2.62174010 3.91527009
v 12.34216022 -2.61946988 3.91527009
v 12.91713047 1.09478998 -0.14384000
v -10.63514042 2.26448011 37.15410995
v -10.63514042 -2.26226997 37.15410995
v -10.61056995 1.65542996 40.89316940
v -10.12170029 -3.68766999 40.89577103
v -9.63731956 1.11883998 44.52991867
v -10.61056995 1.65542996 40.89316940
v -10.12170029 -3.68766999 40.89577103
v -10.61056995 1.65542996 40.89316940
v -10.63514042 -2.26226997 37.15410995
v 3.49825001 -6.03527021 47.24267960
v 5.35263014 -4.47926998 47.24261093
v 2.84679008 -2.37656999 49.09226990
v -9.63731956 1.11883998 44.52991867
v -8.84622002 -3.22337008 44.39990997
v -6.58291006 0.00113000 47.53578949
v -8.84622002 -3.22337008 44.39990997
v -9.63731956 1.11883998 44.52991867
v -10.12170029 -3.68766999 40.89577103
v -6.53673983 -2.38277006 47.24269104
v -6.58291006 0.00113000 47.53578949
v -8.84622002 -3.22337008 44.39990997
v 7.29731989 -8.08887005 37.15417862
v 9.95808983 -4.42667007 37.15410995
v 8.27509975 -6.93146992 40.89575958
v -3.46286988 -1.26401997 49.09226990
v -2.82053995 2.37883997 49.09226990
v -6.53673983 -2.38277006 47.24269104
v -10.63514042 -2.26226997 37.15410995
v -9.93183994 -4.42667007 37.15410995
v -10.12170029 -3.68766999 40.89577103
v -8.24884987 -6.93146992 40.89577103
v -10.12170029 -3.68766999 40.89577103
v -9.93183994 -4.42667007 37.15410995
v -10.12170029 -3.68766999 40.89577103
v -8.24884987 -6.93146992 40.89577103
v -8.84622002 -3.22337008 44.39990997
v -8.84622002 -3.22337008 44.39990997
v -7.20898008 -6.05896997 44.39990997
v -6.53673983 -2.38277006 47.24269104
v -7.20898008 -6.05896997 44.39990997
v -5.32637978 -4.47926998 47.24261856
v -6.53673983 -2.38277006 47.24269104
v -5.32637978 -4.47926998 47.24261856
v -3.46286988 -1.26401997 49.09226990
v -9.93183994 -4.42667007 37.15410995
v -7.27105999 -8.08887005 37.15417862
v -8.24884987 -6.93146992 40.89577103
v -5.37954998 -9.33917046 40.89577103
v -8.24884987 -6.93146992 40.89577103
v -7.27105999 -8.08887005 37.15417862
v -8.24884987 -6.93146992 40.89577103
v -5.37954998 -9.33917046 40.89577103
v -7.20898008 -6.05896997 44.39990997
v -4.70088005 -8.16366959 44.39990997
v -7.20898008 -6.05896997 44.39990997
v -4.70088005 -8.16366959 44.39990997
v -5.32637978 -4.47926998 47.24261856
v -5.32637978 -4.47926998 47.24261856
v -3.47199011 -6.03527021 47.24269104
v -3.46286988 -1.26401997 49.09226990
v -3.47199011 -6.03527021 47.24269104
v -7.27105999 -8.08887005 37.15417862
v -3.35086012 -10.35216999 37.15417099
v -5.37954998 -9.33917046 40.89577103
v -5.37954998 -9.33917046 40.89577103
v -1.85970998 -10.62026978 40.89575958
v -4.70088005 -8.16366959 44.39990997
v -1.85970998 -10.62026978 40.89575958
v -5.37954998 -9.33917046 40.89577103
v -3.35086012 -10.35216999 37.15417099
v -4.70088005 -8.16366959 44.39990997
v -1.62397003 -9.28347015 44.39990997
v -3.47199011 -6.03527021 47.24269104
v -1.62397003 -9.28347015 44.39990997
v -1.85970998 -10.62026978 40.89575958
v -3.35086012 -10.35216999 37.15417099
v 1.15100002 -10.82536983 37.15417862
v 1.88597000 -10.62026978 40.89575958
v -1.85970998 -10.62026978 40.89575958
v 1.15100002 -10.82536983 37.15417862
v -1.85970998 -10.62026978 40.89575958
v 1.88597000 -10.62026978 40.89575958
v -1.62397003 -9.28347015 44.39990997
v 1.65022004 -9.28347015 44.39989853
v -1.62397003 -9.28347015 44.39990997
v 1.65022004 -9.28347015 44.39989853
v -3.47199011 -6.03527021 47.24269104
v 3.49825001 -6.03527021 47.24267960
v -3.47199011 -6.03527021 47.24269104
v 3.49825001 -6.03527021 47.24267960
v -3.46286988 -1.26401997 49.09226990
v 2.84679008 -2.37656999 49.09226990
v -3.46286988 -1.26401997 49.09226990
v 3.49825001 -6.03527021 47.24267960
v -3.46286988 -1.26401997 49.09226990
v 2.84679008 -2.37656999 49.09226990
v -2.82053995 2.37883997 49.09226990
v 1.88597000 -10.62026978 40.89575958
v 5.40580988 -9.33917046 40.89575958
v 1.65022004 -9.28347015 44.39989853
v 4.72705984 -8.16366959 44.39982986
v 1.65022004 -9.28347015 44.39989853
v 4.72705984 -8.16366959 44.39982986
v 3.49825001 -6.03527021 47.24267960
v 8.27509975 -6.93146992 40.89575958
v 5.40580988 -9.33917046 40.89575958
v 7.29731989 -8.08887005 37.15417862
v 5.40580988 -9.33917046 40.89575958
v 4.72705984 -8.16366959 44.39982986
v 10.66137981 2.26448011 37.15410995
v 10.65736961 -0.00554000 41.13605881
v 10.66137981 -2.26226997 37.15410995
v 10.14795017 -3.68766999 40.89575958
v 10.66137981 -2.26226997 37.15410995
v 10.65736961 -0.00554000 41.13605881
v 1.15100002 -10.82536983 37.15417862
v 5.40580988 -9.33917046 40.89575958
v 1.88597000 -10.62026978 40.89575958
v 1.15100002 -10.82536983 37.15417862
v 7.29731989 -8.08887005 37.15417862
v 5.40580988 -9.33917046 40.89575958
v -8.42090034 -9.36577034 3.91528010
v -10.48777008 -7.62827015 0.00908000
v -7.61620998 -10.49977016 0.00908000
v -11.50162029 -5.12556982 3.91528010
v -10.48777008 -7.62827015 0.00908000
v -8.42090034 -9.36577034 3.91528010
v -5.96977997 -4.34567022 -9.95872021
v -3.19906998 -6.56849003 -9.78374004
v -6.01242018 -8.29226971 -7.26175022
v 0.01312000 -7.39416981 -9.95864964
v -3.19906998 -6.56849003 -9.78374004
v -3.66193008 -1.19297004 -11.67953968
v -3.19906998 -6.56849003 -9.78374004
v -5.96977997 -4.34567022 -9.95872021
v -3.66193008 -1.19297004 -11.67953968
v 0.01312000 -10.25006962 -7.26175022
v -3.74798012 -11.57427025 -3.83482003
v -3.78334999 -9.39795017 -7.68514013
v 0.01312000 -7.39416981 -9.95864964
v 0.01312000 -10.25006962 -7.26175022
v -3.78334999 -9.39795017 -7.68514013
v -7.14089012 -9.84547043 -3.83489990
v -3.78334999 -9.39795017 -7.68514013
v -3.74798012 -11.57427025 -3.83482003
v -6.01242018 -8.29226971 -7.26175022
v -3.78334999 -9.39795017 -7.68514013
v -7.14089012 -9.84547043 -3.83489990
v 0.01312000 -7.39416981 -9.95864964
v -3.78334999 -9.39795017 -7.68514013
v -3.19906998 -6.56849003 -9.78374004
v -6.01242018 -8.29226971 -7.26175022
v -3.19906998 -6.56849003 -9.78374004
v -3.78334999 -9.39795017 -7.68514013
v 7.16705990 9.84776974 -3.83483005
v 9.97585964 6.39628983 -3.98794007
v 6.03858995 8.29450035 -7.26168013
v 12.91713047 1.09478998 -0.14384000
v 10.94573975 6.09801006 -0.28748000
v 11.52785969 5.12782001 3.91527009
v 10.94573975 6.09801006 -0.28748000
v 7.64244986 10.50203991 0.00908000
v 11.52785969 5.12782001 3.91527009
v 7.64244986 10.50203991 0.00908000
v 10.94573975 6.09801006 -0.28748000
v 9.97585964 6.39628983 -3.98794007
v 7.64244986 10.50203991 0.00908000
v 9.97585964 6.39628983 -3.98794007
v 7.16705990 9.84776974 -3.83483005
v 9.76257038 3.16892004 -7.26175022
v 11.56665039 1.44050002 -3.96156001
v 11.58860016 -3.75996995 -3.83483005
v 11.56665039 1.44050002 -3.96156001
v 12.91713047 1.09478998 -0.14384000
v 11.58860016 -3.75996995 -3.83483005
v 9.76257038 3.16892004 -7.26175022
v 9.97585964 6.39628983 -3.98794007
v 11.56665039 1.44050002 -3.96156001
v 9.76257038 3.16892004 -7.26175022
v 8.30648994 6.02661991 -7.26175022
v 9.97585964 6.39628983 -3.98794007
v 8.30648994 6.02661991 -7.26175022
v 6.03858995 8.29450035 -7.26168013
v 9.97585964 6.39628983 -3.98794007
v 12.91713047 1.09478998 -0.14384000
v 9.97585964 6.39628983 -3.98794007
v 10.94573975 6.09801006 -0.28748000
v 12.91713047 1.09478998 -0.14384000
v 11.56665039 1.44050002 -3.96156001
v 9.97585964 6.39628983 -3.98794007
v 4.71546984 5.68327999 -9.95829010
v 1.44190001 7.54036999 -9.95508957
v 3.18089008 9.75057030 -7.26168013
v 1.44190001 7.54036999 -9.95508957
v -2.27218008 7.03446007 -9.95872021
v 3.18089008 9.75057030 -7.26168013
v -2.27218008 7.03446007 -9.95872021
v 1.44190001 7.54036999 -9.95508957
v -3.11307001 2.27244997 -11.67953968
v 1.44190001 7.54036999 -9.95508957
v 4.71546984 5.68327999 -9.95829010
v -3.11307001 2.27244997 -11.67953968
v 4.71546984 5.68327999 -9.95829010
v 7.22985983 1.88477004 -9.95263958
v 3.13930988 -2.27016997 -11.67953968
v 7.22985983 1.88477004 -9.95263958
v 7.04650021 -2.28416991 -9.95872021
v 3.13930988 -2.27016997 -11.67953968
v 7.04650021 -2.28416991 -9.95872021
v 7.22985983 1.88477004 -9.95263958
v 9.76257038 -3.16667008 -7.26175022
v 9.76257038 -3.16667008 -7.26175022
v 7.22985983 1.88477004 -9.95263958
v 9.76257038 3.16892004 -7.26175022
v 7.22985983 1.88477004 -9.95263958
v 4.71546984 5.68327999 -9.95829010
v 9.76257038 3.16892004 -7.26175022
v 1.33067000 -12.53427029 3.91528010
v 3.90808010 -11.98637009 3.91528010
v 3.39831996 -10.41726971 12.12189007
v 3.39831996 -10.41726971 12.12189007
v 2.84679008 -2.37656999 49.09226990
v 2.54221010 1.39789999 49.16617966
v -2.82053995 2.37883997 49.09226990
v -2.82053995 2.37883997 49.09226990
v -6.58291006 0.00113000 47.53578949
v -6.53673983 -2.38277006 47.24269104
f 1 2 3
f 4 5 6
f 7 8 9
f 10 11 12
f 13 14 15
f 16 17 18
f 19 20 21
f 22 23 24
f 25 26 27
f 15 28 13
f 29 24 23
f 30 31 32
f 33 34 35
f 36 37 38
f 39 38 37
f 40 41 42
f 43 42 41
f 44 45 46
f 47 48 49
f 50 51 52
f 53 54 55
f 56 57 58
f 59 60 61
f 62 63 64
f 65 55 54
f 66 67 68
f 69 64 63
f 70 71 72
f 73 74 75
f 76 77 78
f 79 80 81
f 82 83 84
f 85 81 80
f 86 87 88
f 89 84 83
f 78 90 76
f 91 92 93
f 94 95 96
f 97 98 99
f 100 101 102
f 103 104 105
f 106 102 101
f 107 108 109
f 110 109 108
f 111 112 113
f 114 115 116
f 117 118 119
f 120 121 122
f 123 124 125
f 126 127 128
f 129 128 127
f 130 131 132
f 133 134 135
f 136 132 131
f 137 138 139
f 140 141 142
f 143 144 145
f 146 147 148
f 149 150 151
f 152 153 154
f 155 151 150
f 156 157 158
f 159 154 153
f 160 161 162
f 163 164 165
f 166 167 168
f 169 170 171
f 172 173 174
f 175 176 177
f 178 179 180
f 181 182 183
f 184 185 186
f 187 188 189
f 190 191 192
f 193 194 195
f 196 192 191
f 197 198 199
f 200 199 198
f 201 202 203
f 204 205 206
f 207 208 209
f 210 211 212
f 213 214 215
f 216 217 218
f 219 220 221
f 222 223 224
f 225 215 214
f 226 227 228
f 229 230 231
f 232 233 234
f 235 236 237
f 238 234 233
f 239 240 241
f 242 243 244
f 245 246 247
f 248 249 250
f 251 252 253
f 254 255 256
f 257 253 252
f 258 256 255
f 259 260 261
f 262 263 264
f 265 266 267
f 268 269 270
f 271 272 273
f 274 270 269
f 275 276 277
f 278 277 276
f 279 280 281
f 282 283 284
f 285 286 287
f 288 289 290
f 291 292 293
f 294 295 296
f 297 296 295
f 298 299 300
f 301 302 303
f 304 300 299
f 305 306 307
f 308 309 310
f 311 312 313
f 314 315 316
f 317 318 319
f 320 321 322
f 323 324 325
f 326 327 328
f 329 330 331
f 332 333 334
f 335 336 337
f 338 339 340
f 341 342 343
f 344 345 346
f 347 348 349
f 350 351 352
f 353 354 355
f 356 349 348
f 357 358 359
f 360 355 354
f 361 362 363
f 364 365 366
f 367 368 369
f 370 371 372
f 373 369 368
f 374 375 376
f 377 378 379
f 380 381 382
f 383 384 385
f 386 376 375
f 387 388 389
f 390 391 392
f 393 394 395
f 396 397 398
f 399 400 401
f 402 403 404
f 405 406 407
f 408 398 397
f 409 410 411
f 412 413 414
f 415 416 417
f 418 411 410
f 419 420 421
f 422 423 424
f 425 426 427
f 428 429 430
f 431 432 433
f 434 435 436
f 437 438 439
f 440 441 442
f 443 444 445
f 446 447 448
f 449 450 451
f 452 453 454
f 455 456 457
f 458 3 2
f 459 460 461
f 462 463 464
f 465 466 467
f 468 469 470
f 471 472 473
f 474 475 476
f 477 478 479
f 480 481 482
f 483 484 485
f 486 487 488
f 489 490 491
f 492 493 494
f 495 496 497
f 498 491 490
f 499 500 501
f 502 497 496
f 503 504 505
f 506 507 508
f 509 510 511
f 512 513 514
f 515 511 510
f 516 514 513
f 517 518 519
f 520 521 522
f 523 524 525
f 526 527 528
f 529 530 531
f 532 533 534
f 535 528 527
f 536 537 538
f 539 540 541
f 542 538 537
f 543 544 545
f 546 547 548
f 549 550 551
f 552 553 554
f 555 556 557
f 558 559 560
f 561 557 556
f 562 563 564
f 565 560 559
f 566 567 568
f 569 570 571
f 572 573 574
f 575 576 577
f 578 574 573
f 579 577 576
f 580 581 582
f 583 584 585
f 586 587 588
f 589 590 591
f 592 593 594
f 595 596 597
f 598 599 600
f 601 597 596
f 602 603 604
f 605 600 599
f 606 607 608
f 609 610 611
f 612 613 614
f 615 616 617
f 618 611 610
f 619 620 621
f 622 617 616
f 623 624 625
f 626 627 628
f 629 630 631
f 632 633 634
f 635 636 637
f 632 634 638
f 639 640 641
f 642 643 644
f 645 646 647
f 648 482 481
f 649 650 651
f 652 653 654
f 655 656 657
f 658 659 660
f 661 662 663
f 664 665 666
f 667 668 669
f 670 671 672
f 673 674 675
f 676 677 678
f 679 680 681
f 682 683 684
f 685 686 687
f 688 689 690
f 691 692 693
f 694 695 696
f 697 698 699
f 700 701 702
f 703 704 705
f 706 707 708
f 709 710 711
f 712 713 714
f 715 716 717
f 718 719 720
f 721 714 713
f 722 720 719
f 723 724 725
f 726 727 728
f 729 730 731
f 732 728 727
f 733 734 735
f 736 737 738
f 739 740 741
f 742 738 737
f 743 744 745
f 746 747 748
f 749 750 751
f 752 753 754
f 755 756 757
f 758 759 760
f 761 762 763
f 764 765 766
f 767 763 762
f 768 769 770
f 771 766 765
f 772 770 769
f 773 774 775
f 776 777 778
f 779 780 781
f 782 783 784
f 785 786 787
f 788 789 790
f 791 792 793
f 794 787 786
f 795 793 792
f 796 797 798
f 799 800 801
f 802 803 804
f 805 806 807
f 808 809 810
f 811 810 809
f 812 813 814
f 815 814 813
f 816 817 818
f 819 820 821
f 822 823 824
f 825 826 827
f 828 829 830
f 831 827 826
f 832 830 829
f 833 834 835
f 836 837 838
f 839 835 834
f 840 841 842
f 843 844 845
f 846 847 848
f 849 850 851
f 852 853 854
f 855 856 857
f 858 859 860
f 861 862 863
f 864 865 866
f 867 868 869
f 870 871 872
f 873 874 875
f 876 877 878
f 879 880 881
f 882 883 884
f 885 886 887
f 888 889 890
f 891 892 893
f 894 895 896
f 897 893 892
f 898 896 895
f 899 900 901
f 902 903 904
f 905 906 907
f 908 909 910
f 911 910 909
f 912 913 914
f 915 916 917
f 918 914 913
f 919 920 921
f 922 923 924
f 925 926 927
f 928 929 930
f 931 924 923
f 932 933 934
f 935 936 937
f 938 939 940
f 941 940 939
f 942 943 944
f 945 944 943
f 946 947 948
f 949 950 951
f 952 953 954
f 955 956 957
f 958 957 956
f 959 960 961
f 962 963 964
f 965 183 182
f 966 162 161
f 967 968 969
f 970 971 972
f 973 974 975
f 976 977 978
f 979 980 981
f 982 983 984
f 985 986 987
f 988 989 990
f 991 992 993
f 994 995 996
f 997 998 999
f 1000 1001 1002
f 1003 1004 1005
f 1006 1007 1008
f 1009 1010 1011
f 1012 1013 1014
f 1015 1016 1017
f 1018 1019 1020
f 1021 1022 1023
f 1024 1025 1026
f 1027 1028 1029
f 1030 1031 1032
f 1033 1034 1035
f 1036 1037 1038
f 1039 1040 1041
f 1042 1043 1044
f 1045 1046 1047
f 1048 1049 1050
f 1051 1052 1053
f 1054 1055 1056
f 1057 1058 1059
f 1060 1061 1062
f 1063 1064 1065
f 1066 1067 1068
f 1069 1070 1071
f 1072 1073 1074
f 1075 1076 1077
f 551 550 1078
f 1079 1080 1081
f 1082 1083 1084

